<?xml version="1.0" encoding="us-ascii" standalone="no"?><svg xmlns="http://www.w3.org/2000/svg" xmlns:xlink="http://www.w3.org/1999/xlink" contentStyleType="text/css" height="370.5px" preserveAspectRatio="none" style="width:939px;height:370px;background:#FFFFFF;" version="1.1" viewBox="0 0 939 370" width="939.5px" zoomAndPan="magnify"><defs/><g><rect fill="#C8C8FA" height="361.4688" style="stroke:#181818;stroke-width:0.25;" width="777.25" x="83" y="3"/><text fill="#FFFFFF" font-family="sans-serif" font-size="6.5" font-weight="bold" lengthAdjust="spacing" textLength="17.5" x="461.875" y="8.8843">Logic</text><rect fill="#F97181" height="361.4688" style="stroke:#181818;stroke-width:0.25;" width="75.5" x="861.25" y="3"/><text fill="#FFFFFF" font-family="sans-serif" font-size="6.5" font-weight="bold" lengthAdjust="spacing" textLength="19.5" x="888.25" y="8.8843">Model</text><rect fill="#FFFFFF" height="315.625" style="stroke:#181818;stroke-width:0.5;" width="5" x="114.5" y="42.8438"/><rect fill="#FFFFFF" height="111.6875" style="stroke:#181818;stroke-width:0.5;" width="5" x="256.5" y="57.1055"/><rect fill="#FFFFFF" height="8.0586" style="stroke:#181818;stroke-width:0.5;" width="5" x="425.75" y="76.3672"/><rect fill="#FFFFFF" height="48.8438" style="stroke:#181818;stroke-width:0.5;" width="5" x="425.75" y="98.6875"/><rect fill="#FFFFFF" height="15.3203" style="stroke:#181818;stroke-width:0.5;" width="5" x="599.25" y="117.9492"/><rect fill="#FFFFFF" height="161.4141" style="stroke:#181818;stroke-width:0.5;" width="5" x="599.25" y="183.0547"/><rect fill="#FFFFFF" height="19.7617" style="stroke:#181818;stroke-width:0.5;" width="5" x="601.75" y="229.8398"/><rect fill="#FFFFFF" height="15.3203" style="stroke:#181818;stroke-width:0.5;" width="5" x="819" y="314.8867"/><rect fill="#FFFFFF" height="14.2617" style="stroke:#181818;stroke-width:0.5;" width="5" x="896.5" y="197.3164"/><rect fill="#FFFFFF" height="7" style="stroke:#181818;stroke-width:0.5;" width="5" x="896.5" y="267.3633"/><rect fill="#FFFFFF" height="7" style="stroke:#181818;stroke-width:0.5;" width="5" x="896.5" y="288.625"/><line style="stroke:#181818;stroke-width:0.25;stroke-dasharray:5.0,5.0;" x1="117" x2="117" y1="27.582" y2="367.4688"/><line style="stroke:#181818;stroke-width:0.25;stroke-dasharray:5.0,5.0;" x1="259" x2="259" y1="27.582" y2="367.4688"/><line style="stroke:#181818;stroke-width:0.25;stroke-dasharray:5.0,5.0;" x1="428" x2="428" y1="76.2656" y2="367.4688"/><line style="stroke:#181818;stroke-width:0.25;stroke-dasharray:5.0,5.0;" x1="601.75" x2="601.75" y1="117.8477" y2="367.4688"/><line style="stroke:#181818;stroke-width:0.25;stroke-dasharray:5.0,5.0;" x1="821.25" x2="821.25" y1="314.7852" y2="367.4688"/><line style="stroke:#181818;stroke-width:0.25;stroke-dasharray:5.0,5.0;" x1="898.75" x2="898.75" y1="27.582" y2="367.4688"/><rect fill="#3333C4" height="14.8203" rx="1.25" ry="1.25" style="stroke:#181818;stroke-width:0.25;" width="54" x="90" y="12.2617"/><text fill="#FFFFFF" font-family="sans-serif" font-size="7" lengthAdjust="spacing" textLength="47" x="93.5" y="22.0986">:LogicManager</text><rect fill="#3333C4" height="14.8203" rx="1.25" ry="1.25" style="stroke:#181818;stroke-width:0.25;" width="72" x="223" y="12.2617"/><text fill="#FFFFFF" font-family="sans-serif" font-size="7" lengthAdjust="spacing" textLength="65" x="226.5" y="22.0986">:AddressBookParser</text><rect fill="#9D0012" height="14.8203" rx="1.25" ry="1.25" style="stroke:#181818;stroke-width:0.25;" width="61.5" x="868.25" y="12.2617"/><text fill="#FFFFFF" font-family="sans-serif" font-size="7" lengthAdjust="spacing" textLength="54.5" x="871.75" y="22.0986">m:ModelManager</text><rect fill="#FFFFFF" height="315.625" style="stroke:#181818;stroke-width:0.5;" width="5" x="114.5" y="42.8438"/><rect fill="#FFFFFF" height="111.6875" style="stroke:#181818;stroke-width:0.5;" width="5" x="256.5" y="57.1055"/><rect fill="#FFFFFF" height="8.0586" style="stroke:#181818;stroke-width:0.5;" width="5" x="425.75" y="76.3672"/><rect fill="#FFFFFF" height="48.8438" style="stroke:#181818;stroke-width:0.5;" width="5" x="425.75" y="98.6875"/><rect fill="#FFFFFF" height="15.3203" style="stroke:#181818;stroke-width:0.5;" width="5" x="599.25" y="117.9492"/><rect fill="#FFFFFF" height="161.4141" style="stroke:#181818;stroke-width:0.5;" width="5" x="599.25" y="183.0547"/><rect fill="#FFFFFF" height="19.7617" style="stroke:#181818;stroke-width:0.5;" width="5" x="601.75" y="229.8398"/><rect fill="#FFFFFF" height="15.3203" style="stroke:#181818;stroke-width:0.5;" width="5" x="819" y="314.8867"/><rect fill="#FFFFFF" height="14.2617" style="stroke:#181818;stroke-width:0.5;" width="5" x="896.5" y="197.3164"/><rect fill="#FFFFFF" height="7" style="stroke:#181818;stroke-width:0.5;" width="5" x="896.5" y="267.3633"/><rect fill="#FFFFFF" height="7" style="stroke:#181818;stroke-width:0.5;" width="5" x="896.5" y="288.625"/><polygon fill="#181818" points="108.5,40.8438,113.5,42.8438,108.5,44.8438,110.5,42.8438" style="stroke:#181818;stroke-width:0.5;"/><line style="stroke:#181818;stroke-width:0.5;" x1="0" x2="111.5" y1="42.8438" y2="42.8438"/><text fill="#000000" font-family="sans-serif" font-size="6.5" lengthAdjust="spacing" textLength="105" x="4.75" y="40.4663">execute("addTagPerson 1 t/caterer")</text><polygon fill="#181818" points="250.5,55.1055,255.5,57.1055,250.5,59.1055,252.5,57.1055" style="stroke:#181818;stroke-width:0.5;"/><line style="stroke:#181818;stroke-width:0.5;" x1="119.5" x2="253.5" y1="57.1055" y2="57.1055"/><text fill="#000000" font-family="sans-serif" font-size="6.5" lengthAdjust="spacing" textLength="127.5" x="124.25" y="54.728">parseCommand("addTagPerson 1 t/caterer")</text><polygon fill="#181818" points="367.5,69.3672,372.5,71.3672,367.5,73.3672,369.5,71.3672" style="stroke:#181818;stroke-width:0.5;"/><line style="stroke:#181818;stroke-width:0.5;" x1="261.5" x2="370.5" y1="71.3672" y2="71.3672"/><text fill="#000000" font-family="sans-serif" font-size="6.5" lengthAdjust="spacing" textLength="95" x="270" y="68.9897">AddTagPersonCommandParser()</text><rect fill="#3333C4" height="14.8203" rx="1.25" ry="1.25" style="stroke:#181818;stroke-width:0.25;" width="109.5" x="373.5" y="61.1055"/><text fill="#FFFFFF" font-family="sans-serif" font-size="7" lengthAdjust="spacing" textLength="102.5" x="377" y="70.9424">:AddTagPersonCommandParser</text><polygon fill="#181818" points="267,82.4258,262,84.4258,267,86.4258,265,84.4258" style="stroke:#181818;stroke-width:0.5;"/><line style="stroke:#181818;stroke-width:0.5;stroke-dasharray:2.0,2.0;" x1="264" x2="427.75" y1="84.4258" y2="84.4258"/><polygon fill="#181818" points="419.75,96.6875,424.75,98.6875,419.75,100.6875,421.75,98.6875" style="stroke:#181818;stroke-width:0.5;"/><line style="stroke:#181818;stroke-width:0.5;" x1="261.5" x2="422.75" y1="98.6875" y2="98.6875"/><text fill="#000000" font-family="sans-serif" font-size="6.5" lengthAdjust="spacing" textLength="54.5" x="316.375" y="96.3101">parse("1 t/caterer")</text><polygon fill="#181818" points="549.75,110.9492,554.75,112.9492,549.75,114.9492,551.75,112.9492" style="stroke:#181818;stroke-width:0.5;"/><line style="stroke:#181818;stroke-width:0.5;" x1="430.75" x2="552.75" y1="112.9492" y2="112.9492"/><text fill="#000000" font-family="sans-serif" font-size="6.5" lengthAdjust="spacing" textLength="108" x="439.25" y="110.5718">AddTagPersonCommand(index, tags)</text><rect fill="#3333C4" height="14.8203" rx="1.25" ry="1.25" style="stroke:#181818;stroke-width:0.25;" width="92" x="555.75" y="102.6875"/><text fill="#FFFFFF" font-family="sans-serif" font-size="7" lengthAdjust="spacing" textLength="85" x="559.25" y="112.5244">c:AddTagPersonCommand</text><polygon fill="#181818" points="436.25,131.2695,431.25,133.2695,436.25,135.2695,434.25,133.2695" style="stroke:#181818;stroke-width:0.5;"/><line style="stroke:#181818;stroke-width:0.5;stroke-dasharray:2.0,2.0;" x1="433.25" x2="601.25" y1="133.2695" y2="133.2695"/><text fill="#000000" font-family="sans-serif" font-size="6.5" lengthAdjust="spacing" textLength="3.5" x="514.5" y="130.8921">c</text><polygon fill="#181818" points="267,145.5313,262,147.5313,267,149.5313,265,147.5313" style="stroke:#181818;stroke-width:0.5;"/><line style="stroke:#181818;stroke-width:0.5;stroke-dasharray:2.0,2.0;" x1="264" x2="427.75" y1="147.5313" y2="147.5313"/><text fill="#000000" font-family="sans-serif" font-size="6.5" lengthAdjust="spacing" textLength="3.5" x="343.125" y="145.1538">c</text><line style="stroke:#A80036;stroke-width:1.0;" x1="423.75" x2="432.75" y1="150.0313" y2="159.0313"/><line style="stroke:#A80036;stroke-width:1.0;" x1="423.75" x2="432.75" y1="159.0313" y2="150.0313"/><polygon fill="#181818" points="125,166.793,120,168.793,125,170.793,123,168.793" style="stroke:#181818;stroke-width:0.5;"/><line style="stroke:#181818;stroke-width:0.5;stroke-dasharray:2.0,2.0;" x1="122" x2="258.5" y1="168.793" y2="168.793"/><text fill="#000000" font-family="sans-serif" font-size="6.5" lengthAdjust="spacing" textLength="3.5" x="187.5" y="166.4155">c</text><polygon fill="#181818" points="593.25,181.0547,598.25,183.0547,593.25,185.0547,595.25,183.0547" style="stroke:#181818;stroke-width:0.5;"/><line style="stroke:#181818;stroke-width:0.5;" x1="119.5" x2="596.25" y1="183.0547" y2="183.0547"/><text fill="#000000" font-family="sans-serif" font-size="6.5" lengthAdjust="spacing" textLength="32.5" x="343.125" y="180.6772">execute(m)</text><polygon fill="#181818" points="890.5,195.3164,895.5,197.3164,890.5,199.3164,892.5,197.3164" style="stroke:#181818;stroke-width:0.5;"/><line style="stroke:#181818;stroke-width:0.5;" x1="604.25" x2="893.5" y1="197.3164" y2="197.3164"/><text fill="#000000" font-family="sans-serif" font-size="6.5" lengthAdjust="spacing" textLength="65.5" x="717.625" y="194.939">getFilteredPersonList()</text><polygon fill="#181818" points="609.75,209.5781,604.75,211.5781,609.75,213.5781,607.75,211.5781" style="stroke:#181818;stroke-width:0.5;"/><line style="stroke:#181818;stroke-width:0.5;stroke-dasharray:2.0,2.0;" x1="606.75" x2="898.5" y1="211.5781" y2="211.5781"/><text fill="#000000" font-family="sans-serif" font-size="6.5" lengthAdjust="spacing" textLength="61" x="721.125" y="209.2007">lastShownPersonList</text><line style="stroke:#181818;stroke-width:0.5;" x1="604.25" x2="627.75" y1="223.3398" y2="223.3398"/><line style="stroke:#181818;stroke-width:0.5;" x1="627.75" x2="627.75" y1="223.3398" y2="229.8398"/><line style="stroke:#181818;stroke-width:0.5;" x1="607.25" x2="627.75" y1="229.8398" y2="229.8398"/><polygon fill="#181818" points="612.25,227.8398,607.25,229.8398,612.25,231.8398,610.25,229.8398" style="stroke:#181818;stroke-width:0.5;"/><text fill="#000000" font-family="sans-serif" font-size="6.5" lengthAdjust="spacing" textLength="134" x="610.25" y="220.9624">createEditedPerson(personToEdit, tagsToAdd)</text><line style="stroke:#181818;stroke-width:0.5;stroke-dasharray:2.0,2.0;" x1="606.75" x2="627.75" y1="249.1016" y2="249.1016"/><line style="stroke:#181818;stroke-width:0.5;stroke-dasharray:2.0,2.0;" x1="627.75" x2="627.75" y1="249.1016" y2="255.6016"/><line style="stroke:#181818;stroke-width:0.5;stroke-dasharray:2.0,2.0;" x1="604.25" x2="627.75" y1="255.6016" y2="255.6016"/><polygon fill="#181818" points="609.25,253.6016,604.25,255.6016,609.25,257.6016,607.25,255.6016" style="stroke:#181818;stroke-width:0.5;"/><text fill="#000000" font-family="sans-serif" font-size="6.5" lengthAdjust="spacing" textLength="38" x="610.25" y="246.7241">editedPerson</text><polygon fill="#181818" points="890.5,265.3633,895.5,267.3633,890.5,269.3633,892.5,267.3633" style="stroke:#181818;stroke-width:0.5;"/><line style="stroke:#181818;stroke-width:0.5;" x1="604.25" x2="893.5" y1="267.3633" y2="267.3633"/><text fill="#000000" font-family="sans-serif" font-size="6.5" lengthAdjust="spacing" textLength="113.5" x="693.625" y="264.9858">setPerson(personToEdit, editedPerson)</text><polygon fill="#181818" points="609.75,272.3633,604.75,274.3633,609.75,276.3633,607.75,274.3633" style="stroke:#181818;stroke-width:0.5;"/><line style="stroke:#181818;stroke-width:0.5;stroke-dasharray:2.0,2.0;" x1="606.75" x2="898.5" y1="274.3633" y2="274.3633"/><polygon fill="#181818" points="890.5,286.625,895.5,288.625,890.5,290.625,892.5,288.625" style="stroke:#181818;stroke-width:0.5;"/><line style="stroke:#181818;stroke-width:0.5;" x1="604.25" x2="893.5" y1="288.625" y2="288.625"/><text fill="#000000" font-family="sans-serif" font-size="6.5" lengthAdjust="spacing" textLength="187" x="656.875" y="286.2476">updateFilteredPersonList(PREDICATE_SHOW_ALL_PERSONS)</text><polygon fill="#181818" points="609.75,293.625,604.75,295.625,609.75,297.625,607.75,295.625" style="stroke:#181818;stroke-width:0.5;"/><line style="stroke:#181818;stroke-width:0.5;stroke-dasharray:2.0,2.0;" x1="606.75" x2="898.5" y1="295.625" y2="295.625"/><polygon fill="#181818" points="783.75,307.8867,788.75,309.8867,783.75,311.8867,785.75,309.8867" style="stroke:#181818;stroke-width:0.5;"/><line style="stroke:#181818;stroke-width:0.5;" x1="604.25" x2="786.75" y1="309.8867" y2="309.8867"/><text fill="#000000" font-family="sans-serif" font-size="6.5" lengthAdjust="spacing" textLength="168.5" x="612.75" y="307.5093">CommandResult(MESSAGE_EDIT_PERSON_SUCCESS)</text><rect fill="#3333C4" height="14.8203" rx="1.25" ry="1.25" style="stroke:#181818;stroke-width:0.25;" width="63.5" x="789.75" y="299.625"/><text fill="#FFFFFF" font-family="sans-serif" font-size="7" lengthAdjust="spacing" textLength="56.5" x="793.25" y="309.4619">r:CommandResult</text><polygon fill="#181818" points="609.75,328.207,604.75,330.207,609.75,332.207,607.75,330.207" style="stroke:#181818;stroke-width:0.5;"/><line style="stroke:#181818;stroke-width:0.5;stroke-dasharray:2.0,2.0;" x1="606.75" x2="821" y1="330.207" y2="330.207"/><text fill="#000000" font-family="sans-serif" font-size="6.5" lengthAdjust="spacing" textLength="2" x="711.875" y="327.8296">r</text><polygon fill="#181818" points="125,342.4688,120,344.4688,125,346.4688,123,344.4688" style="stroke:#181818;stroke-width:0.5;"/><line style="stroke:#181818;stroke-width:0.5;stroke-dasharray:2.0,2.0;" x1="122" x2="601.25" y1="344.4688" y2="344.4688"/><text fill="#000000" font-family="sans-serif" font-size="6.5" lengthAdjust="spacing" textLength="2" x="359.625" y="342.0913">r</text><line style="stroke:#A80036;stroke-width:1.0;" x1="597.25" x2="606.25" y1="346.9688" y2="355.9688"/><line style="stroke:#A80036;stroke-width:1.0;" x1="597.25" x2="606.25" y1="355.9688" y2="346.9688"/><polygon fill="#181818" points="5.5,356.4688,0.5,358.4688,5.5,360.4688,3.5,358.4688" style="stroke:#181818;stroke-width:0.5;"/><line style="stroke:#181818;stroke-width:0.5;stroke-dasharray:2.0,2.0;" x1="2.5" x2="116.5" y1="358.4688" y2="358.4688"/><!--SRC=[lLR9Rjim4BtpArXVeW9rYbo58e2hA0iWLuQbeeUW46YHjGbBf43IJVBtfPOWf4nwIT6U90rdtioyMSGFb9NL3XCerKj5BfjTNG6vfQn10jLm9WH_kkLCPUqfR2f46G0h_WmJlgObJDAxXwY8qYHT5laLq4QAbhH1JC59sAdC4KDh8YOGIMWAJDEHtGnZGQJyolbsWOGSZFUaXn5oj5uG8JcBU5qZXcqazwaViNH1-i3yC28SL9P4xYhL0LWIovHeA4rrp_USOrB1UNeJ9nw-wx3JCGat1QRj6_JZzDekImZ9CobtYWGJPAG6hw3wN295X8R-252fw6_zPTa2O25fvFsQXR1fNuQaJ_EnXm90ASXmuguasFVSX-CfVEW_2-n8FFw07tlg8W9WSYBgUMbqx0OJFvC-Jtv63wNc3CRDPa0P9i-Ve49hUJWa9vclD7epBuzGUdQ9Ji0SoBkufnWJ1b6xBQ7YiE6IAgexMcq8n4GgmLzWZSHMewv8rIhfWtO8-Q_kTN3IcgoGk3mKwkEcS_RJqrMzh_DQQdy7Z1CVpvzZq1rTyBf9wdVL-zfUNo5S4tLBgxQfSQ-QKAdCyJJr0R2ifzuWAoHLjk5Fx0tJJDx6l8ZwCI6OAe9rBykjBtYtjtxCuiwyFmkQxf7pLjYFHywryH7EpXYHjXA6m_VCYQCQaYXd0gQhlwgDlmgd1RXhi3PrTCnY6TyyHBCyBhBxz4SnIv9Y4I-pz5lsZ-8TTglrf_SbOLy7GlixcCTPDhkB2vr0FWHTPD-ZI8kDs6r7m8RqDudrKnfX-Dfjj3UE_TV-pwgqbgHrGpcm7_LTwCjqEj9stdF-0000]--></g></svg>
