<?xml version="1.0" encoding="us-ascii" standalone="no"?><svg xmlns="http://www.w3.org/2000/svg" xmlns:xlink="http://www.w3.org/1999/xlink" contentStyleType="text/css" height="266.5px" preserveAspectRatio="none" style="width:657px;height:266px;background:#FFFFFF;" version="1.1" viewBox="0 0 657 266" width="657.5px" zoomAndPan="magnify"><defs/><g><rect fill="#C8C8FA" height="257.2461" style="stroke:#181818;stroke-width:0.25;" width="571.75" x="83" y="3"/><text fill="#FFFFFF" font-family="sans-serif" font-size="6.5" font-weight="bold" lengthAdjust="spacing" textLength="17.5" x="359.125" y="8.8843">Logic</text><rect fill="#FFFFFF" height="211.4023" style="stroke:#181818;stroke-width:0.5;" width="5" x="114.5" y="42.8438"/><rect fill="#FFFFFF" height="111.6875" style="stroke:#181818;stroke-width:0.5;" width="5" x="256.5" y="57.1055"/><rect fill="#FFFFFF" height="8.0586" style="stroke:#181818;stroke-width:0.5;" width="5" x="425.75" y="76.3672"/><rect fill="#FFFFFF" height="48.8438" style="stroke:#181818;stroke-width:0.5;" width="5" x="425.75" y="98.6875"/><rect fill="#FFFFFF" height="15.3203" style="stroke:#181818;stroke-width:0.5;" width="5" x="599.25" y="117.9492"/><rect fill="#FFFFFF" height="57.1914" style="stroke:#181818;stroke-width:0.5;" width="5" x="599.25" y="183.0547"/><line style="stroke:#181818;stroke-width:0.25;stroke-dasharray:5.0,5.0;" x1="117" x2="117" y1="27.582" y2="263.2461"/><line style="stroke:#181818;stroke-width:0.25;stroke-dasharray:5.0,5.0;" x1="259" x2="259" y1="27.582" y2="263.2461"/><line style="stroke:#181818;stroke-width:0.25;stroke-dasharray:5.0,5.0;" x1="428" x2="428" y1="76.2656" y2="263.2461"/><line style="stroke:#181818;stroke-width:0.25;stroke-dasharray:5.0,5.0;" x1="601.75" x2="601.75" y1="117.8477" y2="263.2461"/><rect fill="#3333C4" height="14.8203" rx="1.25" ry="1.25" style="stroke:#181818;stroke-width:0.25;" width="54" x="90" y="12.2617"/><text fill="#FFFFFF" font-family="sans-serif" font-size="7" lengthAdjust="spacing" textLength="47" x="93.5" y="22.0986">:LogicManager</text><rect fill="#3333C4" height="14.8203" rx="1.25" ry="1.25" style="stroke:#181818;stroke-width:0.25;" width="72" x="223" y="12.2617"/><text fill="#FFFFFF" font-family="sans-serif" font-size="7" lengthAdjust="spacing" textLength="65" x="226.5" y="22.0986">:AddressBookParser</text><rect fill="#FFFFFF" height="211.4023" style="stroke:#181818;stroke-width:0.5;" width="5" x="114.5" y="42.8438"/><rect fill="#FFFFFF" height="111.6875" style="stroke:#181818;stroke-width:0.5;" width="5" x="256.5" y="57.1055"/><rect fill="#FFFFFF" height="8.0586" style="stroke:#181818;stroke-width:0.5;" width="5" x="425.75" y="76.3672"/><rect fill="#FFFFFF" height="48.8438" style="stroke:#181818;stroke-width:0.5;" width="5" x="425.75" y="98.6875"/><rect fill="#FFFFFF" height="15.3203" style="stroke:#181818;stroke-width:0.5;" width="5" x="599.25" y="117.9492"/><rect fill="#FFFFFF" height="57.1914" style="stroke:#181818;stroke-width:0.5;" width="5" x="599.25" y="183.0547"/><polygon fill="#181818" points="108.5,40.8438,113.5,42.8438,108.5,44.8438,110.5,42.8438" style="stroke:#181818;stroke-width:0.5;"/><line style="stroke:#181818;stroke-width:0.5;" x1="0" x2="111.5" y1="42.8438" y2="42.8438"/><text fill="#000000" font-family="sans-serif" font-size="6.5" lengthAdjust="spacing" textLength="105" x="4.75" y="40.4663">execute("addTagPerson 1 t/caterer")</text><polygon fill="#181818" points="250.5,55.1055,255.5,57.1055,250.5,59.1055,252.5,57.1055" style="stroke:#181818;stroke-width:0.5;"/><line style="stroke:#181818;stroke-width:0.5;" x1="119.5" x2="253.5" y1="57.1055" y2="57.1055"/><text fill="#000000" font-family="sans-serif" font-size="6.5" lengthAdjust="spacing" textLength="127.5" x="124.25" y="54.728">parseCommand("addTagPerson 1 t/caterer")</text><polygon fill="#181818" points="367.5,69.3672,372.5,71.3672,367.5,73.3672,369.5,71.3672" style="stroke:#181818;stroke-width:0.5;"/><line style="stroke:#181818;stroke-width:0.5;" x1="261.5" x2="370.5" y1="71.3672" y2="71.3672"/><text fill="#000000" font-family="sans-serif" font-size="6.5" lengthAdjust="spacing" textLength="95" x="270" y="68.9897">AddTagPersonCommandParser()</text><rect fill="#3333C4" height="14.8203" rx="1.25" ry="1.25" style="stroke:#181818;stroke-width:0.25;" width="109.5" x="373.5" y="61.1055"/><text fill="#FFFFFF" font-family="sans-serif" font-size="7" lengthAdjust="spacing" textLength="102.5" x="377" y="70.9424">:AddTagPersonCommandParser</text><polygon fill="#181818" points="267,82.4258,262,84.4258,267,86.4258,265,84.4258" style="stroke:#181818;stroke-width:0.5;"/><line style="stroke:#181818;stroke-width:0.5;stroke-dasharray:2.0,2.0;" x1="264" x2="427.75" y1="84.4258" y2="84.4258"/><polygon fill="#181818" points="419.75,96.6875,424.75,98.6875,419.75,100.6875,421.75,98.6875" style="stroke:#181818;stroke-width:0.5;"/><line style="stroke:#181818;stroke-width:0.5;" x1="261.5" x2="422.75" y1="98.6875" y2="98.6875"/><text fill="#000000" font-family="sans-serif" font-size="6.5" lengthAdjust="spacing" textLength="54.5" x="316.375" y="96.3101">parse("1 t/caterer")</text><polygon fill="#181818" points="549.75,110.9492,554.75,112.9492,549.75,114.9492,551.75,112.9492" style="stroke:#181818;stroke-width:0.5;"/><line style="stroke:#181818;stroke-width:0.5;" x1="430.75" x2="552.75" y1="112.9492" y2="112.9492"/><text fill="#000000" font-family="sans-serif" font-size="6.5" lengthAdjust="spacing" textLength="108" x="439.25" y="110.5718">AddTagPersonCommand(index, tags)</text><rect fill="#3333C4" height="14.8203" rx="1.25" ry="1.25" style="stroke:#181818;stroke-width:0.25;" width="92" x="555.75" y="102.6875"/><text fill="#FFFFFF" font-family="sans-serif" font-size="7" lengthAdjust="spacing" textLength="85" x="559.25" y="112.5244">c:AddTagPersonCommand</text><polygon fill="#181818" points="436.25,131.2695,431.25,133.2695,436.25,135.2695,434.25,133.2695" style="stroke:#181818;stroke-width:0.5;"/><line style="stroke:#181818;stroke-width:0.5;stroke-dasharray:2.0,2.0;" x1="433.25" x2="601.25" y1="133.2695" y2="133.2695"/><text fill="#000000" font-family="sans-serif" font-size="6.5" lengthAdjust="spacing" textLength="3.5" x="514.5" y="130.8921">c</text><polygon fill="#181818" points="267,145.5313,262,147.5313,267,149.5313,265,147.5313" style="stroke:#181818;stroke-width:0.5;"/><line style="stroke:#181818;stroke-width:0.5;stroke-dasharray:2.0,2.0;" x1="264" x2="427.75" y1="147.5313" y2="147.5313"/><text fill="#000000" font-family="sans-serif" font-size="6.5" lengthAdjust="spacing" textLength="3.5" x="343.125" y="145.1538">c</text><line style="stroke:#A80036;stroke-width:1.0;" x1="423.75" x2="432.75" y1="150.0313" y2="159.0313"/><line style="stroke:#A80036;stroke-width:1.0;" x1="423.75" x2="432.75" y1="159.0313" y2="150.0313"/><polygon fill="#181818" points="125,166.793,120,168.793,125,170.793,123,168.793" style="stroke:#181818;stroke-width:0.5;"/><line style="stroke:#181818;stroke-width:0.5;stroke-dasharray:2.0,2.0;" x1="122" x2="258.5" y1="168.793" y2="168.793"/><text fill="#000000" font-family="sans-serif" font-size="6.5" lengthAdjust="spacing" textLength="3.5" x="187.5" y="166.4155">c</text><polygon fill="#181818" points="593.25,181.0547,598.25,183.0547,593.25,185.0547,595.25,183.0547" style="stroke:#181818;stroke-width:0.5;"/><line style="stroke:#181818;stroke-width:0.5;" x1="119.5" x2="596.25" y1="183.0547" y2="183.0547"/><text fill="#000000" font-family="sans-serif" font-size="6.5" lengthAdjust="spacing" textLength="32.5" x="343.125" y="180.6772">execute(m)</text><rect fill="#FFFFFF" height="18.9648" style="stroke:#000000;stroke-width:0.75;" width="105" x="549.25" y="187.0547"/><path d="M549.25,187.0547 L580.25,187.0547 L580.25,190.0547 L575.25,195.0547 L549.25,195.0547 L549.25,187.0547 " fill="#EEEEEE" style="stroke:#000000;stroke-width:1.0;"/><text fill="#000000" font-family="sans-serif" font-size="6.5" font-weight="bold" lengthAdjust="spacing" textLength="8.5" x="555.75" y="193.939">ref</text><text fill="#000000" font-family="sans-serif" font-size="6" lengthAdjust="spacing" textLength="92.5" x="555.5" y="202.4863">Add tag(s) to person in person list</text><rect fill="#FFFFFF" height="18.9648" style="stroke:#000000;stroke-width:0.75;" width="105" x="549.25" y="208.5195"/><path d="M549.25,208.5195 L580.25,208.5195 L580.25,211.5195 L575.25,216.5195 L549.25,216.5195 L549.25,208.5195 " fill="#EEEEEE" style="stroke:#000000;stroke-width:1.0;"/><text fill="#000000" font-family="sans-serif" font-size="6.5" font-weight="bold" lengthAdjust="spacing" textLength="8.5" x="555.75" y="215.4038">ref</text><text fill="#000000" font-family="sans-serif" font-size="6" lengthAdjust="spacing" textLength="99" x="552.25" y="223.9512">Create successful CommandResult</text><polygon fill="#181818" points="125,238.2461,120,240.2461,125,242.2461,123,240.2461" style="stroke:#181818;stroke-width:0.5;"/><line style="stroke:#181818;stroke-width:0.5;stroke-dasharray:2.0,2.0;" x1="122" x2="601.25" y1="240.2461" y2="240.2461"/><text fill="#000000" font-family="sans-serif" font-size="6.5" lengthAdjust="spacing" textLength="2" x="359.625" y="237.8687">r</text><line style="stroke:#A80036;stroke-width:1.0;" x1="597.25" x2="606.25" y1="242.7461" y2="251.7461"/><line style="stroke:#A80036;stroke-width:1.0;" x1="597.25" x2="606.25" y1="251.7461" y2="242.7461"/><polygon fill="#181818" points="5.5,252.2461,0.5,254.2461,5.5,256.2461,3.5,254.2461" style="stroke:#181818;stroke-width:0.5;"/><line style="stroke:#181818;stroke-width:0.5;stroke-dasharray:2.0,2.0;" x1="2.5" x2="116.5" y1="254.2461" y2="254.2461"/><!--SRC=[lLHDRzim3BthLt2-p0MM3hq6mu3Mm3w032cotegXO2J64M9BdYItwR-Vx3X0R4jESjcD4iL7ykcH7wJYHIq8h7ilwBQgouBPdLGL6YpXtXZzzaqhzxlnGbMWL2TkItzhKfnMj27J60_8TxdHjHAPBhI1jwrqnDXQxs6XSybXiVp-Ctl9belbwkNfZdaO9xciK3b8vksJNwWm9vC0MZYzE0qTnDqBOSZQ1wrtZsXi5powdKPumloHZDKgqsM9IlIHmjuu8Wz1ni1wCEJFdY_6dcTV-mJCWVR4QqTfWYSWS0VkCqVdVy0aDmovaw_-r8jbh8VaaSVipA5gZAwcotACK1ZZXZfFc3Cspdme9qBnFEvB-vL4yh4uzYn411Dq8UfrRRJifacSoLYcEADJhGMB2REPIYLe_maSvdQwf22PHngZdVCpb5xzHHTWTkHz_26580NOB39m6YfjfPDUqMvB8CWwez-XHBFpg6igcaVUqGoXthHcbwG9MQEvdIhrUTic-nDHrI7NTP8Qxu1XuyFv2mnwG0N7JLAU-sz36z2l7YggfaOsgRrfoJqi2wcELY6jEukH7VHjQyvzBvkwWCwt8biNBgwv0JFd9lV_YA4dWzuEdb20t_PVPhF1w-0c_mS0]--></g></svg>
