<?xml version="1.0" encoding="us-ascii" standalone="no"?><svg xmlns="http://www.w3.org/2000/svg" xmlns:xlink="http://www.w3.org/1999/xlink" contentStyleType="text/css" height="346px" preserveAspectRatio="none" style="width:627px;height:346px;background:#FFFFFF;" version="1.1" viewBox="0 0 627 346" width="627px" zoomAndPan="magnify"><defs/><g><rect fill="#1D8900" height="210.0938" style="stroke:#181818;stroke-width:1.0;" width="10" x="138.5" y="111.1641"/><rect fill="#3333C4" height="167.5703" style="stroke:#181818;stroke-width:1.0;" width="10" x="318.5" y="139.6875"/><rect fill="#9D0012" height="14" style="stroke:#181818;stroke-width:1.0;" width="10" x="438.5" y="168.2109"/><rect fill="#A38300" height="82.5234" style="stroke:#181818;stroke-width:1.0;" width="10" x="535.5" y="210.7344"/><rect fill="#FFE374" height="25" style="stroke:#181818;stroke-width:1.0;" width="10" x="540.5" y="247.2578"/><line style="stroke:#181818;stroke-width:0.5;stroke-dasharray:5.0,5.0;" x1="22" x2="22" y1="80.6406" y2="339.2578"/><line style="stroke:#181818;stroke-width:0.5;stroke-dasharray:5.0,5.0;" x1="143.5" x2="143.5" y1="80.6406" y2="339.2578"/><line style="stroke:#181818;stroke-width:0.5;stroke-dasharray:5.0,5.0;" x1="323.5" x2="323.5" y1="80.6406" y2="339.2578"/><line style="stroke:#181818;stroke-width:0.5;stroke-dasharray:5.0,5.0;" x1="443.5" x2="443.5" y1="80.6406" y2="339.2578"/><line style="stroke:#181818;stroke-width:0.5;stroke-dasharray:5.0,5.0;" x1="540.5" x2="540.5" y1="80.6406" y2="339.2578"/><text fill="#000000" font-family="Arial" font-size="14" lengthAdjust="spacing" textLength="29" x="5" y="77.6738">User</text><ellipse cx="22.5" cy="13.5" fill="#000000" rx="8" ry="8" style="stroke:#000000;stroke-width:0.5;"/><path d="M22.5,21.5 L22.5,48.5 M9.5,29.5 L35.5,29.5 M22.5,48.5 L9.5,63.5 M22.5,48.5 L35.5,63.5 " fill="none" style="stroke:#000000;stroke-width:0.5;"/><rect fill="#1D8900" height="29.6406" rx="2.5" ry="2.5" style="stroke:#181818;stroke-width:0.5;" width="64" x="111.5" y="50"/><text fill="#FFFFFF" font-family="sans-serif" font-size="14" lengthAdjust="spacing" textLength="16" x="135.5" y="69.6738">:UI</text><rect fill="#3333C4" height="29.6406" rx="2.5" ry="2.5" style="stroke:#181818;stroke-width:0.5;" width="64" x="291.5" y="50"/><text fill="#FFFFFF" font-family="sans-serif" font-size="14" lengthAdjust="spacing" textLength="38" x="304.5" y="69.6738">:Logic</text><rect fill="#9D0012" height="29.6406" rx="2.5" ry="2.5" style="stroke:#181818;stroke-width:0.5;" width="64" x="411.5" y="50"/><text fill="#FFFFFF" font-family="sans-serif" font-size="14" lengthAdjust="spacing" textLength="42" x="422.5" y="69.6738">:Model</text><rect fill="#A38300" height="29.6406" rx="2.5" ry="2.5" style="stroke:#181818;stroke-width:0.5;" width="68" x="506.5" y="50"/><text fill="#FFFFFF" font-family="sans-serif" font-size="14" lengthAdjust="spacing" textLength="54" x="513.5" y="69.6738">:Storage</text><rect fill="#1D8900" height="210.0938" style="stroke:#181818;stroke-width:1.0;" width="10" x="138.5" y="111.1641"/><rect fill="#3333C4" height="167.5703" style="stroke:#181818;stroke-width:1.0;" width="10" x="318.5" y="139.6875"/><rect fill="#9D0012" height="14" style="stroke:#181818;stroke-width:1.0;" width="10" x="438.5" y="168.2109"/><rect fill="#A38300" height="82.5234" style="stroke:#181818;stroke-width:1.0;" width="10" x="535.5" y="210.7344"/><rect fill="#FFE374" height="25" style="stroke:#181818;stroke-width:1.0;" width="10" x="540.5" y="247.2578"/><polygon fill="#000000" points="126.5,107.1641,136.5,111.1641,126.5,115.1641,130.5,111.1641" style="stroke:#000000;stroke-width:1.0;"/><line style="stroke:#000000;stroke-width:1.0;" x1="22.5" x2="132.5" y1="111.1641" y2="111.1641"/><text fill="#000000" font-family="sans-serif" font-size="13" lengthAdjust="spacing" textLength="97" x="32" y="106.4092">"deletePerson 1"</text><polygon fill="#1D8900" points="306.5,135.6875,316.5,139.6875,306.5,143.6875,310.5,139.6875" style="stroke:#1D8900;stroke-width:1.0;"/><line style="stroke:#1D8900;stroke-width:1.0;" x1="148.5" x2="312.5" y1="139.6875" y2="139.6875"/><text fill="#000000" font-family="sans-serif" font-size="13" lengthAdjust="spacing" textLength="151" x="158" y="134.9326">execute("deletePerson 1")</text><polygon fill="#3333C4" points="426.5,164.2109,436.5,168.2109,426.5,172.2109,430.5,168.2109" style="stroke:#3333C4;stroke-width:1.0;"/><line style="stroke:#3333C4;stroke-width:1.0;" x1="328.5" x2="432.5" y1="168.2109" y2="168.2109"/><text fill="#000000" font-family="sans-serif" font-size="13" lengthAdjust="spacing" textLength="91" x="338" y="163.4561">deletePerson(p)</text><polygon fill="#9D0012" points="339.5,178.2109,329.5,182.2109,339.5,186.2109,335.5,182.2109" style="stroke:#9D0012;stroke-width:1.0;"/><line style="stroke:#9D0012;stroke-width:1.0;stroke-dasharray:2.0,2.0;" x1="333.5" x2="442.5" y1="182.2109" y2="182.2109"/><polygon fill="#3333C4" points="523.5,206.7344,533.5,210.7344,523.5,214.7344,527.5,210.7344" style="stroke:#3333C4;stroke-width:1.0;"/><line style="stroke:#3333C4;stroke-width:1.0;" x1="328.5" x2="529.5" y1="210.7344" y2="210.7344"/><text fill="#000000" font-family="sans-serif" font-size="13" lengthAdjust="spacing" textLength="188" x="338" y="205.9795">saveAddressBook(addressBook)</text><line style="stroke:#A38300;stroke-width:1.0;" x1="545.5" x2="592.5" y1="234.2578" y2="234.2578"/><line style="stroke:#A38300;stroke-width:1.0;" x1="592.5" x2="592.5" y1="234.2578" y2="247.2578"/><line style="stroke:#A38300;stroke-width:1.0;" x1="551.5" x2="592.5" y1="247.2578" y2="247.2578"/><polygon fill="#A38300" points="561.5,243.2578,551.5,247.2578,561.5,251.2578,557.5,247.2578" style="stroke:#A38300;stroke-width:1.0;"/><text fill="#000000" font-family="sans-serif" font-size="13" lengthAdjust="spacing" textLength="63" x="557.5" y="229.5029">Save to file</text><line style="stroke:#A38300;stroke-width:1.0;stroke-dasharray:2.0,2.0;" x1="550.5" x2="592.5" y1="271.2578" y2="271.2578"/><line style="stroke:#A38300;stroke-width:1.0;stroke-dasharray:2.0,2.0;" x1="592.5" x2="592.5" y1="271.2578" y2="284.2578"/><line style="stroke:#A38300;stroke-width:1.0;stroke-dasharray:2.0,2.0;" x1="545.5" x2="592.5" y1="284.2578" y2="284.2578"/><polygon fill="#A38300" points="555.5,280.2578,545.5,284.2578,555.5,288.2578,551.5,284.2578" style="stroke:#A38300;stroke-width:1.0;"/><polygon fill="#A38300" points="339.5,289.2578,329.5,293.2578,339.5,297.2578,335.5,293.2578" style="stroke:#A38300;stroke-width:1.0;"/><line style="stroke:#A38300;stroke-width:1.0;stroke-dasharray:2.0,2.0;" x1="333.5" x2="539.5" y1="293.2578" y2="293.2578"/><polygon fill="#3333C4" points="159.5,303.2578,149.5,307.2578,159.5,311.2578,155.5,307.2578" style="stroke:#3333C4;stroke-width:1.0;"/><line style="stroke:#3333C4;stroke-width:1.0;stroke-dasharray:2.0,2.0;" x1="153.5" x2="322.5" y1="307.2578" y2="307.2578"/><polygon fill="#1D8900" points="33.5,317.2578,23.5,321.2578,33.5,325.2578,29.5,321.2578" style="stroke:#1D8900;stroke-width:1.0;"/><line style="stroke:#1D8900;stroke-width:1.0;stroke-dasharray:2.0,2.0;" x1="27.5" x2="142.5" y1="321.2578" y2="321.2578"/><!--SRC=[XLB1Re904BtlLqmvqGDDl79eGgqr91YCo8aOiu6fsRYmP7UnxTzt0PL5iJqnl7tpvitBFB4gvqs1eFGFnvUwAJbHHrRLLD8I0Yd5ruUeTDA-GiqfgmW9SYqaf0ebK0LD-qsJnMO_ZwDuGzPKQfQpcbOQ73yDdOx480qd2P4uiBpZyBQ2A5w6yqdcIXJ8EsRPLh2AtnVH93Cn_kW1EwxgQqYsyIPOBivyqhdsii7txhKrwODZf57Z6gKI5SmSGdFDJbJZQ0TYVantUEtjpVk0tvWt6jrRcUT1vtvFqaDUPe56ir_J1rlAhIsb-nn83tcP1UwyiprIuBZrqU1BPZueUiAWA2GgzIR4qQL3RVbuaF45zhBHmsX0OWQ05l39EFuZkD_E1ic7clQI5-YljhjahatdR6x3QPZDxjlDENYZSsZFowOrx1S0]--></g></svg>
