<?xml version="1.0" encoding="us-ascii" standalone="no"?><svg xmlns="http://www.w3.org/2000/svg" xmlns:xlink="http://www.w3.org/1999/xlink" contentStyleType="text/css" height="548px" preserveAspectRatio="none" style="width:1082px;height:548px;background:#FFFFFF;" version="1.1" viewBox="0 0 1082 548" width="1082px" zoomAndPan="magnify"><defs/><g><rect fill="#C8C8FA" height="529.0156" style="stroke:#181818;stroke-width:0.5;" width="964" x="94" y="6"/><text fill="#FFFFFF" font-family="sans-serif" font-size="13" font-weight="bold" lengthAdjust="spacing" textLength="35" x="556.5" y="17.7686">Logic</text><rect fill="#FFFFFF" height="437.3281" style="stroke:#181818;stroke-width:1.0;" width="10" x="157" y="85.6875"/><rect fill="#FFFFFF" height="223.375" style="stroke:#181818;stroke-width:1.0;" width="10" x="369" y="114.2109"/><rect fill="#FFFFFF" height="16.1172" style="stroke:#181818;stroke-width:1.0;" width="10" x="676" y="152.7344"/><rect fill="#FFFFFF" height="97.6875" style="stroke:#181818;stroke-width:1.0;" width="10" x="676" y="197.375"/><rect fill="#FFFFFF" height="30.6406" style="stroke:#181818;stroke-width:1.0;" width="10" x="958.5" y="235.8984"/><rect fill="#FFFFFF" height="114.3828" style="stroke:#181818;stroke-width:1.0;" width="10" x="958.5" y="366.1094"/><line style="stroke:#181818;stroke-width:0.5;stroke-dasharray:5.0,5.0;" x1="162" x2="162" y1="55.1641" y2="541.0156"/><line style="stroke:#181818;stroke-width:0.5;stroke-dasharray:5.0,5.0;" x1="374" x2="374" y1="55.1641" y2="541.0156"/><line style="stroke:#181818;stroke-width:0.5;stroke-dasharray:5.0,5.0;" x1="681" x2="681" y1="152.5313" y2="541.0156"/><line style="stroke:#181818;stroke-width:0.5;stroke-dasharray:5.0,5.0;" x1="963" x2="963" y1="235.6953" y2="541.0156"/><rect fill="#3333C4" height="29.6406" rx="2.5" ry="2.5" style="stroke:#181818;stroke-width:0.5;" width="108" x="108" y="24.5234"/><text fill="#FFFFFF" font-family="sans-serif" font-size="14" lengthAdjust="spacing" textLength="94" x="115" y="44.1973">:LogicManager</text><rect fill="#3333C4" height="29.6406" rx="2.5" ry="2.5" style="stroke:#181818;stroke-width:0.5;" width="144" x="302" y="24.5234"/><text fill="#FFFFFF" font-family="sans-serif" font-size="14" lengthAdjust="spacing" textLength="130" x="309" y="44.1973">:AddressBookParser</text><rect fill="#FFFFFF" height="437.3281" style="stroke:#181818;stroke-width:1.0;" width="10" x="157" y="85.6875"/><rect fill="#FFFFFF" height="223.375" style="stroke:#181818;stroke-width:1.0;" width="10" x="369" y="114.2109"/><rect fill="#FFFFFF" height="16.1172" style="stroke:#181818;stroke-width:1.0;" width="10" x="676" y="152.7344"/><rect fill="#FFFFFF" height="97.6875" style="stroke:#181818;stroke-width:1.0;" width="10" x="676" y="197.375"/><rect fill="#FFFFFF" height="30.6406" style="stroke:#181818;stroke-width:1.0;" width="10" x="958.5" y="235.8984"/><rect fill="#FFFFFF" height="114.3828" style="stroke:#181818;stroke-width:1.0;" width="10" x="958.5" y="366.1094"/><polygon fill="#181818" points="145,81.6875,155,85.6875,145,89.6875,149,85.6875" style="stroke:#181818;stroke-width:1.0;"/><line style="stroke:#181818;stroke-width:1.0;" x1="0" x2="151" y1="85.6875" y2="85.6875"/><text fill="#000000" font-family="sans-serif" font-size="13" lengthAdjust="spacing" textLength="138" x="9.5" y="80.9326">execute("deleteTask 1")</text><polygon fill="#181818" points="357,110.2109,367,114.2109,357,118.2109,361,114.2109" style="stroke:#181818;stroke-width:1.0;"/><line style="stroke:#181818;stroke-width:1.0;" x1="167" x2="363" y1="114.2109" y2="114.2109"/><text fill="#000000" font-family="sans-serif" font-size="13" lengthAdjust="spacing" textLength="183" x="176.5" y="109.4561">parseCommand("deleteTask 1")</text><polygon fill="#181818" points="571,138.7344,581,142.7344,571,146.7344,575,142.7344" style="stroke:#181818;stroke-width:1.0;"/><line style="stroke:#181818;stroke-width:1.0;" x1="379" x2="577" y1="142.7344" y2="142.7344"/><text fill="#000000" font-family="sans-serif" font-size="13" lengthAdjust="spacing" textLength="170" x="396" y="137.9795">DeleteTaskCommandParser()</text><rect fill="#3333C4" height="29.6406" rx="2.5" ry="2.5" style="stroke:#181818;stroke-width:0.5;" width="196" x="583" y="122.2109"/><text fill="#FFFFFF" font-family="sans-serif" font-size="14" lengthAdjust="spacing" textLength="182" x="590" y="141.8848">:DeleteTaskCommandParser</text><polygon fill="#181818" points="390,164.8516,380,168.8516,390,172.8516,386,168.8516" style="stroke:#181818;stroke-width:1.0;"/><line style="stroke:#181818;stroke-width:1.0;stroke-dasharray:2.0,2.0;" x1="384" x2="680" y1="168.8516" y2="168.8516"/><polygon fill="#181818" points="664,193.375,674,197.375,664,201.375,668,197.375" style="stroke:#181818;stroke-width:1.0;"/><line style="stroke:#181818;stroke-width:1.0;" x1="379" x2="670" y1="197.375" y2="197.375"/><text fill="#000000" font-family="sans-serif" font-size="13" lengthAdjust="spacing" textLength="57" x="499" y="192.6201">parse("1")</text><polygon fill="#181818" points="871,221.8984,881,225.8984,871,229.8984,875,225.8984" style="stroke:#181818;stroke-width:1.0;"/><line style="stroke:#181818;stroke-width:1.0;" x1="686" x2="877" y1="225.8984" y2="225.8984"/><text fill="#000000" font-family="sans-serif" font-size="13" lengthAdjust="spacing" textLength="163" x="703" y="221.1436">DeleteTaskCommand(index)</text><rect fill="#3333C4" height="29.6406" rx="2.5" ry="2.5" style="stroke:#181818;stroke-width:0.5;" width="161" x="883" y="205.375"/><text fill="#FFFFFF" font-family="sans-serif" font-size="14" lengthAdjust="spacing" textLength="147" x="890" y="225.0488">c:DeleteTaskCommand</text><polygon fill="#181818" points="697,262.5391,687,266.5391,697,270.5391,693,266.5391" style="stroke:#181818;stroke-width:1.0;"/><line style="stroke:#181818;stroke-width:1.0;stroke-dasharray:2.0,2.0;" x1="691" x2="962.5" y1="266.5391" y2="266.5391"/><text fill="#000000" font-family="sans-serif" font-size="13" lengthAdjust="spacing" textLength="7" x="821.25" y="261.7842">c</text><polygon fill="#181818" points="390,291.0625,380,295.0625,390,299.0625,386,295.0625" style="stroke:#181818;stroke-width:1.0;"/><line style="stroke:#181818;stroke-width:1.0;stroke-dasharray:2.0,2.0;" x1="384" x2="680" y1="295.0625" y2="295.0625"/><text fill="#000000" font-family="sans-serif" font-size="13" lengthAdjust="spacing" textLength="7" x="526.5" y="290.3076">c</text><line style="stroke:#A80036;stroke-width:2.0;" x1="672" x2="690" y1="300.0625" y2="318.0625"/><line style="stroke:#A80036;stroke-width:2.0;" x1="672" x2="690" y1="318.0625" y2="300.0625"/><polygon fill="#181818" points="178,333.5859,168,337.5859,178,341.5859,174,337.5859" style="stroke:#181818;stroke-width:1.0;"/><line style="stroke:#181818;stroke-width:1.0;stroke-dasharray:2.0,2.0;" x1="172" x2="373" y1="337.5859" y2="337.5859"/><text fill="#000000" font-family="sans-serif" font-size="13" lengthAdjust="spacing" textLength="7" x="267" y="332.8311">c</text><polygon fill="#181818" points="946.5,362.1094,956.5,366.1094,946.5,370.1094,950.5,366.1094" style="stroke:#181818;stroke-width:1.0;"/><line style="stroke:#181818;stroke-width:1.0;" x1="167" x2="952.5" y1="366.1094" y2="366.1094"/><text fill="#000000" font-family="sans-serif" font-size="13" lengthAdjust="spacing" textLength="65" x="530.25" y="361.3545">execute(m)</text><rect fill="#FFFFFF" height="37.9297" style="stroke:#000000;stroke-width:1.5;" width="187" x="870" y="374.1094"/><path d="M870,374.1094 L932,374.1094 L932,380.1094 L922,390.1094 L870,390.1094 L870,374.1094 " fill="#EEEEEE" style="stroke:#000000;stroke-width:2.0;"/><text fill="#000000" font-family="sans-serif" font-size="13" font-weight="bold" lengthAdjust="spacing" textLength="17" x="883" y="387.8779">ref</text><text fill="#000000" font-family="sans-serif" font-size="12" lengthAdjust="spacing" textLength="120" x="903.5" y="404.9727">Delete task in task list</text><rect fill="#FFFFFF" height="37.9297" style="stroke:#000000;stroke-width:1.5;" width="206" x="870" y="417.0391"/><path d="M870,417.0391 L932,417.0391 L932,423.0391 L922,433.0391 L870,433.0391 L870,417.0391 " fill="#EEEEEE" style="stroke:#000000;stroke-width:2.0;"/><text fill="#000000" font-family="sans-serif" font-size="13" font-weight="bold" lengthAdjust="spacing" textLength="17" x="883" y="430.8076">ref</text><text fill="#000000" font-family="sans-serif" font-size="12" lengthAdjust="spacing" textLength="198" x="874" y="447.9023">Create successful CommandResult</text><polygon fill="#181818" points="178,476.4922,168,480.4922,178,484.4922,174,480.4922" style="stroke:#181818;stroke-width:1.0;"/><line style="stroke:#181818;stroke-width:1.0;stroke-dasharray:2.0,2.0;" x1="172" x2="962.5" y1="480.4922" y2="480.4922"/><text fill="#000000" font-family="sans-serif" font-size="13" lengthAdjust="spacing" textLength="4" x="563.25" y="475.7373">r</text><line style="stroke:#A80036;stroke-width:2.0;" x1="954.5" x2="972.5" y1="485.4922" y2="503.4922"/><line style="stroke:#A80036;stroke-width:2.0;" x1="954.5" x2="972.5" y1="503.4922" y2="485.4922"/><polygon fill="#181818" points="11,519.0156,1,523.0156,11,527.0156,7,523.0156" style="stroke:#181818;stroke-width:1.0;"/><line style="stroke:#181818;stroke-width:1.0;stroke-dasharray:2.0,2.0;" x1="5" x2="161" y1="523.0156" y2="523.0156"/><text fill="#000000" font-family="sans-serif" font-size="13" lengthAdjust="spacing" textLength="4" x="79" y="518.2607">r</text><!--SRC=[lLJBJiCm4BpxAvPSA8SYzLeX90ZY8HKL5Mu88TVUjbOSEzXEAN-FdGQKD75GBvpYUBopkxEF4w6OB3c2TLyIpuiobyHcGXNKq1okZD6Vjrgvvu128QbG3TZYHucAuG9NQCBXch9iRNIfUAgbDl2v4Gu9MUeTpFHQC9ZDxnxIztG-co_UNoR4qpZ1H46LWsHQFNcaYgxH940jD2-QfWTsLvmRjFPQw-o96biRTsu766vGeiCNQhDKvpbLlC4JmU9ih4lNJzIYGF_lTIBaTNpPJdmAk4DMEXmb_9S29iaPeSo9BNNOUaz8ozgpTPMOGX4ETHnnteub8SnWG2AgaAul7q1CmcaC6JLYY7aYCTPnNyg4uz-CHmPVQJXAMef5kMEwnTFeSTsds4WeZhkX47gagaIAPyO6vJfI-Z_vQebExmNdg826fGDEGw6jS48hS1i4ZjOP_GKvDPddNA8CZpmG1aUlgcFj8fWigJcFX_cwgLozHJfbx-cODkdER2lbdZaw7DA-Ml_CVJvSNOChq5jFqy5-sWLS66sXzbyfh1ksIlVDQal6VDYhKa8DBT2MqiKQwa22uQ7xZtgtAjrQaj4Y-mLyCHuFPTB4lW40]--></g></svg>
