<?xml version="1.0" encoding="us-ascii" standalone="no"?><svg xmlns="http://www.w3.org/2000/svg" xmlns:xlink="http://www.w3.org/1999/xlink" contentStyleType="text/css" height="218.53px" preserveAspectRatio="none" style="width:443px;height:218px;background:#FFFFFF;" version="1.1" viewBox="0 0 443 218" width="443.62px" zoomAndPan="magnify"><defs/><g><rect fill="#C8C8FA" height="210.9418" style="stroke:#181818;stroke-width:0.205;" width="395.24" x="38.54" y="2.46"/><text fill="#FFFFFF" font-family="sans-serif" font-size="5.33" font-weight="bold" lengthAdjust="spacing" textLength="14.35" x="228.165" y="7.2851">Logic</text><rect fill="#FFFFFF" height="173.3499" style="stroke:#181818;stroke-width:0.41;" width="4.1" x="64.37" y="35.1319"/><rect fill="#FFFFFF" height="91.5838" style="stroke:#181818;stroke-width:0.41;" width="4.1" x="151.29" y="46.8265"/><rect fill="#FFFFFF" height="6.608" style="stroke:#181818;stroke-width:0.41;" width="4.1" x="277.16" y="62.6211"/><rect fill="#FFFFFF" height="40.0519" style="stroke:#181818;stroke-width:0.41;" width="4.1" x="277.16" y="80.9238"/><rect fill="#FFFFFF" height="12.5627" style="stroke:#181818;stroke-width:0.41;" width="4.1" x="392.985" y="96.7184"/><rect fill="#FFFFFF" height="46.897" style="stroke:#181818;stroke-width:0.41;" width="4.1" x="392.985" y="150.1048"/><line style="stroke:#181818;stroke-width:0.205;stroke-dasharray:5.0,5.0;" x1="66.42" x2="66.42" y1="22.6173" y2="215.8618"/><line style="stroke:#181818;stroke-width:0.205;stroke-dasharray:5.0,5.0;" x1="153.34" x2="153.34" y1="22.6173" y2="215.8618"/><line style="stroke:#181818;stroke-width:0.205;stroke-dasharray:5.0,5.0;" x1="279.21" x2="279.21" y1="62.5378" y2="215.8618"/><line style="stroke:#181818;stroke-width:0.205;stroke-dasharray:5.0,5.0;" x1="394.83" x2="394.83" y1="96.6351" y2="215.8618"/><rect fill="#3333C4" height="12.1527" rx="1.025" ry="1.025" style="stroke:#181818;stroke-width:0.205;" width="44.28" x="44.28" y="10.0546"/><text fill="#FFFFFF" font-family="sans-serif" font-size="5.74" lengthAdjust="spacing" textLength="38.54" x="47.15" y="18.1209">:LogicManager</text><rect fill="#3333C4" height="12.1527" rx="1.025" ry="1.025" style="stroke:#181818;stroke-width:0.205;" width="59.04" x="123.82" y="10.0546"/><text fill="#FFFFFF" font-family="sans-serif" font-size="5.74" lengthAdjust="spacing" textLength="53.3" x="126.69" y="18.1209">:AddressBookParser</text><rect fill="#FFFFFF" height="173.3499" style="stroke:#181818;stroke-width:0.41;" width="4.1" x="64.37" y="35.1319"/><rect fill="#FFFFFF" height="91.5838" style="stroke:#181818;stroke-width:0.41;" width="4.1" x="151.29" y="46.8265"/><rect fill="#FFFFFF" height="6.608" style="stroke:#181818;stroke-width:0.41;" width="4.1" x="277.16" y="62.6211"/><rect fill="#FFFFFF" height="40.0519" style="stroke:#181818;stroke-width:0.41;" width="4.1" x="277.16" y="80.9238"/><rect fill="#FFFFFF" height="12.5627" style="stroke:#181818;stroke-width:0.41;" width="4.1" x="392.985" y="96.7184"/><rect fill="#FFFFFF" height="46.897" style="stroke:#181818;stroke-width:0.41;" width="4.1" x="392.985" y="150.1048"/><polygon fill="#181818" points="59.45,33.4919,63.55,35.1319,59.45,36.7719,61.09,35.1319" style="stroke:#181818;stroke-width:0.41;"/><line style="stroke:#181818;stroke-width:0.41;" x1="0" x2="61.91" y1="35.1319" y2="35.1319"/><text fill="#000000" font-family="sans-serif" font-size="5.33" lengthAdjust="spacing" textLength="56.58" x="3.895" y="33.1824">execute("deleteTask 1")</text><polygon fill="#181818" points="146.37,45.1865,150.47,46.8265,146.37,48.4665,148.01,46.8265" style="stroke:#181818;stroke-width:0.41;"/><line style="stroke:#181818;stroke-width:0.41;" x1="68.47" x2="148.83" y1="46.8265" y2="46.8265"/><text fill="#000000" font-family="sans-serif" font-size="5.33" lengthAdjust="spacing" textLength="75.03" x="72.365" y="44.877">parseCommand("deleteTask 1")</text><polygon fill="#181818" points="234.11,56.8811,238.21,58.5211,234.11,60.1611,235.75,58.5211" style="stroke:#181818;stroke-width:0.41;"/><line style="stroke:#181818;stroke-width:0.41;" x1="155.39" x2="236.57" y1="58.5211" y2="58.5211"/><text fill="#000000" font-family="sans-serif" font-size="5.33" lengthAdjust="spacing" textLength="69.7" x="162.36" y="56.5716">DeleteTaskCommandParser()</text><rect fill="#3333C4" height="12.1527" rx="1.025" ry="1.025" style="stroke:#181818;stroke-width:0.205;" width="80.36" x="239.03" y="50.1065"/><text fill="#FFFFFF" font-family="sans-serif" font-size="5.74" lengthAdjust="spacing" textLength="74.62" x="241.9" y="58.1728">:DeleteTaskCommandParser</text><polygon fill="#181818" points="159.9,67.5891,155.8,69.2291,159.9,70.8691,158.26,69.2291" style="stroke:#181818;stroke-width:0.41;"/><line style="stroke:#181818;stroke-width:0.41;stroke-dasharray:2.0,2.0;" x1="157.44" x2="278.8" y1="69.2291" y2="69.2291"/><polygon fill="#181818" points="272.24,79.2838,276.34,80.9238,272.24,82.5638,273.88,80.9238" style="stroke:#181818;stroke-width:0.41;"/><line style="stroke:#181818;stroke-width:0.41;" x1="155.39" x2="274.7" y1="80.9238" y2="80.9238"/><text fill="#000000" font-family="sans-serif" font-size="5.33" lengthAdjust="spacing" textLength="23.37" x="204.59" y="78.9742">parse("1")</text><polygon fill="#181818" points="357.11,90.9784,361.21,92.6184,357.11,94.2584,358.75,92.6184" style="stroke:#181818;stroke-width:0.41;"/><line style="stroke:#181818;stroke-width:0.41;" x1="281.26" x2="359.57" y1="92.6184" y2="92.6184"/><text fill="#000000" font-family="sans-serif" font-size="5.33" lengthAdjust="spacing" textLength="66.83" x="288.23" y="90.6689">DeleteTaskCommand(index)</text><rect fill="#3333C4" height="12.1527" rx="1.025" ry="1.025" style="stroke:#181818;stroke-width:0.205;" width="66.01" x="362.03" y="84.2038"/><text fill="#FFFFFF" font-family="sans-serif" font-size="5.74" lengthAdjust="spacing" textLength="60.27" x="364.9" y="92.27">c:DeleteTaskCommand</text><polygon fill="#181818" points="285.77,107.641,281.67,109.281,285.77,110.921,284.13,109.281" style="stroke:#181818;stroke-width:0.41;"/><line style="stroke:#181818;stroke-width:0.41;stroke-dasharray:2.0,2.0;" x1="283.31" x2="394.625" y1="109.281" y2="109.281"/><text fill="#000000" font-family="sans-serif" font-size="5.33" lengthAdjust="spacing" textLength="2.87" x="336.7125" y="107.3315">c</text><polygon fill="#181818" points="159.9,119.3356,155.8,120.9756,159.9,122.6156,158.26,120.9756" style="stroke:#181818;stroke-width:0.41;"/><line style="stroke:#181818;stroke-width:0.41;stroke-dasharray:2.0,2.0;" x1="157.44" x2="278.8" y1="120.9756" y2="120.9756"/><text fill="#000000" font-family="sans-serif" font-size="5.33" lengthAdjust="spacing" textLength="2.87" x="215.865" y="119.0261">c</text><line style="stroke:#A80036;stroke-width:0.82;" x1="275.52" x2="282.9" y1="123.0256" y2="130.4056"/><line style="stroke:#A80036;stroke-width:0.82;" x1="275.52" x2="282.9" y1="130.4056" y2="123.0256"/><polygon fill="#181818" points="72.98,136.7702,68.88,138.4102,72.98,140.0502,71.34,138.4102" style="stroke:#181818;stroke-width:0.41;"/><line style="stroke:#181818;stroke-width:0.41;stroke-dasharray:2.0,2.0;" x1="70.52" x2="152.93" y1="138.4102" y2="138.4102"/><text fill="#000000" font-family="sans-serif" font-size="5.33" lengthAdjust="spacing" textLength="2.87" x="109.47" y="136.4607">c</text><polygon fill="#181818" points="388.065,148.4648,392.165,150.1048,388.065,151.7448,389.705,150.1048" style="stroke:#181818;stroke-width:0.41;"/><line style="stroke:#181818;stroke-width:0.41;" x1="68.47" x2="390.525" y1="150.1048" y2="150.1048"/><text fill="#000000" font-family="sans-serif" font-size="5.33" lengthAdjust="spacing" textLength="26.65" x="217.4025" y="148.1553">execute(m)</text><rect fill="#FFFFFF" height="15.5512" style="stroke:#000000;stroke-width:0.615;" width="76.67" x="356.7" y="153.3848"/><path d="M356.7,153.3848 L382.12,153.3848 L382.12,155.8448 L378.02,159.9448 L356.7,159.9448 L356.7,153.3848 " fill="#EEEEEE" style="stroke:#000000;stroke-width:0.82;"/><text fill="#000000" font-family="sans-serif" font-size="5.33" font-weight="bold" lengthAdjust="spacing" textLength="6.97" x="362.03" y="159.03">ref</text><text fill="#000000" font-family="sans-serif" font-size="4.92" lengthAdjust="spacing" textLength="49.2" x="370.435" y="166.0388">Delete task in task list</text><rect fill="#FFFFFF" height="15.5512" style="stroke:#000000;stroke-width:0.615;" width="84.46" x="356.7" y="170.986"/><path d="M356.7,170.986 L382.12,170.986 L382.12,173.446 L378.02,177.546 L356.7,177.546 L356.7,170.986 " fill="#EEEEEE" style="stroke:#000000;stroke-width:0.82;"/><text fill="#000000" font-family="sans-serif" font-size="5.33" font-weight="bold" lengthAdjust="spacing" textLength="6.97" x="362.03" y="176.6311">ref</text><text fill="#000000" font-family="sans-serif" font-size="4.92" lengthAdjust="spacing" textLength="81.18" x="358.34" y="183.64">Create successful CommandResult</text><polygon fill="#181818" points="72.98,195.3618,68.88,197.0018,72.98,198.6418,71.34,197.0018" style="stroke:#181818;stroke-width:0.41;"/><line style="stroke:#181818;stroke-width:0.41;stroke-dasharray:2.0,2.0;" x1="70.52" x2="394.625" y1="197.0018" y2="197.0018"/><text fill="#000000" font-family="sans-serif" font-size="5.33" lengthAdjust="spacing" textLength="1.64" x="230.9325" y="195.0523">r</text><line style="stroke:#A80036;stroke-width:0.82;" x1="391.345" x2="398.725" y1="199.0518" y2="206.4318"/><line style="stroke:#A80036;stroke-width:0.82;" x1="391.345" x2="398.725" y1="206.4318" y2="199.0518"/><polygon fill="#181818" points="4.51,206.8418,0.41,208.4818,4.51,210.1218,2.87,208.4818" style="stroke:#181818;stroke-width:0.41;"/><line style="stroke:#181818;stroke-width:0.41;stroke-dasharray:2.0,2.0;" x1="2.05" x2="66.01" y1="208.4818" y2="208.4818"/><!--SRC=[lLJBJiCm4BpxAvPSA8SYzLeX90ZY8HKL5Mu88TVUjbOSEzXEAN-FdGQKD75GBvpYUBopkxEF4w6OB3c2TLyIpuiobyHcGXNKq1okZD6Vjrgvvu128QbG3TZYHucAuG9NQCBXch9iRNIfUAgbDl2v4Gu9MUeTpFHQC9ZDxnxIztG-co_UNoR4qpZ1H46LWsHQFNcaYgxH940jD2-QfWTsLvmRjFPQw-o96biRTsu766vGeiCNQhDKvpbLlC4JmU9ih4lNJzIYGF_lTIBaTNpPJdmAk4DMEXmb_9S29iaPeSo9BNNOUaz8ozgpTPMOGX4ETHnnteub8SnWG2AgaAul7q1CmcaC6JLYY7aYCTPnNyg4uz-CHmPVQJXAMef5kMEwnTFeSTsds4WeZhkX47gagaIAPyO6vJfI-Z_vQebExmNdg826fGDEGw6jS48hS1i4ZjOP_GKvDPddNA8CZpmG1aUlgcFj8fWigJcFX_cwgLozHJfbx-cODkdER2lbdZaw7DA-Ml_CVJvSNOChq5jFqy5-sWLS66sXzbyfh1ksIlVDQal6VDYhKa8DBT2MqiKQwa22uQ7xZtgtAjrQaj4Y-mLyCHuVlErTjDy0]--></g></svg>