<?xml version="1.0" encoding="us-ascii" standalone="no"?><svg xmlns="http://www.w3.org/2000/svg" xmlns:xlink="http://www.w3.org/1999/xlink" contentStyleType="text/css" height="701px" preserveAspectRatio="none" style="width:1819px;height:701px;background:#FFFFFF;" version="1.1" viewBox="0 0 1819 701" width="1819px" zoomAndPan="magnify"><defs/><g><rect fill="#C8C8FA" height="682.4141" style="stroke:#181818;stroke-width:0.5;" width="1289.5" x="94" y="6"/><text fill="#FFFFFF" font-family="sans-serif" font-size="13" font-weight="bold" lengthAdjust="spacing" textLength="35" x="719.25" y="17.7686">Logic</text><rect fill="#F97181" height="682.4141" style="stroke:#181818;stroke-width:0.5;" width="428" x="1385.5" y="6"/><text fill="#FFFFFF" font-family="sans-serif" font-size="13" font-weight="bold" lengthAdjust="spacing" textLength="39" x="1578" y="17.7686">Model</text><rect fill="#FFFFFF" height="590.7266" style="stroke:#181818;stroke-width:1.0;" width="10" x="157" y="85.6875"/><rect fill="#FFFFFF" height="223.375" style="stroke:#181818;stroke-width:1.0;" width="10" x="369" y="114.2109"/><rect fill="#FFFFFF" height="16.1172" style="stroke:#181818;stroke-width:1.0;" width="10" x="676" y="152.7344"/><rect fill="#FFFFFF" height="97.6875" style="stroke:#181818;stroke-width:1.0;" width="10" x="676" y="197.375"/><rect fill="#FFFFFF" height="30.6406" style="stroke:#181818;stroke-width:1.0;" width="10" x="958.5" y="235.8984"/><rect fill="#FFFFFF" height="282.3047" style="stroke:#181818;stroke-width:1.0;" width="10" x="958.5" y="366.1094"/><rect fill="#FFFFFF" height="30.6406" style="stroke:#181818;stroke-width:1.0;" width="10" x="1301" y="589.25"/><rect fill="#FFFFFF" height="28.5234" style="stroke:#181818;stroke-width:1.0;" width="10" x="1456" y="394.6328"/><rect fill="#FFFFFF" height="99.0469" style="stroke:#181818;stroke-width:1.0;" width="10" x="1456" y="451.6797"/><rect fill="#FFFFFF" height="56.5234" style="stroke:#181818;stroke-width:1.0;" width="10" x="1598.5" y="480.2031"/><rect fill="#FFFFFF" height="14" style="stroke:#181818;stroke-width:1.0;" width="10" x="1737" y="508.7266"/><line style="stroke:#181818;stroke-width:0.5;stroke-dasharray:5.0,5.0;" x1="162" x2="162" y1="55.1641" y2="694.4141"/><line style="stroke:#181818;stroke-width:0.5;stroke-dasharray:5.0,5.0;" x1="374" x2="374" y1="55.1641" y2="694.4141"/><line style="stroke:#181818;stroke-width:0.5;stroke-dasharray:5.0,5.0;" x1="681" x2="681" y1="152.5313" y2="694.4141"/><line style="stroke:#181818;stroke-width:0.5;stroke-dasharray:5.0,5.0;" x1="963" x2="963" y1="235.6953" y2="694.4141"/><line style="stroke:#181818;stroke-width:0.5;stroke-dasharray:5.0,5.0;" x1="1305.5" x2="1305.5" y1="589.0469" y2="694.4141"/><line style="stroke:#181818;stroke-width:0.5;stroke-dasharray:5.0,5.0;" x1="1460.5" x2="1460.5" y1="55.1641" y2="694.4141"/><line style="stroke:#181818;stroke-width:0.5;stroke-dasharray:5.0,5.0;" x1="1603.5" x2="1603.5" y1="55.1641" y2="694.4141"/><line style="stroke:#181818;stroke-width:0.5;stroke-dasharray:5.0,5.0;" x1="1741.5" x2="1741.5" y1="55.1641" y2="694.4141"/><rect fill="#3333C4" height="29.6406" rx="2.5" ry="2.5" style="stroke:#181818;stroke-width:0.5;" width="108" x="108" y="24.5234"/><text fill="#FFFFFF" font-family="sans-serif" font-size="14" lengthAdjust="spacing" textLength="94" x="115" y="44.1973">:LogicManager</text><rect fill="#3333C4" height="29.6406" rx="2.5" ry="2.5" style="stroke:#181818;stroke-width:0.5;" width="144" x="302" y="24.5234"/><text fill="#FFFFFF" font-family="sans-serif" font-size="14" lengthAdjust="spacing" textLength="130" x="309" y="44.1973">:AddressBookParser</text><rect fill="#9D0012" height="29.6406" rx="2.5" ry="2.5" style="stroke:#181818;stroke-width:0.5;" width="123" x="1399.5" y="24.5234"/><text fill="#FFFFFF" font-family="sans-serif" font-size="14" lengthAdjust="spacing" textLength="109" x="1406.5" y="44.1973">m:ModelManager</text><rect fill="#9D0012" height="29.6406" rx="2.5" ry="2.5" style="stroke:#181818;stroke-width:0.5;" width="102" x="1552.5" y="24.5234"/><text fill="#FFFFFF" font-family="sans-serif" font-size="14" lengthAdjust="spacing" textLength="88" x="1559.5" y="44.1973">:AddressBook</text><rect fill="#9D0012" height="29.6406" rx="2.5" ry="2.5" style="stroke:#181818;stroke-width:0.5;" width="115" x="1684.5" y="24.5234"/><text fill="#FFFFFF" font-family="sans-serif" font-size="14" lengthAdjust="spacing" textLength="101" x="1691.5" y="44.1973">:UniqueTaskList</text><rect fill="#FFFFFF" height="590.7266" style="stroke:#181818;stroke-width:1.0;" width="10" x="157" y="85.6875"/><rect fill="#FFFFFF" height="223.375" style="stroke:#181818;stroke-width:1.0;" width="10" x="369" y="114.2109"/><rect fill="#FFFFFF" height="16.1172" style="stroke:#181818;stroke-width:1.0;" width="10" x="676" y="152.7344"/><rect fill="#FFFFFF" height="97.6875" style="stroke:#181818;stroke-width:1.0;" width="10" x="676" y="197.375"/><rect fill="#FFFFFF" height="30.6406" style="stroke:#181818;stroke-width:1.0;" width="10" x="958.5" y="235.8984"/><rect fill="#FFFFFF" height="282.3047" style="stroke:#181818;stroke-width:1.0;" width="10" x="958.5" y="366.1094"/><rect fill="#FFFFFF" height="30.6406" style="stroke:#181818;stroke-width:1.0;" width="10" x="1301" y="589.25"/><rect fill="#FFFFFF" height="28.5234" style="stroke:#181818;stroke-width:1.0;" width="10" x="1456" y="394.6328"/><rect fill="#FFFFFF" height="99.0469" style="stroke:#181818;stroke-width:1.0;" width="10" x="1456" y="451.6797"/><rect fill="#FFFFFF" height="56.5234" style="stroke:#181818;stroke-width:1.0;" width="10" x="1598.5" y="480.2031"/><rect fill="#FFFFFF" height="14" style="stroke:#181818;stroke-width:1.0;" width="10" x="1737" y="508.7266"/><polygon fill="#181818" points="145,81.6875,155,85.6875,145,89.6875,149,85.6875" style="stroke:#181818;stroke-width:1.0;"/><line style="stroke:#181818;stroke-width:1.0;" x1="0" x2="151" y1="85.6875" y2="85.6875"/><text fill="#000000" font-family="sans-serif" font-size="13" lengthAdjust="spacing" textLength="138" x="9.5" y="80.9326">execute("deleteTask 1")</text><polygon fill="#181818" points="357,110.2109,367,114.2109,357,118.2109,361,114.2109" style="stroke:#181818;stroke-width:1.0;"/><line style="stroke:#181818;stroke-width:1.0;" x1="167" x2="363" y1="114.2109" y2="114.2109"/><text fill="#000000" font-family="sans-serif" font-size="13" lengthAdjust="spacing" textLength="183" x="176.5" y="109.4561">parseCommand("deleteTask 1")</text><polygon fill="#181818" points="571,138.7344,581,142.7344,571,146.7344,575,142.7344" style="stroke:#181818;stroke-width:1.0;"/><line style="stroke:#181818;stroke-width:1.0;" x1="379" x2="577" y1="142.7344" y2="142.7344"/><text fill="#000000" font-family="sans-serif" font-size="13" lengthAdjust="spacing" textLength="170" x="396" y="137.9795">DeleteTaskCommandParser()</text><rect fill="#3333C4" height="29.6406" rx="2.5" ry="2.5" style="stroke:#181818;stroke-width:0.5;" width="196" x="583" y="122.2109"/><text fill="#FFFFFF" font-family="sans-serif" font-size="14" lengthAdjust="spacing" textLength="182" x="590" y="141.8848">:DeleteTaskCommandParser</text><polygon fill="#181818" points="390,164.8516,380,168.8516,390,172.8516,386,168.8516" style="stroke:#181818;stroke-width:1.0;"/><line style="stroke:#181818;stroke-width:1.0;stroke-dasharray:2.0,2.0;" x1="384" x2="680" y1="168.8516" y2="168.8516"/><polygon fill="#181818" points="664,193.375,674,197.375,664,201.375,668,197.375" style="stroke:#181818;stroke-width:1.0;"/><line style="stroke:#181818;stroke-width:1.0;" x1="379" x2="670" y1="197.375" y2="197.375"/><text fill="#000000" font-family="sans-serif" font-size="13" lengthAdjust="spacing" textLength="57" x="499" y="192.6201">parse("1")</text><polygon fill="#181818" points="871,221.8984,881,225.8984,871,229.8984,875,225.8984" style="stroke:#181818;stroke-width:1.0;"/><line style="stroke:#181818;stroke-width:1.0;" x1="686" x2="877" y1="225.8984" y2="225.8984"/><text fill="#000000" font-family="sans-serif" font-size="13" lengthAdjust="spacing" textLength="163" x="703" y="221.1436">DeleteTaskCommand(index)</text><rect fill="#3333C4" height="29.6406" rx="2.5" ry="2.5" style="stroke:#181818;stroke-width:0.5;" width="161" x="883" y="205.375"/><text fill="#FFFFFF" font-family="sans-serif" font-size="14" lengthAdjust="spacing" textLength="147" x="890" y="225.0488">c:DeleteTaskCommand</text><polygon fill="#181818" points="697,262.5391,687,266.5391,697,270.5391,693,266.5391" style="stroke:#181818;stroke-width:1.0;"/><line style="stroke:#181818;stroke-width:1.0;stroke-dasharray:2.0,2.0;" x1="691" x2="962.5" y1="266.5391" y2="266.5391"/><text fill="#000000" font-family="sans-serif" font-size="13" lengthAdjust="spacing" textLength="7" x="821.25" y="261.7842">c</text><polygon fill="#181818" points="390,291.0625,380,295.0625,390,299.0625,386,295.0625" style="stroke:#181818;stroke-width:1.0;"/><line style="stroke:#181818;stroke-width:1.0;stroke-dasharray:2.0,2.0;" x1="384" x2="680" y1="295.0625" y2="295.0625"/><text fill="#000000" font-family="sans-serif" font-size="13" lengthAdjust="spacing" textLength="7" x="526.5" y="290.3076">c</text><line style="stroke:#A80036;stroke-width:2.0;" x1="672" x2="690" y1="300.0625" y2="318.0625"/><line style="stroke:#A80036;stroke-width:2.0;" x1="672" x2="690" y1="318.0625" y2="300.0625"/><polygon fill="#181818" points="178,333.5859,168,337.5859,178,341.5859,174,337.5859" style="stroke:#181818;stroke-width:1.0;"/><line style="stroke:#181818;stroke-width:1.0;stroke-dasharray:2.0,2.0;" x1="172" x2="373" y1="337.5859" y2="337.5859"/><text fill="#000000" font-family="sans-serif" font-size="13" lengthAdjust="spacing" textLength="7" x="267" y="332.8311">c</text><polygon fill="#181818" points="946.5,362.1094,956.5,366.1094,946.5,370.1094,950.5,366.1094" style="stroke:#181818;stroke-width:1.0;"/><line style="stroke:#181818;stroke-width:1.0;" x1="167" x2="952.5" y1="366.1094" y2="366.1094"/><text fill="#000000" font-family="sans-serif" font-size="13" lengthAdjust="spacing" textLength="65" x="530.25" y="361.3545">execute(m)</text><polygon fill="#181818" points="1444,390.6328,1454,394.6328,1444,398.6328,1448,394.6328" style="stroke:#181818;stroke-width:1.0;"/><line style="stroke:#181818;stroke-width:1.0;" x1="968.5" x2="1450" y1="394.6328" y2="394.6328"/><text fill="#000000" font-family="sans-serif" font-size="13" lengthAdjust="spacing" textLength="118" x="1153.25" y="389.8779">getFilteredTaskList()</text><polygon fill="#181818" points="979.5,419.1563,969.5,423.1563,979.5,427.1563,975.5,423.1563" style="stroke:#181818;stroke-width:1.0;"/><line style="stroke:#181818;stroke-width:1.0;stroke-dasharray:2.0,2.0;" x1="973.5" x2="1460" y1="423.1563" y2="423.1563"/><text fill="#000000" font-family="sans-serif" font-size="13" lengthAdjust="spacing" textLength="81" x="1174.25" y="418.4014">lastShownList</text><polygon fill="#181818" points="1444,447.6797,1454,451.6797,1444,455.6797,1448,451.6797" style="stroke:#181818;stroke-width:1.0;"/><line style="stroke:#181818;stroke-width:1.0;" x1="968.5" x2="1450" y1="451.6797" y2="451.6797"/><text fill="#000000" font-family="sans-serif" font-size="13" lengthAdjust="spacing" textLength="96" x="1164.25" y="446.9248">deleteTask(task)</text><polygon fill="#181818" points="1586.5,476.2031,1596.5,480.2031,1586.5,484.2031,1590.5,480.2031" style="stroke:#181818;stroke-width:1.0;"/><line style="stroke:#181818;stroke-width:1.0;" x1="1466" x2="1592.5" y1="480.2031" y2="480.2031"/><text fill="#000000" font-family="sans-serif" font-size="13" lengthAdjust="spacing" textLength="96" x="1484.25" y="475.4482">deleteTask(task)</text><polygon fill="#181818" points="1725,504.7266,1735,508.7266,1725,512.7266,1729,508.7266" style="stroke:#181818;stroke-width:1.0;"/><line style="stroke:#181818;stroke-width:1.0;" x1="1608.5" x2="1731" y1="508.7266" y2="508.7266"/><text fill="#000000" font-family="sans-serif" font-size="13" lengthAdjust="spacing" textLength="68" x="1638.75" y="503.9717">delete(task)</text><polygon fill="#181818" points="1619.5,518.7266,1609.5,522.7266,1619.5,526.7266,1615.5,522.7266" style="stroke:#181818;stroke-width:1.0;"/><line style="stroke:#181818;stroke-width:1.0;stroke-dasharray:2.0,2.0;" x1="1613.5" x2="1741" y1="522.7266" y2="522.7266"/><polygon fill="#181818" points="1477,532.7266,1467,536.7266,1477,540.7266,1473,536.7266" style="stroke:#181818;stroke-width:1.0;"/><line style="stroke:#181818;stroke-width:1.0;stroke-dasharray:2.0,2.0;" x1="1471" x2="1602.5" y1="536.7266" y2="536.7266"/><polygon fill="#181818" points="979.5,546.7266,969.5,550.7266,979.5,554.7266,975.5,550.7266" style="stroke:#181818;stroke-width:1.0;"/><line style="stroke:#181818;stroke-width:1.0;stroke-dasharray:2.0,2.0;" x1="973.5" x2="1460" y1="550.7266" y2="550.7266"/><polygon fill="#181818" points="1230.5,575.25,1240.5,579.25,1230.5,583.25,1234.5,579.25" style="stroke:#181818;stroke-width:1.0;"/><line style="stroke:#181818;stroke-width:1.0;" x1="968.5" x2="1236.5" y1="579.25" y2="579.25"/><text fill="#000000" font-family="sans-serif" font-size="13" lengthAdjust="spacing" textLength="240" x="985.5" y="574.4951">CommandResult(MESSAGE_SUCCESS)</text><rect fill="#3333C4" height="29.6406" rx="2.5" ry="2.5" style="stroke:#181818;stroke-width:0.5;" width="127" x="1242.5" y="558.7266"/><text fill="#FFFFFF" font-family="sans-serif" font-size="14" lengthAdjust="spacing" textLength="113" x="1249.5" y="578.4004">r:CommandResult</text><polygon fill="#181818" points="979.5,615.8906,969.5,619.8906,979.5,623.8906,975.5,619.8906" style="stroke:#181818;stroke-width:1.0;"/><line style="stroke:#181818;stroke-width:1.0;stroke-dasharray:2.0,2.0;" x1="973.5" x2="1305" y1="619.8906" y2="619.8906"/><text fill="#000000" font-family="sans-serif" font-size="13" lengthAdjust="spacing" textLength="4" x="1135.25" y="615.1357">r</text><polygon fill="#181818" points="178,644.4141,168,648.4141,178,652.4141,174,648.4141" style="stroke:#181818;stroke-width:1.0;"/><line style="stroke:#181818;stroke-width:1.0;stroke-dasharray:2.0,2.0;" x1="172" x2="962.5" y1="648.4141" y2="648.4141"/><text fill="#000000" font-family="sans-serif" font-size="13" lengthAdjust="spacing" textLength="4" x="563.25" y="643.6592">r</text><line style="stroke:#A80036;stroke-width:2.0;" x1="954.5" x2="972.5" y1="653.4141" y2="671.4141"/><line style="stroke:#A80036;stroke-width:2.0;" x1="954.5" x2="972.5" y1="671.4141" y2="653.4141"/><polygon fill="#181818" points="11,672.4141,1,676.4141,11,680.4141,7,676.4141" style="stroke:#181818;stroke-width:1.0;"/><line style="stroke:#181818;stroke-width:1.0;stroke-dasharray:2.0,2.0;" x1="5" x2="161" y1="676.4141" y2="676.4141"/><!--SRC=[lLLDRnen4BtxLxXSkZqGATTL5OaIabO2KONa54N8hATWiMjlRTEGVz_T1LAFTsS3brxGOizxC_Fcmv-KplAT1ExyMmvNvQx8cTigNGeh2ZworhpU6UqNzIqlSw4qOokpvrEpLXcVpkz_Z9VZ-NJ-i7oyPXN8gqoLGdi-I1kJcT1Y3NR0XUFXGGYDS2CfBJZtpPZjJs7T4TmwxM6uXHmyF0gt7PkY45e6FCGTpPQrwRg9Q0gR7aqUmEroty3H2O92HLL9VD1vPYJaV3Q_dKm9dOkqiGc53Wz2B2rqB74FwachtxicxwboXrpm4SA-9_CylC4Da7BOGxRpa0pakvJyUl25YSohFy83icSCeIksTaUalAm_ZjBIl2qaOvc5-eRe3jRsLGL0jL9AtIH139GdHh4Ekr9c4Zvcl33uHiDaW1GZkIdTw3GwN7SfbYWjOTyNGeTKZKXqPbclN1TA_o7VKQBFtvMKeBceTodtXfV6AQ-Cvdu3N8BprhpnGjXjnRc2l3QgBkh1CR-QpwEB6h8IzeeEytdJk7eXEkNWwP8sQSyiIhbZZk8XxQhrQUwBYwjxWrTRojVWxrJkmO8yhPzmo49hnX1sI0IN2-SN6_EgQwumMSnrJd3_ra_YgvypuqArwsK9x53rQeve9PzeOWfinbW4Yne_b2D68l-H5aJFd5CHkWB7pOFUqUwouASsnV-JsMIn6DrFbekdyRZw3CJ1r0pJKFs3aeqOklTLD67zE_r_h1EqID0RJEwGwdt_EXn6jftl-5y0]--></g></svg>