<?xml version="1.0" encoding="us-ascii" standalone="no"?><svg xmlns="http://www.w3.org/2000/svg" xmlns:xlink="http://www.w3.org/1999/xlink" contentStyleType="text/css" height="413px" preserveAspectRatio="none" style="width:939px;height:413px;background:#FFFFFF;" version="1.1" viewBox="0 0 939 413" width="939px" zoomAndPan="magnify"><defs/><g><rect fill="#C8C8FA" height="394.9492" style="stroke:#181818;stroke-width:0.5;" width="703.5" x="70" y="6"/><text fill="#FFFFFF" font-family="sans-serif" font-size="13" font-weight="bold" lengthAdjust="spacing" textLength="36" x="401.75" y="18.5684">Logic</text><rect fill="#F97181" height="394.9492" style="stroke:#181818;stroke-width:0.5;" width="92" x="841" y="6"/><text fill="#FFFFFF" font-family="sans-serif" font-size="13" font-weight="bold" lengthAdjust="spacing" textLength="41" x="864.5" y="18.5684">Model</text><rect fill="#FFFFFF" height="300.8398" style="stroke:#181818;stroke-width:1.0;" width="10" x="136" y="88.1094"/><rect fill="#FFFFFF" height="100.1094" style="stroke:#181818;stroke-width:1.0;" width="10" x="331" y="117.4199"/><rect fill="#FFFFFF" height="46.7988" style="stroke:#181818;stroke-width:1.0;" width="10" x="512" y="141.4199"/><rect fill="#FFFFFF" height="128.1094" style="stroke:#181818;stroke-width:1.0;" width="10" x="512" y="246.8398"/><rect fill="#FFFFFF" height="31.4883" style="stroke:#181818;stroke-width:1.0;" width="10" x="686" y="314.1504"/><rect fill="#FFFFFF" height="14" style="stroke:#181818;stroke-width:1.0;" width="10" x="882" y="276.1504"/><line style="stroke:#181818;stroke-width:0.5;stroke-dasharray:5.0,5.0;" x1="141" x2="141" y1="56.7988" y2="406.9492"/><line style="stroke:#181818;stroke-width:0.5;stroke-dasharray:5.0,5.0;" x1="335.5" x2="335.5" y1="56.7988" y2="406.9492"/><line style="stroke:#181818;stroke-width:0.5;stroke-dasharray:5.0,5.0;" x1="516.5" x2="516.5" y1="156.1641" y2="406.9492"/><line style="stroke:#181818;stroke-width:0.5;stroke-dasharray:5.0,5.0;" x1="690.5" x2="690.5" y1="328.8945" y2="406.9492"/><line style="stroke:#181818;stroke-width:0.5;stroke-dasharray:5.0,5.0;" x1="887" x2="887" y1="56.7988" y2="406.9492"/><rect fill="#3333C4" height="30.4883" rx="2.5" ry="2.5" style="stroke:#181818;stroke-width:0.5;" width="114" x="84" y="25.3105"/><text fill="#FFFFFF" font-family="sans-serif" font-size="14" lengthAdjust="spacing" textLength="100" x="91" y="45.8457">:LogicManager</text><rect fill="#3333C4" height="30.4883" rx="2.5" ry="2.5" style="stroke:#181818;stroke-width:0.5;" width="151" x="260.5" y="25.3105"/><text fill="#FFFFFF" font-family="sans-serif" font-size="14" lengthAdjust="spacing" textLength="137" x="267.5" y="45.8457">:AddressBookParser</text><rect fill="#9D0012" height="30.4883" rx="2.5" ry="2.5" style="stroke:#181818;stroke-width:0.5;" width="64" x="855" y="25.3105"/><text fill="#FFFFFF" font-family="sans-serif" font-size="14" lengthAdjust="spacing" textLength="46" x="864" y="45.8457">:Model</text><rect fill="#FFFFFF" height="300.8398" style="stroke:#181818;stroke-width:1.0;" width="10" x="136" y="88.1094"/><rect fill="#FFFFFF" height="100.1094" style="stroke:#181818;stroke-width:1.0;" width="10" x="331" y="117.4199"/><rect fill="#FFFFFF" height="46.7988" style="stroke:#181818;stroke-width:1.0;" width="10" x="512" y="141.4199"/><rect fill="#FFFFFF" height="128.1094" style="stroke:#181818;stroke-width:1.0;" width="10" x="512" y="246.8398"/><rect fill="#FFFFFF" height="31.4883" style="stroke:#181818;stroke-width:1.0;" width="10" x="686" y="314.1504"/><rect fill="#FFFFFF" height="14" style="stroke:#181818;stroke-width:1.0;" width="10" x="882" y="276.1504"/><polygon fill="#181818" points="124,84.1094,134,88.1094,124,92.1094,128,88.1094" style="stroke:#181818;stroke-width:1.0;"/><line style="stroke:#181818;stroke-width:1.0;" x1="0" x2="130" y1="88.1094" y2="88.1094"/><text fill="#000000" font-family="sans-serif" font-size="13" lengthAdjust="spacing" textLength="117" x="9.5" y="83.3672">execute("listTask")</text><polygon fill="#181818" points="319,113.4199,329,117.4199,319,121.4199,323,117.4199" style="stroke:#181818;stroke-width:1.0;"/><line style="stroke:#181818;stroke-width:1.0;" x1="146" x2="325" y1="117.4199" y2="117.4199"/><text fill="#000000" font-family="sans-serif" font-size="13" lengthAdjust="spacing" textLength="166" x="155.5" y="112.6777">parseCommand("listTask")</text><polygon fill="#181818" points="429.5,127.4199,439.5,131.4199,429.5,135.4199,433.5,131.4199" style="stroke:#181818;stroke-width:1.0;"/><line style="stroke:#181818;stroke-width:1.0;" x1="341" x2="435.5" y1="131.4199" y2="131.4199"/><rect fill="#3333C4" height="30.4883" rx="2.5" ry="2.5" style="stroke:#181818;stroke-width:0.5;" width="151" x="441.5" y="125.4199"/><text fill="#FFFFFF" font-family="sans-serif" font-size="14" lengthAdjust="spacing" textLength="137" x="448.5" y="145.9551">c:ListTaskCommand</text><polygon fill="#181818" points="352,184.2188,342,188.2188,352,192.2188,348,188.2188" style="stroke:#181818;stroke-width:1.0;"/><line style="stroke:#181818;stroke-width:1.0;stroke-dasharray:2.0,2.0;" x1="346" x2="516" y1="188.2188" y2="188.2188"/><text fill="#000000" font-family="sans-serif" font-size="13" lengthAdjust="spacing" textLength="7" x="425.5" y="183.4766">c</text><polygon fill="#181818" points="157,213.5293,147,217.5293,157,221.5293,153,217.5293" style="stroke:#181818;stroke-width:1.0;"/><line style="stroke:#181818;stroke-width:1.0;stroke-dasharray:2.0,2.0;" x1="151" x2="335" y1="217.5293" y2="217.5293"/><text fill="#000000" font-family="sans-serif" font-size="13" lengthAdjust="spacing" textLength="7" x="237.5" y="212.7871">c</text><polygon fill="#181818" points="500,242.8398,510,246.8398,500,250.8398,504,246.8398" style="stroke:#181818;stroke-width:1.0;"/><line style="stroke:#181818;stroke-width:1.0;" x1="146" x2="506" y1="246.8398" y2="246.8398"/><text fill="#000000" font-family="sans-serif" font-size="13" lengthAdjust="spacing" textLength="57" x="300.5" y="242.0977">execute()</text><polygon fill="#181818" points="870,272.1504,880,276.1504,870,280.1504,874,276.1504" style="stroke:#181818;stroke-width:1.0;"/><line style="stroke:#181818;stroke-width:1.0;" x1="522" x2="876" y1="276.1504" y2="276.1504"/><text fill="#000000" font-family="sans-serif" font-size="13" lengthAdjust="spacing" textLength="341" x="531.5" y="271.4082">updateFilteredTaskList(PREDICATE_SHOW_ALL_TASKS)</text><polygon fill="#181818" points="533,286.1504,523,290.1504,533,294.1504,529,290.1504" style="stroke:#181818;stroke-width:1.0;"/><line style="stroke:#181818;stroke-width:1.0;stroke-dasharray:2.0,2.0;" x1="527" x2="886" y1="290.1504" y2="290.1504"/><polygon fill="#181818" points="610.5,300.1504,620.5,304.1504,610.5,308.1504,614.5,304.1504" style="stroke:#181818;stroke-width:1.0;"/><line style="stroke:#181818;stroke-width:1.0;" x1="522" x2="616.5" y1="304.1504" y2="304.1504"/><rect fill="#3333C4" height="30.4883" rx="2.5" ry="2.5" style="stroke:#181818;stroke-width:0.5;" width="137" x="622.5" y="298.1504"/><text fill="#FFFFFF" font-family="sans-serif" font-size="14" lengthAdjust="spacing" textLength="123" x="629.5" y="318.6855">r:CommandResult</text><polygon fill="#181818" points="533,341.6387,523,345.6387,533,349.6387,529,345.6387" style="stroke:#181818;stroke-width:1.0;"/><line style="stroke:#181818;stroke-width:1.0;stroke-dasharray:2.0,2.0;" x1="527" x2="690" y1="345.6387" y2="345.6387"/><polygon fill="#181818" points="157,370.9492,147,374.9492,157,378.9492,153,374.9492" style="stroke:#181818;stroke-width:1.0;"/><line style="stroke:#181818;stroke-width:1.0;stroke-dasharray:2.0,2.0;" x1="151" x2="516" y1="374.9492" y2="374.9492"/><text fill="#000000" font-family="sans-serif" font-size="13" lengthAdjust="spacing" textLength="5" x="329" y="370.207">r</text><polygon fill="#181818" points="11,384.9492,1,388.9492,11,392.9492,7,388.9492" style="stroke:#181818;stroke-width:1.0;"/><line style="stroke:#181818;stroke-width:1.0;stroke-dasharray:2.0,2.0;" x1="5" x2="140" y1="388.9492" y2="388.9492"/><line style="stroke:#A80036;stroke-width:2.0;" x1="508" x2="526" y1="379.9492" y2="397.9492"/><line style="stroke:#A80036;stroke-width:2.0;" x1="508" x2="526" y1="397.9492" y2="379.9492"/><!--SRC=[bLD1QuCm6BtdLsIUseE3NMKKd6stCekb5dROGRBaeuH68qdSsdy_jRAQg1kxoPVtNjxtNhpZ1HKL0wpDHS1zMUK2wHClIg98ZaEbvDTQ5YPjJd4f22yG-f1d7CiZfpXEdZTH5YLniiyE3wWc6KvvIGg3lQ25R4b1Zg0yJ3Jk3_fKXnSofa3h9obFEw9qHnvCfnLe47Dj3aIV8fddf63Ns-tPD5q57MGFkXAc9LiJYmgrL1t8DPMjP23mDbckugbKMaYhEG3VjDxzXPrMWE4Cj38myqItXpT7X1h-IGnOM8GiPgqqZ2x0PVFHRJMkEM0XH1Mqjzb9eg5-Ozy1tRmw1yWjnf-mJ163QPKH4yCGBOcH1TtaN6kt6kR_MMZHTHtWgcGrPSs50GMi0JNWsMw_McwYyB3AqfVaBGlZE3k4wMlQkwLLGEWgv8y4tDkimtPrMMztp9mD-56nnyZ-1Vvmu737AdQgKR-s-_xe-zOZxuEjnyz06oKlhiGt]--></g></svg>
