<?xml version="1.0" encoding="us-ascii" standalone="no"?><svg xmlns="http://www.w3.org/2000/svg" xmlns:xlink="http://www.w3.org/1999/xlink" contentStyleType="text/css" height="579px" preserveAspectRatio="none" style="width:609px;height:579px;background:#FFFFFF;" version="1.1" viewBox="0 0 609 579" width="609px" zoomAndPan="magnify"><defs/><g><!--cluster LogicPackage--><g id="cluster_LogicPackage"><rect fill="#FFFFFF" height="492" rx="2.5" ry="2.5" style="stroke:#000000;stroke-width:1.0;" width="329" x="7" y="81"/><text fill="#000000" font-family="sans-serif" font-size="16" font-weight="bold" lengthAdjust="spacing" textLength="43" x="150" y="97.4844">Logic</text></g><!--cluster Model--><g id="cluster_Model"><rect fill="#FFFFFF" height="95" rx="2.5" ry="2.5" style="stroke:#000000;stroke-width:1.0;" width="157" x="387" y="374"/><text fill="#000000" font-family="sans-serif" font-size="16" font-weight="bold" lengthAdjust="spacing" textLength="46" x="442.5" y="390.4844">Model</text></g><!--class AddressBookParser--><g id="elem_AddressBookParser"><rect codeLine="8" fill="#3333C4" height="26.7578" id="AddressBookParser" rx="2.5" ry="2.5" style="stroke:#FFFFFF;stroke-width:1.0;" width="137" x="23.5" y="191"/><text fill="#FFFFFF" font-family="Arial" font-size="15" lengthAdjust="spacing" textLength="131" x="26.5" y="209.5791">AddressBookParser</text></g><!--class XYZCommand--><g id="elem_XYZCommand"><rect codeLine="9" fill="#3333C4" height="26.7578" id="XYZCommand" rx="2.5" ry="2.5" style="stroke:#FFFFFF;stroke-width:1.0;" width="101" x="205.5" y="530"/><text fill="#FFFFFF" font-family="Arial" font-size="15" lengthAdjust="spacing" textLength="95" x="208.5" y="548.5791">XYZCommand</text></g><!--class CommandResult--><g id="elem_CommandResult"><rect codeLine="10" fill="#3333C4" height="26.7578" id="CommandResult" rx="2.5" ry="2.5" style="stroke:#FFFFFF;stroke-width:1.0;" width="117" x="202.5" y="262.5"/><text fill="#FFFFFF" font-family="Arial" font-size="15" lengthAdjust="spacing" textLength="111" x="205.5" y="281.0791">CommandResult</text></g><!--class Command--><g id="elem_Command"><rect codeLine="11" fill="#3333C4" height="43.5156" id="Command" rx="2.5" ry="2.5" style="stroke:#FFFFFF;stroke-width:1.0;" width="75" x="218.5" y="409.5"/><text fill="#FFFFFF" font-family="Arial" font-size="15" lengthAdjust="spacing" textLength="63" x="224.5" y="428.0791">{abstract}</text><text fill="#FFFFFF" font-family="Arial" font-size="15" lengthAdjust="spacing" textLength="69" x="221.5" y="444.8369">Command</text></g><!--class Logic--><g id="elem_Logic"><rect codeLine="14" fill="#3333C4" height="43.5156" id="Logic" rx="2.5" ry="2.5" style="stroke:#FFFFFF;stroke-width:1.0;" width="78" x="242" y="117"/><text fill="#FFFFFF" font-family="Arial" font-size="15" lengthAdjust="spacing" textLength="72" x="245" y="135.5791">&#171;interface&#187;</text><text fill="#FFFFFF" font-family="Arial" font-size="15" lengthAdjust="spacing" textLength="35" x="263.5" y="152.3369">Logic</text></g><!--class LogicManager--><g id="elem_LogicManager"><rect codeLine="15" fill="#3333C4" height="26.7578" id="LogicManager" rx="2.5" ry="2.5" style="stroke:#FFFFFF;stroke-width:1.0;" width="97" x="109.5" y="125.5"/><text fill="#FFFFFF" font-family="Arial" font-size="15" lengthAdjust="spacing" textLength="91" x="112.5" y="144.0791">LogicManager</text></g><!--class HiddenModel--><g id="elem_HiddenModel"><rect codeLine="19" fill="#FFFFFF" height="26.7578" id="HiddenModel" rx="2.5" ry="2.5" style="stroke:#FFFFFF;stroke-width:1.0;" width="89" x="430.5" y="418"/><text fill="#FFFFFF" font-family="Arial" font-size="15" lengthAdjust="spacing" textLength="83" x="433.5" y="436.5791">HiddenModel</text></g><rect fill="#FFFFFF" height="55.75" rx="2.5" ry="2.5" style="stroke:#181818;stroke-width:1.0;" width="80" x="355" y="248"/><text fill="#000000" font-family="sans-serif" font-size="16" font-weight="bold" lengthAdjust="spacing" textLength="60" x="365" y="264.4844">Storage</text><!--class HiddenOutside--><g id="elem_HiddenOutside"><rect codeLine="25" fill="#FFFFFF" height="26.7578" id="HiddenOutside" rx="2.5" ry="2.5" style="stroke:#FFFFFF;stroke-width:1.0;" width="102" x="230" y="7"/><text fill="#FFFFFF" font-family="Arial" font-size="15" lengthAdjust="spacing" textLength="96" x="233" y="25.5791">HiddenOutside</text></g><g id="elem_GMN27"><path d="M352,524 L352,539.5 L306.5,543.5 L352,547.5 L352,563.0469 A0,0 0 0 0 352,563.0469 L602,563.0469 A0,0 0 0 0 602,563.0469 L602,534 L592,524 L352,524 A0,0 0 0 0 352,524 " fill="#FEFFDD" style="stroke:#181818;stroke-width:0.5;"/><path d="M592,524 L592,534 L602,534 L592,524 " fill="#FEFFDD" style="stroke:#181818;stroke-width:0.5;"/><text fill="#000000" font-family="sans-serif" font-size="13" lengthAdjust="spacing" textLength="225" x="358" y="540.7686">XYZCommand = AddPersonCommand,</text><text fill="#000000" font-family="sans-serif" font-size="13" lengthAdjust="spacing" textLength="151" x="397" y="555.292">FindPersonCommand, etc</text></g><!--link HiddenOutside to Logic--><g id="link_HiddenOutside_Logic"><path codeLine="26" d="M281,34.41 C281,54.32 281,86.71 281,110.75 " fill="none" id="HiddenOutside-to-Logic" style="stroke:#101086;stroke-width:1.1;stroke-dasharray:7.0,7.0;"/><polygon fill="#101086" points="281,116.75,285,107.75,281,111.75,277,107.75,281,116.75" style="stroke:#101086;stroke-width:1.1;"/></g><!--link LogicManager to Logic--><g id="link_LogicManager_Logic"><path codeLine="28" d="M206.53,139 C218.26,139 211.99,139 223.73,139 " fill="none" id="LogicManager-to-Logic" style="stroke:#101086;stroke-width:1.1;stroke-dasharray:7.0,7.0;"/><polygon fill="none" points="241.73,139,223.73,133,223.73,145,241.73,139" style="stroke:#101086;stroke-width:1.1;"/></g><!--link LogicManager to AddressBookParser--><g id="link_LogicManager_AddressBookParser"><path codeLine="29" d="M144.96,152.55 C133.39,163.68 120.8941,175.7005 109.3341,186.8205 " fill="none" id="LogicManager-to-AddressBookParser" style="stroke:#101086;stroke-width:1.1;"/><polygon fill="#101086" points="105.01,190.98,114.2692,187.6234,108.6134,187.5137,108.7232,181.8579,105.01,190.98" style="stroke:#101086;stroke-width:1.1;"/><text fill="#000000" font-family="sans-serif" font-size="13" font-weight="bold" lengthAdjust="spacing" textLength="7" x="101.9329" y="180.442">1</text></g><!--link AddressBookParser to XYZCommand--><g id="link_AddressBookParser_XYZCommand"><path codeLine="30" d="M84.75,218.36 C71.17,244.21 44.96,303.95 64,350 C99.35,435.5 188.0671,499.6845 230.0771,526.5845 " fill="none" id="AddressBookParser-to-XYZCommand" style="stroke:#101086;stroke-width:1.1;stroke-dasharray:7.0,7.0;"/><polygon fill="#101086" points="235.13,529.82,229.7077,521.5982,230.9193,527.1238,225.3937,528.3354,235.13,529.82" style="stroke:#101086;stroke-width:1.1;"/><polygon fill="#000000" points="71.1324,346.7842,69.9332,337.3496,64.6166,339.8563,71.1324,346.7842" style="stroke:#000000;stroke-width:1.0;"/><text fill="#000000" font-family="sans-serif" font-size="13" font-weight="bold" lengthAdjust="spacing" textLength="46" x="78" y="346.7686">creates</text></g><!--reverse link Command to XYZCommand--><g id="link_Command_XYZCommand"><path codeLine="32" d="M256,471.71 C256,494.31 256,511.34 256,529.92 " fill="none" id="Command-backto-XYZCommand" style="stroke:#101086;stroke-width:1.1;"/><polygon fill="none" points="256,453.71,250,471.71,262,471.71,256,453.71" style="stroke:#101086;stroke-width:1.1;"/></g><!--reverse link Command to LogicManager--><g id="link_Command_LogicManager"><path codeLine="33" d="M213.1917,406.7228 C178.5217,385.3628 134.44,351.6 113,304 C102.78,281.31 100.83,269.71 113,248 C125.48,225.72 149.52,240.28 162,218 C173.53,197.42 167.54,168.78 162.52,152.55 " fill="none" id="Command-backto-LogicManager" style="stroke:#101086;stroke-width:1.1;stroke-dasharray:7.0,7.0;"/><polygon fill="#101086" points="218.3,409.87,212.7356,401.7436,214.0431,407.2473,208.5394,408.5547,218.3,409.87" style="stroke:#101086;stroke-width:1.1;"/><polygon fill="#000000" points="118.9776,281.1652,120.0913,271.7201,114.3269,272.8693,118.9776,281.1652" style="stroke:#000000;stroke-width:1.0;"/><text fill="#000000" font-family="sans-serif" font-size="13" font-weight="bold" lengthAdjust="spacing" textLength="57" x="127" y="280.7686">executes</text></g><!--link LogicManager to Model--><g id="link_LogicManager_Model"><path codeLine="35" d="M195.67,152.51 C273.46,178.53 445.28,236.95 453,248 C467.26,268.4 460.45,280.25 453,304 C445.55,327.76 436.33,330.38 421,350 C418.09,353.72 416.21,353.83 414,358 C412.11,361.5638 410.3991,365.3275 408.8515,369.1906 C408.4647,370.1563 408.088,371.1283 407.7213,372.1049 C407.538,372.5932 407.3571,373.0827 407.1787,373.5731 C407.1341,373.6957 409.1265,368.1747 409.0822,368.2974 " fill="none" id="LogicManager-to-Model" style="stroke:#101086;stroke-width:1.1;"/><polygon fill="#101086" points="407.0454,373.9411,413.8631,366.8334,408.7427,369.238,406.3382,364.1177,407.0454,373.9411" style="stroke:#101086;stroke-width:1.1;"/></g><!--link LogicManager to Storage--><g id="link_LogicManager_Storage"><path codeLine="36" d="M180.3,152.7 C220.28,175.48 299.4763,220.5905 349.7263,249.2105 " fill="none" id="LogicManager-to-Storage" style="stroke:#101086;stroke-width:1.1;"/><polygon fill="#101086" points="354.94,252.18,349.0991,244.25,350.5953,249.7055,345.1399,251.2016,354.94,252.18" style="stroke:#101086;stroke-width:1.1;"/></g><!--link Storage to Model--><!--reverse link Storage to Command--><!--link Command to Model--><g id="link_Command_Model"><path codeLine="39" d="M293.74,431.5 C310.55,431.5 327.36,431.5 344.17,431.5 C352.575,431.5 360.98,431.5 369.385,431.5 C373.5875,431.5 377.79,431.5 381.9925,431.5 C383.0431,431.5 384.0938,431.5 385.1444,431.5 C385.6697,431.5 380.195,431.5 380.7203,431.5 " fill="none" id="Command-to-Model" style="stroke:#101086;stroke-width:1.1;stroke-dasharray:7.0,7.0;"/><polygon fill="#101086" points="386.7203,431.5,377.7203,427.5,381.7203,431.5,377.7203,435.5,386.7203,431.5" style="stroke:#101086;stroke-width:1.1;"/></g><!--link Logic to CommandResult--><g id="link_Logic_CommandResult"><path codeLine="42" d="M277.88,161.09 C273.68,189.42 267.2292,232.9548 263.7792,256.2448 " fill="none" id="Logic-to-CommandResult" style="stroke:#101086;stroke-width:1.1;stroke-dasharray:7.0,7.0;"/><polygon fill="#101086" points="262.9,262.18,268.1756,253.8633,263.6327,257.234,260.262,252.691,262.9,262.18" style="stroke:#101086;stroke-width:1.1;"/></g><!--link LogicManager to CommandResult--><g id="link_LogicManager_CommandResult"><path codeLine="43" d="M167.88,152.94 C187.61,178.81 228.0812,231.8494 247.6612,257.5194 " fill="none" id="LogicManager-to-CommandResult" style="stroke:#101086;stroke-width:1.1;stroke-dasharray:7.0,7.0;"/><polygon fill="#101086" points="251.3,262.29,249.0222,252.7082,248.2676,258.3145,242.6613,257.5599,251.3,262.29" style="stroke:#101086;stroke-width:1.1;"/></g><!--reverse link CommandResult to Command--><g id="link_CommandResult_Command"><path codeLine="44" d="M256.0802,295.3721 C253.1402,306.8421 250.61,318.51 249,334 C246.3,359.9 249.44,389.81 252.33,409.38 " fill="none" id="CommandResult-backto-Command" style="stroke:#101086;stroke-width:1.1;stroke-dasharray:7.0,7.0;"/><polygon fill="#101086" points="257.57,289.56,251.4606,297.285,256.3285,294.4034,259.2101,299.2713,257.57,289.56" style="stroke:#101086;stroke-width:1.1;"/><polygon fill="#000000" points="254.1644,337.2644,250.9297,346.208,256.8043,346.4012,254.1644,337.2644" style="stroke:#000000;stroke-width:1.0;"/><text fill="#000000" font-family="sans-serif" font-size="13" font-weight="bold" lengthAdjust="spacing" textLength="58" x="263" y="346.7686">produces</text></g><!--SRC=[RLBBRi8m4BpxAzpqsbX2wWdHI2KIRIKGY7BeWmgvzW8MmOxy4ArQ_ht1iI61vkJCpExEZdqb92iS1spiTm6aTDi2cOsG9TLqYwdMQZTR2xQHO0pkaCuvcQj2QJmSFppbYtmy74yNizk6XXNKc3vbcvLMJl8BDK9bHT8LuA5Q2OQfgG-JWFuWb1zQu7lETMMXhzHcGhK17V2NrxTSRRTKyW24loaOLzY09J_qqrXDcTtFPH0aXrcnD4v9UZqXBUWbPP1bS-cz94TNGUNF8oehWnhjJokC58UYiboh7WNd86liUk2_flZPAbrlk4UjYh6pHbGN4clQA25Py8AQDZ3HOhMsv3UoBJBrP9ebdUIV82yGF-GKBEvYfe5QC3X3g86dhaohWJ74jfy2bfOSoQe7V05peKdRNPhLqLt28IGKmqhJzxMFuoDKnFOauguafx8ZMuSJnqXb0Ni8gsLZqMvpwRj3KXFGHiKNSuFdSY3aEGWsteNFhVt-sfbmjPCNagD9Rxt5LQcLMd773gdz0G00]--></g></svg>