<?xml version="1.0" encoding="us-ascii" standalone="no"?><svg xmlns="http://www.w3.org/2000/svg" xmlns:xlink="http://www.w3.org/1999/xlink" contentStyleType="text/css" height="618px" preserveAspectRatio="none" style="width:1167px;height:618px;background:#FFFFFF;" version="1.1" viewBox="0 0 1167 618" width="1167px" zoomAndPan="magnify"><defs/><g><rect fill="#C8C8FA" height="599.2559" style="stroke:#181818;stroke-width:0.5;" width="1067" x="94" y="6"/><text fill="#FFFFFF" font-family="sans-serif" font-size="13" font-weight="bold" lengthAdjust="spacing" textLength="36" x="607.5" y="18.5684">Logic</text><rect fill="#FFFFFF" height="505.1465" style="stroke:#181818;stroke-width:1.0;" width="10" x="160" y="88.1094"/><rect fill="#FFFFFF" height="299.0176" style="stroke:#181818;stroke-width:1.0;" width="10" x="379" y="117.4199"/><rect fill="#FFFFFF" height="16.1777" style="stroke:#181818;stroke-width:1.0;" width="10" x="688" y="156.7305"/><rect fill="#FFFFFF" height="170.9082" style="stroke:#181818;stroke-width:1.0;" width="10" x="688" y="202.2188"/><rect fill="#FFFFFF" height="31.4883" style="stroke:#181818;stroke-width:1.0;" width="10" x="875" y="241.5293"/><rect fill="#FFFFFF" height="31.4883" style="stroke:#181818;stroke-width:1.0;" width="10" x="1050" y="312.3281"/><rect fill="#FFFFFF" height="118.1973" style="stroke:#181818;stroke-width:1.0;" width="10" x="1050" y="445.748"/><line style="stroke:#181818;stroke-width:0.5;stroke-dasharray:5.0,5.0;" x1="165" x2="165" y1="56.7988" y2="611.2559"/><line style="stroke:#181818;stroke-width:0.5;stroke-dasharray:5.0,5.0;" x1="383.5" x2="383.5" y1="56.7988" y2="611.2559"/><line style="stroke:#181818;stroke-width:0.5;stroke-dasharray:5.0,5.0;" x1="693" x2="693" y1="156.1641" y2="611.2559"/><line style="stroke:#181818;stroke-width:0.5;stroke-dasharray:5.0,5.0;" x1="880" x2="880" y1="240.9629" y2="611.2559"/><line style="stroke:#181818;stroke-width:0.5;stroke-dasharray:5.0,5.0;" x1="1055" x2="1055" y1="311.7617" y2="611.2559"/><rect fill="#3333C4" height="30.4883" rx="2.5" ry="2.5" style="stroke:#181818;stroke-width:0.5;" width="114" x="108" y="25.3105"/><text fill="#FFFFFF" font-family="sans-serif" font-size="14" lengthAdjust="spacing" textLength="100" x="115" y="45.8457">:LogicManager</text><rect fill="#3333C4" height="30.4883" rx="2.5" ry="2.5" style="stroke:#181818;stroke-width:0.5;" width="151" x="308.5" y="25.3105"/><text fill="#FFFFFF" font-family="sans-serif" font-size="14" lengthAdjust="spacing" textLength="137" x="315.5" y="45.8457">:AddressBookParser</text><rect fill="#FFFFFF" height="505.1465" style="stroke:#181818;stroke-width:1.0;" width="10" x="160" y="88.1094"/><rect fill="#FFFFFF" height="299.0176" style="stroke:#181818;stroke-width:1.0;" width="10" x="379" y="117.4199"/><rect fill="#FFFFFF" height="16.1777" style="stroke:#181818;stroke-width:1.0;" width="10" x="688" y="156.7305"/><rect fill="#FFFFFF" height="170.9082" style="stroke:#181818;stroke-width:1.0;" width="10" x="688" y="202.2188"/><rect fill="#FFFFFF" height="31.4883" style="stroke:#181818;stroke-width:1.0;" width="10" x="875" y="241.5293"/><rect fill="#FFFFFF" height="31.4883" style="stroke:#181818;stroke-width:1.0;" width="10" x="1050" y="312.3281"/><rect fill="#FFFFFF" height="118.1973" style="stroke:#181818;stroke-width:1.0;" width="10" x="1050" y="445.748"/><polygon fill="#181818" points="148,84.1094,158,88.1094,148,92.1094,152,88.1094" style="stroke:#181818;stroke-width:1.0;"/><line style="stroke:#181818;stroke-width:1.0;" x1="0" x2="154" y1="88.1094" y2="88.1094"/><text fill="#000000" font-family="sans-serif" font-size="13" lengthAdjust="spacing" textLength="141" x="9.5" y="83.3672">execute("markTask 1")</text><polygon fill="#181818" points="367,113.4199,377,117.4199,367,121.4199,371,117.4199" style="stroke:#181818;stroke-width:1.0;"/><line style="stroke:#181818;stroke-width:1.0;" x1="170" x2="373" y1="117.4199" y2="117.4199"/><text fill="#000000" font-family="sans-serif" font-size="13" lengthAdjust="spacing" textLength="190" x="179.5" y="112.6777">parseCommand("markTask 1")</text><polygon fill="#181818" points="582,142.7305,592,146.7305,582,150.7305,586,146.7305" style="stroke:#181818;stroke-width:1.0;"/><line style="stroke:#181818;stroke-width:1.0;" x1="389" x2="588" y1="146.7305" y2="146.7305"/><text fill="#000000" font-family="sans-serif" font-size="13" lengthAdjust="spacing" textLength="171" x="406" y="141.9883">MarkTaskCommandParser()</text><rect fill="#3333C4" height="30.4883" rx="2.5" ry="2.5" style="stroke:#181818;stroke-width:0.5;" width="198" x="594" y="125.4199"/><text fill="#FFFFFF" font-family="sans-serif" font-size="14" lengthAdjust="spacing" textLength="184" x="601" y="145.9551">:MarkTaskCommandParser</text><polygon fill="#181818" points="400,168.9082,390,172.9082,400,176.9082,396,172.9082" style="stroke:#181818;stroke-width:1.0;"/><line style="stroke:#181818;stroke-width:1.0;stroke-dasharray:2.0,2.0;" x1="394" x2="692" y1="172.9082" y2="172.9082"/><polygon fill="#181818" points="676,198.2188,686,202.2188,676,206.2188,680,202.2188" style="stroke:#181818;stroke-width:1.0;"/><line style="stroke:#181818;stroke-width:1.0;" x1="389" x2="682" y1="202.2188" y2="202.2188"/><text fill="#000000" font-family="sans-serif" font-size="13" lengthAdjust="spacing" textLength="60" x="508.5" y="197.4766">parse("1")</text><polygon fill="#181818" points="815,227.5293,825,231.5293,815,235.5293,819,231.5293" style="stroke:#181818;stroke-width:1.0;"/><line style="stroke:#181818;stroke-width:1.0;" x1="698" x2="821" y1="231.5293" y2="231.5293"/><text fill="#000000" font-family="sans-serif" font-size="13" lengthAdjust="spacing" textLength="95" x="715" y="226.7871">parseIndex("1")</text><rect fill="#3333C4" height="30.4883" rx="2.5" ry="2.5" style="stroke:#181818;stroke-width:0.5;" width="106" x="827" y="210.2188"/><text fill="#FFFFFF" font-family="sans-serif" font-size="14" lengthAdjust="spacing" textLength="92" x="834" y="230.7539">idx:ParserUtil</text><polygon fill="#181818" points="709,269.0176,699,273.0176,709,277.0176,705,273.0176" style="stroke:#181818;stroke-width:1.0;"/><line style="stroke:#181818;stroke-width:1.0;stroke-dasharray:2.0,2.0;" x1="703" x2="879" y1="273.0176" y2="273.0176"/><text fill="#000000" font-family="sans-serif" font-size="13" lengthAdjust="spacing" textLength="20" x="779" y="268.2754">idx</text><polygon fill="#181818" points="951,298.3281,961,302.3281,951,306.3281,955,302.3281" style="stroke:#181818;stroke-width:1.0;"/><line style="stroke:#181818;stroke-width:1.0;" x1="698" x2="957" y1="302.3281" y2="302.3281"/><text fill="#000000" font-family="sans-serif" font-size="13" lengthAdjust="spacing" textLength="153" x="754" y="297.5859">MarkTaskCommand(idx)</text><rect fill="#3333C4" height="30.4883" rx="2.5" ry="2.5" style="stroke:#181818;stroke-width:0.5;" width="184" x="963" y="281.0176"/><text fill="#FFFFFF" font-family="sans-serif" font-size="14" lengthAdjust="spacing" textLength="170" x="970" y="301.5527">cmd:MarkTaskCommand</text><polygon fill="#181818" points="709,339.8164,699,343.8164,709,347.8164,705,343.8164" style="stroke:#181818;stroke-width:1.0;"/><line style="stroke:#181818;stroke-width:1.0;stroke-dasharray:2.0,2.0;" x1="703" x2="1054" y1="343.8164" y2="343.8164"/><text fill="#000000" font-family="sans-serif" font-size="13" lengthAdjust="spacing" textLength="27" x="863" y="339.0742">cmd</text><polygon fill="#181818" points="400,369.127,390,373.127,400,377.127,396,373.127" style="stroke:#181818;stroke-width:1.0;"/><line style="stroke:#181818;stroke-width:1.0;stroke-dasharray:2.0,2.0;" x1="394" x2="692" y1="373.127" y2="373.127"/><text fill="#000000" font-family="sans-serif" font-size="13" lengthAdjust="spacing" textLength="27" x="527.5" y="368.3848">cmd</text><line style="stroke:#A80036;stroke-width:2.0;" x1="684" x2="702" y1="378.127" y2="396.127"/><line style="stroke:#A80036;stroke-width:2.0;" x1="684" x2="702" y1="396.127" y2="378.127"/><polygon fill="#181818" points="181,412.4375,171,416.4375,181,420.4375,177,416.4375" style="stroke:#181818;stroke-width:1.0;"/><line style="stroke:#181818;stroke-width:1.0;stroke-dasharray:2.0,2.0;" x1="175" x2="383" y1="416.4375" y2="416.4375"/><text fill="#000000" font-family="sans-serif" font-size="13" lengthAdjust="spacing" textLength="27" x="263.5" y="411.6953">cmd</text><polygon fill="#181818" points="1038,441.748,1048,445.748,1038,449.748,1042,445.748" style="stroke:#181818;stroke-width:1.0;"/><line style="stroke:#181818;stroke-width:1.0;" x1="170" x2="1044" y1="445.748" y2="445.748"/><text fill="#000000" font-family="sans-serif" font-size="13" lengthAdjust="spacing" textLength="57" x="581.5" y="441.0059">execute()</text><rect fill="#FFFFFF" height="39.4434" style="stroke:#000000;stroke-width:1.5;" width="210" x="950" y="453.748"/><path d="M950,453.748 L1014,453.748 L1014,460.748 L1004,470.748 L950,470.748 L950,453.748 " fill="#EEEEEE" style="stroke:#000000;stroke-width:2.0;"/><text fill="#000000" font-family="sans-serif" font-size="13" font-weight="bold" lengthAdjust="spacing" textLength="19" x="963" y="468.3164">ref</text><text fill="#000000" font-family="sans-serif" font-size="12" lengthAdjust="spacing" textLength="119" x="995.5" y="486.3496">Mark task in task list</text><rect fill="#FFFFFF" height="39.4434" style="stroke:#000000;stroke-width:1.5;" width="210" x="950" y="498.1914"/><path d="M950,498.1914 L1014,498.1914 L1014,505.1914 L1004,515.1914 L950,515.1914 L950,498.1914 " fill="#EEEEEE" style="stroke:#000000;stroke-width:2.0;"/><text fill="#000000" font-family="sans-serif" font-size="13" font-weight="bold" lengthAdjust="spacing" textLength="19" x="963" y="512.7598">ref</text><text fill="#000000" font-family="sans-serif" font-size="12" lengthAdjust="spacing" textLength="198" x="956" y="530.793">Create successful CommandResult</text><polygon fill="#181818" points="181,559.9453,171,563.9453,181,567.9453,177,563.9453" style="stroke:#181818;stroke-width:1.0;"/><line style="stroke:#181818;stroke-width:1.0;stroke-dasharray:2.0,2.0;" x1="175" x2="1054" y1="563.9453" y2="563.9453"/><text fill="#000000" font-family="sans-serif" font-size="13" lengthAdjust="spacing" textLength="19" x="603" y="559.2031">res</text><polygon fill="#181818" points="11,589.2559,1,593.2559,11,597.2559,7,593.2559" style="stroke:#181818;stroke-width:1.0;"/><line style="stroke:#181818;stroke-width:1.0;stroke-dasharray:2.0,2.0;" x1="5" x2="164" y1="593.2559" y2="593.2559"/><text fill="#000000" font-family="sans-serif" font-size="13" lengthAdjust="spacing" textLength="19" x="73" y="588.5137">res</text><line style="stroke:#A80036;stroke-width:2.0;" x1="871" x2="889" y1="584.2559" y2="602.2559"/><line style="stroke:#A80036;stroke-width:2.0;" x1="871" x2="889" y1="602.2559" y2="584.2559"/><line style="stroke:#A80036;stroke-width:2.0;" x1="1046" x2="1064" y1="584.2559" y2="602.2559"/><line style="stroke:#A80036;stroke-width:2.0;" x1="1046" x2="1064" y1="602.2559" y2="584.2559"/><!--SRC=[bLHDRzmW4BtpAwQ-T7jmf5ojAb9YgMsaZRRQfgTL5R4mkujiWmiusVpxuezLi0rESp9cUEyDCu_v92Gh6uvWx6k9LtLJbSGKGjPKqmfkjLOltvIqlzeer2KLqWiR_DkWPBZ50-fsSKTPSTIgaJnNfTBmSX8M2TchCwpLKJ1ORxxVvq_vPhtPFZrU4qTZ1HCrbHQIh3loG2Kzeaw06l0tVEW4TykvHcFkb2f-Kcq6y6ntWU61wkAHcY9NLKKbzrY2aJYJuEUiF_FRYh9ZUFkDmrZ5fpc4r4S4wFvTOGdPfJVZIcM0PsIDnLLI3GHmdNmXb5dnJ2sEJXComZgkUU4ogDl5a4MCTOOZX6bi8y4YahcE4m_NEmllhppri0O9ywMXQnAExx5zAEMkPgjaLAC8xr2dDwl4yhxnxJH8t4kEvucEnqGyHBgGhhEkNm6V8Tp6U8vJsyxQjt9YyQhCkhQOjtix2vtxa0FUPRlqw_CFmJbAeEry1AkWLaPOeIJO4m97OxLwXVQPED8zbkqX5sYVh3fqoq6XXUoflefbkJjrGdyYVkrr_j-iyqankM_W3K_7mxovbscpr56D1r3FZc4IwQq1jfqcGlRVKXYxXCXxEvg6CPVheIbX26tHDAKDssToRtVBHTVilgRfCcGyH2-zy9vDf3t_0000]--></g></svg>
