<?xml version="1.0" encoding="us-ascii" standalone="no"?><svg xmlns="http://www.w3.org/2000/svg" xmlns:xlink="http://www.w3.org/1999/xlink" contentStyleType="text/css" height="594px" preserveAspectRatio="none" style="width:559px;height:594px;background:#FFFFFF;" version="1.1" viewBox="0 0 559 594" width="559px" zoomAndPan="magnify"><defs><filter height="300%" id="f14la12j4e7soc" width="300%" x="-1" y="-1"><feGaussianBlur result="blurOut" stdDeviation="2.0"/><feColorMatrix in="blurOut" result="blurOut2" type="matrix" values="0 0 0 0 0 0 0 0 0 0 0 0 0 0 0 0 0 0 .4 0"/><feOffset dx="4.0" dy="4.0" in="blurOut2" result="blurOut3"/><feBlend in="SourceGraphic" in2="blurOut3" mode="normal"/></filter></defs><g><text fill="#808080" font-family="sans-serif" font-size="14" font-weight="bold" lengthAdjust="spacing" textLength="324" x="118" y="32.6738">Activity: User executes command `markTask 1`</text><ellipse cx="324.5" cy="56.6406" fill="#000000" filter="url(#f14la12j4e7soc)" rx="10" ry="10" style="stroke:#000000;stroke-width:1.0;"/><rect fill="#FEFECE" filter="url(#f14la12j4e7soc)" height="36.7578" rx="12.5" ry="12.5" style="stroke:#A80036;stroke-width:1.5;" width="170" x="239.5" y="86.6406"/><text fill="#000000" font-family="sans-serif" font-size="15" lengthAdjust="spacing" textLength="150" x="249.5" y="110.2197">Get last shown task list</text><rect fill="#FEFECE" filter="url(#f14la12j4e7soc)" height="36.7578" rx="12.5" ry="12.5" style="stroke:#A80036;stroke-width:1.5;" width="159" x="245" y="143.3984"/><text fill="#000000" font-family="sans-serif" font-size="15" lengthAdjust="spacing" textLength="139" x="255" y="166.9775">Get Task with index 1</text><polygon fill="#FEFECE" filter="url(#f14la12j4e7soc)" points="324.5,200.1563,324.5,200.1563,336.5,212.1563,324.5,224.1563,324.5,224.1563,312.5,212.1563,324.5,200.1563" style="stroke:#A80036;stroke-width:1.5;"/><text fill="#000000" font-family="sans-serif" font-size="12" lengthAdjust="spacing" textLength="80" x="232.5" y="209.6133">[Task is found]</text><text fill="#000000" font-family="sans-serif" font-size="12" lengthAdjust="spacing" textLength="30" x="336.5" y="209.6133">[else]</text><rect fill="#FEFECE" filter="url(#f14la12j4e7soc)" height="36.7578" rx="12.5" ry="12.5" style="stroke:#A80036;stroke-width:1.5;" width="125" x="123" y="234.1563"/><text fill="#000000" font-family="sans-serif" font-size="15" lengthAdjust="spacing" textLength="105" x="133" y="257.7354">Get Task Status</text><polygon fill="#FEFECE" filter="url(#f14la12j4e7soc)" points="185.5,290.9141,185.5,290.9141,197.5,302.9141,185.5,314.9141,185.5,314.9141,173.5,302.9141,185.5,290.9141" style="stroke:#A80036;stroke-width:1.5;"/><text fill="#000000" font-family="sans-serif" font-size="12" lengthAdjust="spacing" textLength="139" x="34.5" y="300.3711">[Task Status is Not Done]</text><text fill="#000000" font-family="sans-serif" font-size="12" lengthAdjust="spacing" textLength="30" x="197.5" y="300.3711">[else]</text><rect fill="#FEFECE" filter="url(#f14la12j4e7soc)" height="36.7578" rx="12.5" ry="12.5" style="stroke:#A80036;stroke-width:1.5;" width="167" x="11" y="324.9141"/><text fill="#000000" font-family="sans-serif" font-size="15" lengthAdjust="spacing" textLength="147" x="21" y="348.4932">Update to Status Done</text><rect fill="#FEFECE" filter="url(#f14la12j4e7soc)" height="36.7578" rx="12.5" ry="12.5" style="stroke:#A80036;stroke-width:1.5;" width="160" x="14.5" y="381.6719"/><text fill="#000000" font-family="sans-serif" font-size="15" lengthAdjust="spacing" textLength="140" x="24.5" y="405.251">Save task information</text><rect fill="#FEFECE" filter="url(#f14la12j4e7soc)" height="36.7578" rx="12.5" ry="12.5" style="stroke:#A80036;stroke-width:1.5;" width="166" x="11.5" y="438.4297"/><text fill="#000000" font-family="sans-serif" font-size="15" lengthAdjust="spacing" textLength="146" x="21.5" y="462.0088">Show updated task list</text><rect fill="#FEFECE" filter="url(#f14la12j4e7soc)" height="36.7578" rx="12.5" ry="12.5" style="stroke:#A80036;stroke-width:1.5;" width="157" x="198" y="324.9141"/><text fill="#000000" font-family="sans-serif" font-size="15" lengthAdjust="spacing" textLength="137" x="208" y="348.4932">Show Error Message</text><polygon fill="#FEFECE" filter="url(#f14la12j4e7soc)" points="185.5,481.1875,197.5,493.1875,185.5,505.1875,173.5,493.1875,185.5,481.1875" style="stroke:#A80036;stroke-width:1.5;"/><rect fill="#FEFECE" filter="url(#f14la12j4e7soc)" height="36.7578" rx="12.5" ry="12.5" style="stroke:#A80036;stroke-width:1.5;" width="157" x="385" y="234.1563"/><text fill="#000000" font-family="sans-serif" font-size="15" lengthAdjust="spacing" textLength="137" x="395" y="257.7354">Show Error Message</text><polygon fill="#FEFECE" filter="url(#f14la12j4e7soc)" points="324.5,511.1875,336.5,523.1875,324.5,535.1875,312.5,523.1875,324.5,511.1875" style="stroke:#A80036;stroke-width:1.5;"/><ellipse cx="324.5" cy="566.1875" fill="none" filter="url(#f14la12j4e7soc)" rx="11" ry="11" style="stroke:#000000;stroke-width:1.0;"/><ellipse cx="324.5" cy="566.1875" fill="#000000" rx="6" ry="6" style="stroke:#000000;stroke-width:1.0;"/><line style="stroke:#A80036;stroke-width:1.5;" x1="324.5" x2="324.5" y1="66.6406" y2="86.6406"/><polygon fill="#A80036" points="320.5,76.6406,324.5,86.6406,328.5,76.6406,324.5,80.6406" style="stroke:#A80036;stroke-width:1.0;"/><line style="stroke:#A80036;stroke-width:1.5;" x1="324.5" x2="324.5" y1="123.3984" y2="143.3984"/><polygon fill="#A80036" points="320.5,133.3984,324.5,143.3984,328.5,133.3984,324.5,137.3984" style="stroke:#A80036;stroke-width:1.0;"/><line style="stroke:#A80036;stroke-width:1.5;" x1="94.5" x2="94.5" y1="361.6719" y2="381.6719"/><polygon fill="#A80036" points="90.5,371.6719,94.5,381.6719,98.5,371.6719,94.5,375.6719" style="stroke:#A80036;stroke-width:1.0;"/><line style="stroke:#A80036;stroke-width:1.5;" x1="94.5" x2="94.5" y1="418.4297" y2="438.4297"/><polygon fill="#A80036" points="90.5,428.4297,94.5,438.4297,98.5,428.4297,94.5,432.4297" style="stroke:#A80036;stroke-width:1.0;"/><line style="stroke:#A80036;stroke-width:1.5;" x1="173.5" x2="94.5" y1="302.9141" y2="302.9141"/><line style="stroke:#A80036;stroke-width:1.5;" x1="94.5" x2="94.5" y1="302.9141" y2="324.9141"/><polygon fill="#A80036" points="90.5,314.9141,94.5,324.9141,98.5,314.9141,94.5,318.9141" style="stroke:#A80036;stroke-width:1.0;"/><line style="stroke:#A80036;stroke-width:1.5;" x1="197.5" x2="276.5" y1="302.9141" y2="302.9141"/><line style="stroke:#A80036;stroke-width:1.5;" x1="276.5" x2="276.5" y1="302.9141" y2="324.9141"/><polygon fill="#A80036" points="272.5,314.9141,276.5,324.9141,280.5,314.9141,276.5,318.9141" style="stroke:#A80036;stroke-width:1.0;"/><line style="stroke:#A80036;stroke-width:1.5;" x1="94.5" x2="94.5" y1="475.1875" y2="493.1875"/><line style="stroke:#A80036;stroke-width:1.5;" x1="94.5" x2="173.5" y1="493.1875" y2="493.1875"/><polygon fill="#A80036" points="163.5,489.1875,173.5,493.1875,163.5,497.1875,167.5,493.1875" style="stroke:#A80036;stroke-width:1.0;"/><line style="stroke:#A80036;stroke-width:1.5;" x1="276.5" x2="276.5" y1="361.6719" y2="493.1875"/><line style="stroke:#A80036;stroke-width:1.5;" x1="276.5" x2="197.5" y1="493.1875" y2="493.1875"/><polygon fill="#A80036" points="207.5,489.1875,197.5,493.1875,207.5,497.1875,203.5,493.1875" style="stroke:#A80036;stroke-width:1.0;"/><line style="stroke:#A80036;stroke-width:1.5;" x1="185.5" x2="185.5" y1="270.9141" y2="290.9141"/><polygon fill="#A80036" points="181.5,280.9141,185.5,290.9141,189.5,280.9141,185.5,284.9141" style="stroke:#A80036;stroke-width:1.0;"/><line style="stroke:#A80036;stroke-width:1.5;" x1="312.5" x2="185.5" y1="212.1563" y2="212.1563"/><line style="stroke:#A80036;stroke-width:1.5;" x1="185.5" x2="185.5" y1="212.1563" y2="234.1563"/><polygon fill="#A80036" points="181.5,224.1563,185.5,234.1563,189.5,224.1563,185.5,228.1563" style="stroke:#A80036;stroke-width:1.0;"/><line style="stroke:#A80036;stroke-width:1.5;" x1="336.5" x2="463.5" y1="212.1563" y2="212.1563"/><line style="stroke:#A80036;stroke-width:1.5;" x1="463.5" x2="463.5" y1="212.1563" y2="234.1563"/><polygon fill="#A80036" points="459.5,224.1563,463.5,234.1563,467.5,224.1563,463.5,228.1563" style="stroke:#A80036;stroke-width:1.0;"/><line style="stroke:#A80036;stroke-width:1.5;" x1="185.5" x2="185.5" y1="505.1875" y2="523.1875"/><line style="stroke:#A80036;stroke-width:1.5;" x1="185.5" x2="312.5" y1="523.1875" y2="523.1875"/><polygon fill="#A80036" points="302.5,519.1875,312.5,523.1875,302.5,527.1875,306.5,523.1875" style="stroke:#A80036;stroke-width:1.0;"/><line style="stroke:#A80036;stroke-width:1.5;" x1="463.5" x2="463.5" y1="270.9141" y2="523.1875"/><line style="stroke:#A80036;stroke-width:1.5;" x1="463.5" x2="336.5" y1="523.1875" y2="523.1875"/><polygon fill="#A80036" points="346.5,519.1875,336.5,523.1875,346.5,527.1875,342.5,523.1875" style="stroke:#A80036;stroke-width:1.0;"/><line style="stroke:#A80036;stroke-width:1.5;" x1="324.5" x2="324.5" y1="180.1563" y2="200.1563"/><polygon fill="#A80036" points="320.5,190.1563,324.5,200.1563,328.5,190.1563,324.5,194.1563" style="stroke:#A80036;stroke-width:1.0;"/><line style="stroke:#A80036;stroke-width:1.5;" x1="324.5" x2="324.5" y1="535.1875" y2="555.1875"/><polygon fill="#A80036" points="320.5,545.1875,324.5,555.1875,328.5,545.1875,324.5,549.1875" style="stroke:#A80036;stroke-width:1.0;"/><!--SRC=[RP7DJiD038Jl-nI-qLwGYiIbGKX8_9pWKdf2I3LPjxMQhAErqxGyFPjDeP5ABXlbcnbFlBhZ056KdAQt1YFMy50QxzcEpn9imTy4izinZL6wCxfnpjWgWhjIAedpJQJZ_L_479PA4UX0PMkaK4fTO_2mgZ7ktb5tC5ivfuRHtFo532fK0zrA5y1wNB5QCQ0ixzYsmC7J0MQ5SrSB3YM1RGc-o13q60mFu2ND2fAIsgQHQD1KM7BOP64fmREn193Mb7sskolFM2S27MKr0HkWPeV5DkL736K_MutGNpl7QvXCUnvWyf7BiS9Qsk0_fmxISswzCBHMY_prqZRGtlsMAZzAe5D03bas7Yrra5zTBoZEV85x6dR5OIsnnlxNnZmj4zeSuiSxxI5LIgb5Vun7PijJkkS8hwIAczCyIejRkqlJluP1h2QD-m40]--></g></svg>
