<?xml version="1.0" encoding="us-ascii" standalone="no"?><svg xmlns="http://www.w3.org/2000/svg" xmlns:xlink="http://www.w3.org/1999/xlink" contentStyleType="text/css" height="600px" preserveAspectRatio="none" style="width:592px;height:600px;background:#FFFFFF;" version="1.1" viewBox="0 0 592 600" width="592px" zoomAndPan="magnify"><defs><filter height="300%" id="f14la12j4e7soc" width="300%" x="-1" y="-1"><feGaussianBlur result="blurOut" stdDeviation="2.0"/><feColorMatrix in="blurOut" result="blurOut2" type="matrix" values="0 0 0 0 0 0 0 0 0 0 0 0 0 0 0 0 0 0 .4 0"/><feOffset dx="4.0" dy="4.0" in="blurOut2" result="blurOut3"/><feBlend in="SourceGraphic" in2="blurOut3" mode="normal"/></filter></defs><g><text fill="#808080" font-family="sans-serif" font-size="14" font-weight="bold" lengthAdjust="spacing" textLength="346" x="124" y="33.5352">Activity: User executes command `markTask 1`</text><ellipse cx="346.375" cy="57.4883" fill="#000000" filter="url(#f14la12j4e7soc)" rx="10" ry="10" style="stroke:#000000;stroke-width:1.0;"/><rect fill="#FEFECE" filter="url(#f14la12j4e7soc)" height="37.666" rx="12.5" ry="12.5" style="stroke:#A80036;stroke-width:1.5;" width="191" x="250.875" y="87.4883"/><text fill="#000000" font-family="sans-serif" font-size="15" lengthAdjust="spacing" textLength="171" x="260.875" y="111.9902">Get last shown task list</text><rect fill="#FEFECE" filter="url(#f14la12j4e7soc)" height="37.666" rx="12.5" ry="12.5" style="stroke:#A80036;stroke-width:1.5;" width="178" x="257.375" y="145.1543"/><text fill="#000000" font-family="sans-serif" font-size="15" lengthAdjust="spacing" textLength="158" x="267.375" y="169.6563">Get Task with index 1</text><polygon fill="#FEFECE" filter="url(#f14la12j4e7soc)" points="346.375,202.8203,346.375,202.8203,358.375,214.8203,346.375,226.8203,346.375,226.8203,334.375,214.8203,346.375,202.8203" style="stroke:#A80036;stroke-width:1.5;"/><text fill="#000000" font-family="sans-serif" font-size="12" lengthAdjust="spacing" textLength="86" x="248.375" y="212.2891">[Task is found]</text><text fill="#000000" font-family="sans-serif" font-size="12" lengthAdjust="spacing" textLength="31" x="358.375" y="212.2891">[else]</text><rect fill="#FEFECE" filter="url(#f14la12j4e7soc)" height="37.666" rx="12.5" ry="12.5" style="stroke:#A80036;stroke-width:1.5;" width="134" x="133.25" y="236.8203"/><text fill="#000000" font-family="sans-serif" font-size="15" lengthAdjust="spacing" textLength="114" x="143.25" y="261.3223">Get Task Status</text><polygon fill="#FEFECE" filter="url(#f14la12j4e7soc)" points="200.25,294.4863,200.25,294.4863,212.25,306.4863,200.25,318.4863,200.25,318.4863,188.25,306.4863,200.25,294.4863" style="stroke:#A80036;stroke-width:1.5;"/><text fill="#000000" font-family="sans-serif" font-size="12" lengthAdjust="spacing" textLength="145" x="43.25" y="303.9551">[Task Status is Not Done]</text><text fill="#000000" font-family="sans-serif" font-size="12" lengthAdjust="spacing" textLength="31" x="212.25" y="303.9551">[else]</text><rect fill="#FEFECE" filter="url(#f14la12j4e7soc)" height="37.666" rx="12.5" ry="12.5" style="stroke:#A80036;stroke-width:1.5;" width="182" x="12" y="328.4863"/><text fill="#000000" font-family="sans-serif" font-size="15" lengthAdjust="spacing" textLength="162" x="22" y="352.9883">Update to Status Done</text><rect fill="#FEFECE" filter="url(#f14la12j4e7soc)" height="37.666" rx="12.5" ry="12.5" style="stroke:#A80036;stroke-width:1.5;" width="177" x="14.5" y="386.1523"/><text fill="#000000" font-family="sans-serif" font-size="15" lengthAdjust="spacing" textLength="157" x="24.5" y="410.6543">Save task information</text><rect fill="#FEFECE" filter="url(#f14la12j4e7soc)" height="37.666" rx="12.5" ry="12.5" style="stroke:#A80036;stroke-width:1.5;" width="184" x="11" y="443.8184"/><text fill="#000000" font-family="sans-serif" font-size="15" lengthAdjust="spacing" textLength="164" x="21" y="468.3203">Show updated task list</text><rect fill="#FEFECE" filter="url(#f14la12j4e7soc)" height="37.666" rx="12.5" ry="12.5" style="stroke:#A80036;stroke-width:1.5;" width="165" x="215" y="328.4863"/><text fill="#000000" font-family="sans-serif" font-size="15" lengthAdjust="spacing" textLength="145" x="225" y="352.9883">Show Error Message</text><polygon fill="#FEFECE" filter="url(#f14la12j4e7soc)" points="200.25,487.4844,212.25,499.4844,200.25,511.4844,188.25,499.4844,200.25,487.4844" style="stroke:#A80036;stroke-width:1.5;"/><rect fill="#FEFECE" filter="url(#f14la12j4e7soc)" height="37.666" rx="12.5" ry="12.5" style="stroke:#A80036;stroke-width:1.5;" width="165" x="410" y="236.8203"/><text fill="#000000" font-family="sans-serif" font-size="15" lengthAdjust="spacing" textLength="145" x="420" y="261.3223">Show Error Message</text><polygon fill="#FEFECE" filter="url(#f14la12j4e7soc)" points="346.375,517.4844,358.375,529.4844,346.375,541.4844,334.375,529.4844,346.375,517.4844" style="stroke:#A80036;stroke-width:1.5;"/><ellipse cx="346.375" cy="572.4844" fill="none" filter="url(#f14la12j4e7soc)" rx="11" ry="11" style="stroke:#000000;stroke-width:1.0;"/><ellipse cx="346.375" cy="572.4844" fill="#000000" rx="6" ry="6" style="stroke:#000000;stroke-width:1.0;"/><line style="stroke:#A80036;stroke-width:1.5;" x1="346.375" x2="346.375" y1="67.4883" y2="87.4883"/><polygon fill="#A80036" points="342.375,77.4883,346.375,87.4883,350.375,77.4883,346.375,81.4883" style="stroke:#A80036;stroke-width:1.0;"/><line style="stroke:#A80036;stroke-width:1.5;" x1="346.375" x2="346.375" y1="125.1543" y2="145.1543"/><polygon fill="#A80036" points="342.375,135.1543,346.375,145.1543,350.375,135.1543,346.375,139.1543" style="stroke:#A80036;stroke-width:1.0;"/><line style="stroke:#A80036;stroke-width:1.5;" x1="103" x2="103" y1="366.1523" y2="386.1523"/><polygon fill="#A80036" points="99,376.1523,103,386.1523,107,376.1523,103,380.1523" style="stroke:#A80036;stroke-width:1.0;"/><line style="stroke:#A80036;stroke-width:1.5;" x1="103" x2="103" y1="423.8184" y2="443.8184"/><polygon fill="#A80036" points="99,433.8184,103,443.8184,107,433.8184,103,437.8184" style="stroke:#A80036;stroke-width:1.0;"/><line style="stroke:#A80036;stroke-width:1.5;" x1="188.25" x2="103" y1="306.4863" y2="306.4863"/><line style="stroke:#A80036;stroke-width:1.5;" x1="103" x2="103" y1="306.4863" y2="328.4863"/><polygon fill="#A80036" points="99,318.4863,103,328.4863,107,318.4863,103,322.4863" style="stroke:#A80036;stroke-width:1.0;"/><line style="stroke:#A80036;stroke-width:1.5;" x1="212.25" x2="297.5" y1="306.4863" y2="306.4863"/><line style="stroke:#A80036;stroke-width:1.5;" x1="297.5" x2="297.5" y1="306.4863" y2="328.4863"/><polygon fill="#A80036" points="293.5,318.4863,297.5,328.4863,301.5,318.4863,297.5,322.4863" style="stroke:#A80036;stroke-width:1.0;"/><line style="stroke:#A80036;stroke-width:1.5;" x1="103" x2="103" y1="481.4844" y2="499.4844"/><line style="stroke:#A80036;stroke-width:1.5;" x1="103" x2="188.25" y1="499.4844" y2="499.4844"/><polygon fill="#A80036" points="178.25,495.4844,188.25,499.4844,178.25,503.4844,182.25,499.4844" style="stroke:#A80036;stroke-width:1.0;"/><line style="stroke:#A80036;stroke-width:1.5;" x1="297.5" x2="297.5" y1="366.1523" y2="499.4844"/><line style="stroke:#A80036;stroke-width:1.5;" x1="297.5" x2="212.25" y1="499.4844" y2="499.4844"/><polygon fill="#A80036" points="222.25,495.4844,212.25,499.4844,222.25,503.4844,218.25,499.4844" style="stroke:#A80036;stroke-width:1.0;"/><line style="stroke:#A80036;stroke-width:1.5;" x1="200.25" x2="200.25" y1="274.4863" y2="294.4863"/><polygon fill="#A80036" points="196.25,284.4863,200.25,294.4863,204.25,284.4863,200.25,288.4863" style="stroke:#A80036;stroke-width:1.0;"/><line style="stroke:#A80036;stroke-width:1.5;" x1="334.375" x2="200.25" y1="214.8203" y2="214.8203"/><line style="stroke:#A80036;stroke-width:1.5;" x1="200.25" x2="200.25" y1="214.8203" y2="236.8203"/><polygon fill="#A80036" points="196.25,226.8203,200.25,236.8203,204.25,226.8203,200.25,230.8203" style="stroke:#A80036;stroke-width:1.0;"/><line style="stroke:#A80036;stroke-width:1.5;" x1="358.375" x2="492.5" y1="214.8203" y2="214.8203"/><line style="stroke:#A80036;stroke-width:1.5;" x1="492.5" x2="492.5" y1="214.8203" y2="236.8203"/><polygon fill="#A80036" points="488.5,226.8203,492.5,236.8203,496.5,226.8203,492.5,230.8203" style="stroke:#A80036;stroke-width:1.0;"/><line style="stroke:#A80036;stroke-width:1.5;" x1="200.25" x2="200.25" y1="511.4844" y2="529.4844"/><line style="stroke:#A80036;stroke-width:1.5;" x1="200.25" x2="334.375" y1="529.4844" y2="529.4844"/><polygon fill="#A80036" points="324.375,525.4844,334.375,529.4844,324.375,533.4844,328.375,529.4844" style="stroke:#A80036;stroke-width:1.0;"/><line style="stroke:#A80036;stroke-width:1.5;" x1="492.5" x2="492.5" y1="274.4863" y2="529.4844"/><line style="stroke:#A80036;stroke-width:1.5;" x1="492.5" x2="358.375" y1="529.4844" y2="529.4844"/><polygon fill="#A80036" points="368.375,525.4844,358.375,529.4844,368.375,533.4844,364.375,529.4844" style="stroke:#A80036;stroke-width:1.0;"/><line style="stroke:#A80036;stroke-width:1.5;" x1="346.375" x2="346.375" y1="182.8203" y2="202.8203"/><polygon fill="#A80036" points="342.375,192.8203,346.375,202.8203,350.375,192.8203,346.375,196.8203" style="stroke:#A80036;stroke-width:1.0;"/><line style="stroke:#A80036;stroke-width:1.5;" x1="346.375" x2="346.375" y1="541.4844" y2="561.4844"/><polygon fill="#A80036" points="342.375,551.4844,346.375,561.4844,350.375,551.4844,346.375,555.4844" style="stroke:#A80036;stroke-width:1.0;"/><!--SRC=[RP7DJiD038Jl-nI-qLwGYiIbGKX8_9pWKdf2I3LPjxMQhAErqxGyFPjDeP5ABXlbcnbFlBhZ056KdAQt1YFMy50QxzcEpn9imTy4izinZL6wCxfnpjWgWhjIAedpJQJZ_L_479PA4UX0PMkaK4fTO_2mgZ7ktb5tC5ivfuRHtFo532fK0zrA5y1wNB5QCQ0ixzYsmC7J0MQ5SrSB3YM1RGc-o13q60mFu2ND2fAIsgQHQD1KM7BOP64fmREn193Mb7sskolFM2S27MKr0HkWPeV5DkL736K_MutGNpl7QvXCUnvWyf7BiS9Qsk0_fmxISswzCBHMY_prqZRGtlsMAZzAe5D03bas7Yrra5zTBoZEV85x6dR5OIsnnlxNnZmj4zeSuiSxxI5LIgb5Vun7PijJkkS8hwIAczCyIejRkqlJluP1h2QD-m40]--></g></svg>