<?xml version="1.0" encoding="us-ascii" standalone="no"?><svg xmlns="http://www.w3.org/2000/svg" xmlns:xlink="http://www.w3.org/1999/xlink" contentStyleType="text/css" height="412px" preserveAspectRatio="none" style="width:926px;height:412px;background:#FFFFFF;" version="1.1" viewBox="0 0 926 412" width="926.4px" zoomAndPan="magnify"><defs/><g><rect fill="#C8C8FA" height="404.6336" style="stroke:#181818;stroke-width:0.20000000000000004;" width="591.2" x="37.6" y="2.4"/><text fill="#FFFFFF" font-family="sans-serif" font-size="5.2" font-weight="bold" lengthAdjust="spacing" textLength="14.4" x="325.2" y="7.4273">Logic</text><rect fill="#F97181" height="404.6336" style="stroke:#181818;stroke-width:0.20000000000000004;" width="294.6" x="629.6" y="2.4"/><text fill="#FFFFFF" font-family="sans-serif" font-size="5.2" font-weight="bold" lengthAdjust="spacing" textLength="16.4" x="767.9" y="7.4273">Model</text><rect fill="#FFFFFF" height="361.3898" style="stroke:#181818;stroke-width:0.4000000000000001;" width="4" x="64" y="35.2438"/><rect fill="#FFFFFF" height="119.607" style="stroke:#181818;stroke-width:0.4000000000000001;" width="4" x="151.6" y="46.968"/><rect fill="#FFFFFF" height="6.4711" style="stroke:#181818;stroke-width:0.4000000000000001;" width="4" x="275.2" y="62.6922"/><rect fill="#FFFFFF" height="68.3633" style="stroke:#181818;stroke-width:0.4000000000000001;" width="4" x="275.2" y="80.8875"/><rect fill="#FFFFFF" height="12.5953" style="stroke:#181818;stroke-width:0.4000000000000001;" width="4" x="350" y="96.6117"/><rect fill="#FFFFFF" height="12.5953" style="stroke:#181818;stroke-width:0.4000000000000001;" width="4" x="420" y="124.9313"/><rect fill="#FFFFFF" height="206.6102" style="stroke:#181818;stroke-width:0.4000000000000001;" width="4" x="420" y="178.2992"/><rect fill="#FFFFFF" height="16.1242" style="stroke:#181818;stroke-width:0.4000000000000001;" width="4" x="422" y="216.6719"/><rect fill="#FFFFFF" height="12.5953" style="stroke:#181818;stroke-width:0.4000000000000001;" width="4" x="590.8" y="360.5898"/><rect fill="#FFFFFF" height="11.7242" style="stroke:#181818;stroke-width:0.4000000000000001;" width="4" x="646" y="190.0234"/><rect fill="#FFFFFF" height="97.5453" style="stroke:#181818;stroke-width:0.4000000000000001;" width="4" x="646" y="247.3203"/><rect fill="#FFFFFF" height="44.6484" style="stroke:#181818;stroke-width:0.4000000000000001;" width="4" x="648" y="285.693"/><rect fill="#FFFFFF" height="11.7242" style="stroke:#181818;stroke-width:0.4000000000000001;" width="4" x="738.8" y="259.0445"/><rect fill="#FFFFFF" height="22.9242" style="stroke:#181818;stroke-width:0.4000000000000001;" width="4" x="797.4" y="299.4172"/><rect fill="#FFFFFF" height="5.6" style="stroke:#181818;stroke-width:0.4000000000000001;" width="4" x="892.2" y="311.1414"/><line style="stroke:#181818;stroke-width:0.20000000000000004;stroke-dasharray:5.0,5.0;" x1="66" x2="66" y1="22.7195" y2="409.4336"/><line style="stroke:#181818;stroke-width:0.20000000000000004;stroke-dasharray:5.0,5.0;" x1="153.4" x2="153.4" y1="22.7195" y2="409.4336"/><line style="stroke:#181818;stroke-width:0.20000000000000004;stroke-dasharray:5.0,5.0;" x1="277.2" x2="277.2" y1="62.4656" y2="409.4336"/><line style="stroke:#181818;stroke-width:0.20000000000000004;stroke-dasharray:5.0,5.0;" x1="352" x2="352" y1="96.3852" y2="409.4336"/><line style="stroke:#181818;stroke-width:0.20000000000000004;stroke-dasharray:5.0,5.0;" x1="422" x2="422" y1="124.7047" y2="409.4336"/><line style="stroke:#181818;stroke-width:0.20000000000000004;stroke-dasharray:5.0,5.0;" x1="592.8" x2="592.8" y1="360.3633" y2="409.4336"/><line style="stroke:#181818;stroke-width:0.20000000000000004;stroke-dasharray:5.0,5.0;" x1="648" x2="648" y1="22.7195" y2="409.4336"/><line style="stroke:#181818;stroke-width:0.20000000000000004;stroke-dasharray:5.0,5.0;" x1="740.6" x2="740.6" y1="22.7195" y2="409.4336"/><line style="stroke:#181818;stroke-width:0.20000000000000004;stroke-dasharray:5.0,5.0;" x1="799.4" x2="799.4" y1="22.7195" y2="409.4336"/><line style="stroke:#181818;stroke-width:0.20000000000000004;stroke-dasharray:5.0,5.0;" x1="894.2" x2="894.2" y1="22.7195" y2="409.4336"/><rect fill="#3333C4" height="12.1953" rx="1" ry="1" style="stroke:#181818;stroke-width:0.20000000000000004;" width="45.6" x="43.2" y="10.1242"/><text fill="#FFFFFF" font-family="sans-serif" font-size="5.6" lengthAdjust="spacing" textLength="40" x="46" y="18.3383">:LogicManager</text><rect fill="#3333C4" height="12.1953" rx="1" ry="1" style="stroke:#181818;stroke-width:0.20000000000000004;" width="60.4" x="123.4" y="10.1242"/><text fill="#FFFFFF" font-family="sans-serif" font-size="5.6" lengthAdjust="spacing" textLength="54.8" x="126.2" y="18.3383">:AddressBookParser</text><rect fill="#9D0012" height="12.1953" rx="1" ry="1" style="stroke:#181818;stroke-width:0.20000000000000004;" width="25.6" x="635.2" y="10.1242"/><text fill="#FFFFFF" font-family="sans-serif" font-size="5.6" lengthAdjust="spacing" textLength="18.4" x="638.8" y="18.3383">:Model</text><rect fill="#9D0012" height="12.1953" rx="1" ry="1" style="stroke:#181818;stroke-width:0.20000000000000004;" width="50" x="715.8" y="10.1242"/><text fill="#FFFFFF" font-family="sans-serif" font-size="5.6" lengthAdjust="spacing" textLength="44.4" x="718.6" y="18.3383">editedTask:Task</text><rect fill="#9D0012" height="12.1953" rx="1" ry="1" style="stroke:#181818;stroke-width:0.20000000000000004;" width="43.2" x="777.8" y="10.1242"/><text fill="#FFFFFF" font-family="sans-serif" font-size="5.6" lengthAdjust="spacing" textLength="37.6" x="780.6" y="18.3383">:AddressBook</text><rect fill="#9D0012" height="12.1953" rx="1" ry="1" style="stroke:#181818;stroke-width:0.20000000000000004;" width="48.8" x="869.8" y="10.1242"/><text fill="#FFFFFF" font-family="sans-serif" font-size="5.6" lengthAdjust="spacing" textLength="43.2" x="872.6" y="18.3383">:UniqueTaskList</text><rect fill="#FFFFFF" height="361.3898" style="stroke:#181818;stroke-width:0.4000000000000001;" width="4" x="64" y="35.2438"/><rect fill="#FFFFFF" height="119.607" style="stroke:#181818;stroke-width:0.4000000000000001;" width="4" x="151.6" y="46.968"/><rect fill="#FFFFFF" height="6.4711" style="stroke:#181818;stroke-width:0.4000000000000001;" width="4" x="275.2" y="62.6922"/><rect fill="#FFFFFF" height="68.3633" style="stroke:#181818;stroke-width:0.4000000000000001;" width="4" x="275.2" y="80.8875"/><rect fill="#FFFFFF" height="12.5953" style="stroke:#181818;stroke-width:0.4000000000000001;" width="4" x="350" y="96.6117"/><rect fill="#FFFFFF" height="12.5953" style="stroke:#181818;stroke-width:0.4000000000000001;" width="4" x="420" y="124.9313"/><rect fill="#FFFFFF" height="206.6102" style="stroke:#181818;stroke-width:0.4000000000000001;" width="4" x="420" y="178.2992"/><rect fill="#FFFFFF" height="16.1242" style="stroke:#181818;stroke-width:0.4000000000000001;" width="4" x="422" y="216.6719"/><rect fill="#FFFFFF" height="12.5953" style="stroke:#181818;stroke-width:0.4000000000000001;" width="4" x="590.8" y="360.5898"/><rect fill="#FFFFFF" height="11.7242" style="stroke:#181818;stroke-width:0.4000000000000001;" width="4" x="646" y="190.0234"/><rect fill="#FFFFFF" height="97.5453" style="stroke:#181818;stroke-width:0.4000000000000001;" width="4" x="646" y="247.3203"/><rect fill="#FFFFFF" height="44.6484" style="stroke:#181818;stroke-width:0.4000000000000001;" width="4" x="648" y="285.693"/><rect fill="#FFFFFF" height="11.7242" style="stroke:#181818;stroke-width:0.4000000000000001;" width="4" x="738.8" y="259.0445"/><rect fill="#FFFFFF" height="22.9242" style="stroke:#181818;stroke-width:0.4000000000000001;" width="4" x="797.4" y="299.4172"/><rect fill="#FFFFFF" height="5.6" style="stroke:#181818;stroke-width:0.4000000000000001;" width="4" x="892.2" y="311.1414"/><polygon fill="#181818" points="59.2,33.6438,63.2,35.2438,59.2,36.8438,60.8,35.2438" style="stroke:#181818;stroke-width:0.4000000000000001;"/><line style="stroke:#181818;stroke-width:0.4000000000000001;" x1="0" x2="61.6" y1="35.2438" y2="35.2438"/><text fill="#000000" font-family="sans-serif" font-size="5.2" lengthAdjust="spacing" textLength="56.4" x="3.8" y="33.3469">execute("markTask 1")</text><polygon fill="#181818" points="146.8,45.368,150.8,46.968,146.8,48.568,148.4,46.968" style="stroke:#181818;stroke-width:0.4000000000000001;"/><line style="stroke:#181818;stroke-width:0.4000000000000001;" x1="68" x2="149.2" y1="46.968" y2="46.968"/><text fill="#000000" font-family="sans-serif" font-size="5.2" lengthAdjust="spacing" textLength="76" x="71.8" y="45.0711">parseCommand("markTask 1")</text><polygon fill="#181818" points="232.8,57.0922,236.8,58.6922,232.8,60.2922,234.4,58.6922" style="stroke:#181818;stroke-width:0.4000000000000001;"/><line style="stroke:#181818;stroke-width:0.4000000000000001;" x1="155.6" x2="235.2" y1="58.6922" y2="58.6922"/><text fill="#000000" font-family="sans-serif" font-size="5.2" lengthAdjust="spacing" textLength="68.4" x="162.4" y="56.7953">MarkTaskCommandParser()</text><rect fill="#3333C4" height="12.1953" rx="1" ry="1" style="stroke:#181818;stroke-width:0.20000000000000004;" width="79.2" x="237.6" y="50.168"/><text fill="#FFFFFF" font-family="sans-serif" font-size="5.6" lengthAdjust="spacing" textLength="73.6" x="240.4" y="58.382">:MarkTaskCommandParser</text><polygon fill="#181818" points="160,67.5633,156,69.1633,160,70.7633,158.4,69.1633" style="stroke:#181818;stroke-width:0.4000000000000001;"/><line style="stroke:#181818;stroke-width:0.4000000000000001;stroke-dasharray:2.0,2.0;" x1="157.6" x2="276.8" y1="69.1633" y2="69.1633"/><polygon fill="#181818" points="270.4,79.2875,274.4,80.8875,270.4,82.4875,272,80.8875" style="stroke:#181818;stroke-width:0.4000000000000001;"/><line style="stroke:#181818;stroke-width:0.4000000000000001;" x1="155.6" x2="272.8" y1="80.8875" y2="80.8875"/><text fill="#000000" font-family="sans-serif" font-size="5.2" lengthAdjust="spacing" textLength="24" x="203.4" y="78.9906">parse("1")</text><polygon fill="#181818" points="326,91.0117,330,92.6117,326,94.2117,327.6,92.6117" style="stroke:#181818;stroke-width:0.4000000000000001;"/><line style="stroke:#181818;stroke-width:0.4000000000000001;" x1="279.2" x2="328.4" y1="92.6117" y2="92.6117"/><text fill="#000000" font-family="sans-serif" font-size="5.2" lengthAdjust="spacing" textLength="38" x="286" y="90.7148">parseIndex("1")</text><rect fill="#3333C4" height="12.1953" rx="1" ry="1" style="stroke:#181818;stroke-width:0.20000000000000004;" width="42.4" x="330.8" y="84.0875"/><text fill="#FFFFFF" font-family="sans-serif" font-size="5.6" lengthAdjust="spacing" textLength="36.8" x="333.6" y="92.3016">idx:ParserUtil</text><polygon fill="#181818" points="283.6,107.607,279.6,109.207,283.6,110.807,282,109.207" style="stroke:#181818;stroke-width:0.4000000000000001;"/><line style="stroke:#181818;stroke-width:0.4000000000000001;stroke-dasharray:2.0,2.0;" x1="281.2" x2="351.6" y1="109.207" y2="109.207"/><text fill="#000000" font-family="sans-serif" font-size="5.2" lengthAdjust="spacing" textLength="8" x="311.6" y="107.3102">idx</text><polygon fill="#181818" points="380.4,119.3313,384.4,120.9313,380.4,122.5313,382,120.9313" style="stroke:#181818;stroke-width:0.4000000000000001;"/><line style="stroke:#181818;stroke-width:0.4000000000000001;" x1="279.2" x2="382.8" y1="120.9313" y2="120.9313"/><text fill="#000000" font-family="sans-serif" font-size="5.2" lengthAdjust="spacing" textLength="61.2" x="301.6" y="119.0344">MarkTaskCommand(idx)</text><rect fill="#3333C4" height="12.1953" rx="1" ry="1" style="stroke:#181818;stroke-width:0.20000000000000004;" width="73.6" x="385.2" y="112.407"/><text fill="#FFFFFF" font-family="sans-serif" font-size="5.6" lengthAdjust="spacing" textLength="68" x="388" y="120.6211">cmd:MarkTaskCommand</text><polygon fill="#181818" points="283.6,135.9266,279.6,137.5266,283.6,139.1266,282,137.5266" style="stroke:#181818;stroke-width:0.4000000000000001;"/><line style="stroke:#181818;stroke-width:0.4000000000000001;stroke-dasharray:2.0,2.0;" x1="281.2" x2="421.6" y1="137.5266" y2="137.5266"/><text fill="#000000" font-family="sans-serif" font-size="5.2" lengthAdjust="spacing" textLength="10.8" x="345.2" y="135.6297">cmd</text><polygon fill="#181818" points="160,147.6508,156,149.2508,160,150.8508,158.4,149.2508" style="stroke:#181818;stroke-width:0.4000000000000001;"/><line style="stroke:#181818;stroke-width:0.4000000000000001;stroke-dasharray:2.0,2.0;" x1="157.6" x2="276.8" y1="149.2508" y2="149.2508"/><text fill="#000000" font-family="sans-serif" font-size="5.2" lengthAdjust="spacing" textLength="10.8" x="211" y="147.3539">cmd</text><line style="stroke:#A80036;stroke-width:0.8000000000000002;" x1="273.6" x2="280.8" y1="151.2508" y2="158.4508"/><line style="stroke:#A80036;stroke-width:0.8000000000000002;" x1="273.6" x2="280.8" y1="158.4508" y2="151.2508"/><polygon fill="#181818" points="72.4,164.975,68.4,166.575,72.4,168.175,70.8,166.575" style="stroke:#181818;stroke-width:0.4000000000000001;"/><line style="stroke:#181818;stroke-width:0.4000000000000001;stroke-dasharray:2.0,2.0;" x1="70" x2="153.2" y1="166.575" y2="166.575"/><text fill="#000000" font-family="sans-serif" font-size="5.2" lengthAdjust="spacing" textLength="10.8" x="105.4" y="164.6781">cmd</text><polygon fill="#181818" points="415.2,176.6992,419.2,178.2992,415.2,179.8992,416.8,178.2992" style="stroke:#181818;stroke-width:0.4000000000000001;"/><line style="stroke:#181818;stroke-width:0.4000000000000001;" x1="68" x2="417.6" y1="178.2992" y2="178.2992"/><text fill="#000000" font-family="sans-serif" font-size="5.2" lengthAdjust="spacing" textLength="22.8" x="232.6" y="176.4023">execute()</text><polygon fill="#181818" points="641.2,188.4234,645.2,190.0234,641.2,191.6234,642.8,190.0234" style="stroke:#181818;stroke-width:0.4000000000000001;"/><line style="stroke:#181818;stroke-width:0.4000000000000001;" x1="424" x2="643.6" y1="190.0234" y2="190.0234"/><text fill="#000000" font-family="sans-serif" font-size="5.2" lengthAdjust="spacing" textLength="51.2" x="509.4" y="188.1266">getFilteredTaskList()</text><polygon fill="#181818" points="428.4,200.1477,424.4,201.7477,428.4,203.3477,426.8,201.7477" style="stroke:#181818;stroke-width:0.4000000000000001;"/><line style="stroke:#181818;stroke-width:0.4000000000000001;stroke-dasharray:2.0,2.0;" x1="426" x2="647.6" y1="201.7477" y2="201.7477"/><text fill="#000000" font-family="sans-serif" font-size="5.2" lengthAdjust="spacing" textLength="34.8" x="518.6" y="199.8508">lastShownList</text><line style="stroke:#181818;stroke-width:0.4000000000000001;" x1="424" x2="442.8" y1="211.4719" y2="211.4719"/><line style="stroke:#181818;stroke-width:0.4000000000000001;" x1="442.8" x2="442.8" y1="211.4719" y2="216.6719"/><line style="stroke:#181818;stroke-width:0.4000000000000001;" x1="426.4" x2="442.8" y1="216.6719" y2="216.6719"/><polygon fill="#181818" points="430.4,215.0719,426.4,216.6719,430.4,218.2719,428.8,216.6719" style="stroke:#181818;stroke-width:0.4000000000000001;"/><text fill="#000000" font-family="sans-serif" font-size="5.2" lengthAdjust="spacing" textLength="55.6" x="428.8" y="209.575">lastShownList.get(idx)</text><line style="stroke:#181818;stroke-width:0.4000000000000001;stroke-dasharray:2.0,2.0;" x1="426" x2="442.8" y1="232.3961" y2="232.3961"/><line style="stroke:#181818;stroke-width:0.4000000000000001;stroke-dasharray:2.0,2.0;" x1="442.8" x2="442.8" y1="232.3961" y2="237.5961"/><line style="stroke:#181818;stroke-width:0.4000000000000001;stroke-dasharray:2.0,2.0;" x1="424" x2="442.8" y1="237.5961" y2="237.5961"/><polygon fill="#181818" points="428,235.9961,424,237.5961,428,239.1961,426.4,237.5961" style="stroke:#181818;stroke-width:0.4000000000000001;"/><text fill="#000000" font-family="sans-serif" font-size="5.2" lengthAdjust="spacing" textLength="29.6" x="428.8" y="230.4992">taskToMark</text><polygon fill="#181818" points="641.2,245.7203,645.2,247.3203,641.2,248.9203,642.8,247.3203" style="stroke:#181818;stroke-width:0.4000000000000001;"/><line style="stroke:#181818;stroke-width:0.4000000000000001;" x1="424" x2="643.6" y1="247.3203" y2="247.3203"/><text fill="#000000" font-family="sans-serif" font-size="5.2" lengthAdjust="spacing" textLength="57.6" x="506.2" y="245.4234">markTask(taskToMark)</text><polygon fill="#181818" points="734,257.4445,738,259.0445,734,260.6445,735.6,259.0445" style="stroke:#181818;stroke-width:0.4000000000000001;"/><line style="stroke:#181818;stroke-width:0.4000000000000001;" x1="650" x2="736.4" y1="259.0445" y2="259.0445"/><text fill="#000000" font-family="sans-serif" font-size="5.2" lengthAdjust="spacing" textLength="29.2" x="679.8" y="257.1477">markDone()</text><polygon fill="#181818" points="654.4,269.1688,650.4,270.7688,654.4,272.3688,652.8,270.7688" style="stroke:#181818;stroke-width:0.4000000000000001;"/><line style="stroke:#181818;stroke-width:0.4000000000000001;stroke-dasharray:2.0,2.0;" x1="652" x2="740.4" y1="270.7688" y2="270.7688"/><text fill="#000000" font-family="sans-serif" font-size="5.2" lengthAdjust="spacing" textLength="27.6" x="681.6" y="268.8719">editedTask</text><line style="stroke:#181818;stroke-width:0.4000000000000001;" x1="650" x2="668.8" y1="280.493" y2="280.493"/><line style="stroke:#181818;stroke-width:0.4000000000000001;" x1="668.8" x2="668.8" y1="280.493" y2="285.693"/><line style="stroke:#181818;stroke-width:0.4000000000000001;" x1="652.4" x2="668.8" y1="285.693" y2="285.693"/><polygon fill="#181818" points="656.4,284.093,652.4,285.693,656.4,287.293,654.8,285.693" style="stroke:#181818;stroke-width:0.4000000000000001;"/><text fill="#000000" font-family="sans-serif" font-size="5.2" lengthAdjust="spacing" textLength="83.2" x="654.8" y="278.5961">setTask(taskToMark, editedTask)</text><polygon fill="#181818" points="792.6,297.8172,796.6,299.4172,792.6,301.0172,794.2,299.4172" style="stroke:#181818;stroke-width:0.4000000000000001;"/><line style="stroke:#181818;stroke-width:0.4000000000000001;" x1="652" x2="795" y1="299.4172" y2="299.4172"/><text fill="#000000" font-family="sans-serif" font-size="5.2" lengthAdjust="spacing" textLength="83.2" x="683.1" y="297.5203">setTask(taskToMark, editedTask)</text><polygon fill="#181818" points="887.4,309.5414,891.4,311.1414,887.4,312.7414,889,311.1414" style="stroke:#181818;stroke-width:0.4000000000000001;"/><line style="stroke:#181818;stroke-width:0.4000000000000001;" x1="801.4" x2="889.8" y1="311.1414" y2="311.1414"/><text fill="#000000" font-family="sans-serif" font-size="5.2" lengthAdjust="spacing" textLength="83.2" x="805.2" y="309.2445">setTask(taskToMark, editedTask)</text><polygon fill="#181818" points="805.8,315.1414,801.8,316.7414,805.8,318.3414,804.2,316.7414" style="stroke:#181818;stroke-width:0.4000000000000001;"/><line style="stroke:#181818;stroke-width:0.4000000000000001;stroke-dasharray:2.0,2.0;" x1="803.4" x2="893.8" y1="316.7414" y2="316.7414"/><polygon fill="#181818" points="656.4,320.7414,652.4,322.3414,656.4,323.9414,654.8,322.3414" style="stroke:#181818;stroke-width:0.4000000000000001;"/><line style="stroke:#181818;stroke-width:0.4000000000000001;stroke-dasharray:2.0,2.0;" x1="654" x2="799" y1="322.3414" y2="322.3414"/><line style="stroke:#181818;stroke-width:0.4000000000000001;stroke-dasharray:2.0,2.0;" x1="652" x2="668.8" y1="329.9414" y2="329.9414"/><line style="stroke:#181818;stroke-width:0.4000000000000001;stroke-dasharray:2.0,2.0;" x1="668.8" x2="668.8" y1="329.9414" y2="335.1414"/><line style="stroke:#181818;stroke-width:0.4000000000000001;stroke-dasharray:2.0,2.0;" x1="650" x2="668.8" y1="335.1414" y2="335.1414"/><polygon fill="#181818" points="654,333.5414,650,335.1414,654,336.7414,652.4,335.1414" style="stroke:#181818;stroke-width:0.4000000000000001;"/><polygon fill="#181818" points="428.4,343.2656,424.4,344.8656,428.4,346.4656,426.8,344.8656" style="stroke:#181818;stroke-width:0.4000000000000001;"/><line style="stroke:#181818;stroke-width:0.4000000000000001;stroke-dasharray:2.0,2.0;" x1="426" x2="647.6" y1="344.8656" y2="344.8656"/><text fill="#000000" font-family="sans-serif" font-size="5.2" lengthAdjust="spacing" textLength="27.6" x="522.2" y="342.9688">editedTask</text><polygon fill="#181818" points="557.6,354.9898,561.6,356.5898,557.6,358.1898,559.2,356.5898" style="stroke:#181818;stroke-width:0.4000000000000001;"/><line style="stroke:#181818;stroke-width:0.4000000000000001;" x1="424" x2="560" y1="356.5898" y2="356.5898"/><text fill="#000000" font-family="sans-serif" font-size="5.2" lengthAdjust="spacing" textLength="124.8" x="430.8" y="354.693">CommandResult(MESSAGE_MARK_TASK_SUCCESS)</text><rect fill="#3333C4" height="12.1953" rx="1" ry="1" style="stroke:#181818;stroke-width:0.20000000000000004;" width="60.8" x="562.4" y="348.0656"/><text fill="#FFFFFF" font-family="sans-serif" font-size="5.6" lengthAdjust="spacing" textLength="55.2" x="565.2" y="356.2797">res:CommandResult</text><polygon fill="#181818" points="428.4,371.5852,424.4,373.1852,428.4,374.7852,426.8,373.1852" style="stroke:#181818;stroke-width:0.4000000000000001;"/><line style="stroke:#181818;stroke-width:0.4000000000000001;stroke-dasharray:2.0,2.0;" x1="426" x2="592.4" y1="373.1852" y2="373.1852"/><text fill="#000000" font-family="sans-serif" font-size="5.2" lengthAdjust="spacing" textLength="7.6" x="504.6" y="371.2883">res</text><polygon fill="#181818" points="72.4,383.3094,68.4,384.9094,72.4,386.5094,70.8,384.9094" style="stroke:#181818;stroke-width:0.4000000000000001;"/><line style="stroke:#181818;stroke-width:0.4000000000000001;stroke-dasharray:2.0,2.0;" x1="70" x2="421.6" y1="384.9094" y2="384.9094"/><text fill="#000000" font-family="sans-serif" font-size="5.2" lengthAdjust="spacing" textLength="7.6" x="241.2" y="383.0125">res</text><polygon fill="#181818" points="4.4,395.0336,0.4,396.6336,4.4,398.2336,2.8,396.6336" style="stroke:#181818;stroke-width:0.4000000000000001;"/><line style="stroke:#181818;stroke-width:0.4000000000000001;stroke-dasharray:2.0,2.0;" x1="2" x2="65.6" y1="396.6336" y2="396.6336"/><text fill="#000000" font-family="sans-serif" font-size="5.2" lengthAdjust="spacing" textLength="7.6" x="29.2" y="394.7367">res</text><line style="stroke:#A80036;stroke-width:0.8000000000000002;" x1="348.4" x2="355.6" y1="398.6336" y2="405.8336"/><line style="stroke:#A80036;stroke-width:0.8000000000000002;" x1="348.4" x2="355.6" y1="405.8336" y2="398.6336"/><line style="stroke:#A80036;stroke-width:0.8000000000000002;" x1="418.4" x2="425.6" y1="398.6336" y2="405.8336"/><line style="stroke:#A80036;stroke-width:0.8000000000000002;" x1="418.4" x2="425.6" y1="405.8336" y2="398.6336"/><!--SRC=[hLRVRzem47xtN-7nKYOjbVeQJKYKqgugYAd04vgGYM-jHR1PR5Rwty_EZs8xTYZINgB4lk-xytrtvtnXFCiF5B1KxpbSxm-x7CajutjIa1qU5eLuknTSpSqktkU4SOGsueWdueLbU39xU1ojHxF9x7czk44Qf5Z6zeGht4jBaodXv0MA7YOIsmisrCCDAIr0obiXjZz98MjmQxM3OKgAxOB8xKZiTeHJYoMu4sTYz9XMDal5yfBXz1c7PJlgnn3o7YVG9qrhesUGXroLS6V50OCcqwfKqam5XHnFPtVZIKoQqgGAoJTsBO4o1TJ4d9f72J4lSOGjdozS1sh9sPy36Ee9azLntIK7-t7ULJ9mooh5S8JieA3VszNPnZUzhuXaYlqb2XnhX1oivcfNMOhtvgNEVOorXKCeAy3i12iEjVrev-7YJCFhVSjxs0SAyoMXOo8AvzWk2hdCMR_dv2Z2M-Vfr5Unk0TsxzKk7Zc5e-V7Oa8M8ka8L_UvdG6R8InZF4Q_nrlozRMpU5PQgdN6hGTDXt8NLS1PjaQlgn-CKk2OcBi1Au7tGZB51CVg5J05gGhnZasRQD8DvCP8RvYM5R_Brzg3WMn8SHsBSlLQEleLgTVAp-UBjJqflFC6UjWV3srncsbpaQA3Ukoc-0NKFSiL5DMGDOFEeJ9ccg2qJe81v4Ig-QjuumRho5TXhnv0OMK6bfRAg18CfvlsMeTvfcm_KRMQrSIn46RzahAr4zQCt_w9AfglGNbLLPWxmHsHp0ugvtZIi6inFsuxExpo-yHPsqfGNXpVB7n7JFPzU06D1NFAsr1wD-K5h2uI8O_9cnHsLdoa4rAJfaXxEHLT2HketAwg3ojL0-kHxVmkXMhA_PzAtU_-T3oV3n_6w-dm-Mcz6CwVrlFbQAGNhVIvBf1B68vSvy0EsMC8jP4tjJo2LlEilYT9DyJz1Vh_yzo-TAqXxhXjUAshDZBI_m40]--></g></svg>