<?xml version="1.0" encoding="us-ascii" standalone="no"?><svg xmlns="http://www.w3.org/2000/svg" xmlns:xlink="http://www.w3.org/1999/xlink" contentStyleType="text/css" height="251.3px" preserveAspectRatio="none" style="width:411px;height:251px;background:#FFFFFF;" version="1.1" viewBox="0 0 411 251" width="411.6px" zoomAndPan="magnify"><defs/><g><rect fill="#FFFFFF" height="237.1886" style="stroke:#181818;stroke-width:1.0499999999999998;" width="403.9" x="3.5" y="10.5"/><path d="M175,10.5 L175,16.5484 L168,23.5484 L3.5,23.5484 " fill="none" style="stroke:#181818;stroke-width:1.0499999999999998;"/><text fill="#000000" font-family="sans-serif" font-size="9.8" font-weight="bold" lengthAdjust="spacing" textLength="11.9" x="5.6" y="20.0717">sd</text><text fill="#000000" font-family="sans-serif" font-size="9.8" lengthAdjust="spacing" textLength="149.8" x="20.3" y="20.0717">Add tag(s) to person in person list</text><rect fill="#F97181" height="201.8133" style="stroke:#181818;stroke-width:0.3499999999999999;" width="64.4" x="331.8" y="30.0269"/><text fill="#FFFFFF" font-family="sans-serif" font-size="9.1" font-weight="bold" lengthAdjust="spacing" textLength="27.3" x="348.95" y="38.2648">Model</text><rect fill="#FFFFFF" height="158.2984" style="stroke:#181818;stroke-width:0.6999999999999998;" width="7" x="78.4" y="71.4417"/><rect fill="#FFFFFF" height="27.6664" style="stroke:#181818;stroke-width:0.6999999999999998;" width="7" x="81.9" y="131.3409"/><rect fill="#FFFFFF" height="19.9664" style="stroke:#181818;stroke-width:0.6999999999999998;" width="7" x="360.5" y="85.8081"/><rect fill="#FFFFFF" height="9.8" style="stroke:#181818;stroke-width:0.6999999999999998;" width="7" x="360.5" y="183.8737"/><rect fill="#FFFFFF" height="9.8" style="stroke:#181818;stroke-width:0.6999999999999998;" width="7" x="360.5" y="213.6401"/><line style="stroke:#181818;stroke-width:0.3499999999999999;stroke-dasharray:5.0,5.0;" x1="81.9" x2="81.9" y1="64.4417" y2="236.0401"/><line style="stroke:#181818;stroke-width:0.3499999999999999;stroke-dasharray:5.0,5.0;" x1="364" x2="364" y1="64.4417" y2="236.0401"/><rect fill="#3333C4" height="20.7484" rx="1.75" ry="1.75" style="stroke:#181818;stroke-width:0.3499999999999999;" width="128.8" x="17.5" y="42.9933"/><text fill="#FFFFFF" font-family="sans-serif" font-size="9.8" lengthAdjust="spacing" textLength="119" x="22.4" y="56.7649">c:AddTagPersonCommand</text><rect fill="#9D0012" height="20.7484" rx="1.75" ry="1.75" style="stroke:#181818;stroke-width:0.3499999999999999;" width="44.8" x="341.6" y="42.9933"/><text fill="#FFFFFF" font-family="sans-serif" font-size="9.8" lengthAdjust="spacing" textLength="29.4" x="349.3" y="56.7649">:Model</text><rect fill="#FFFFFF" height="158.2984" style="stroke:#181818;stroke-width:0.6999999999999998;" width="7" x="78.4" y="71.4417"/><rect fill="#FFFFFF" height="27.6664" style="stroke:#181818;stroke-width:0.6999999999999998;" width="7" x="81.9" y="131.3409"/><rect fill="#FFFFFF" height="19.9664" style="stroke:#181818;stroke-width:0.6999999999999998;" width="7" x="360.5" y="85.8081"/><rect fill="#FFFFFF" height="9.8" style="stroke:#181818;stroke-width:0.6999999999999998;" width="7" x="360.5" y="183.8737"/><rect fill="#FFFFFF" height="9.8" style="stroke:#181818;stroke-width:0.6999999999999998;" width="7" x="360.5" y="213.6401"/><polygon fill="#181818" points="352.1,83.0081,359.1,85.8081,352.1,88.6081,354.9,85.8081" style="stroke:#181818;stroke-width:0.6999999999999998;"/><line style="stroke:#181818;stroke-width:0.6999999999999998;" x1="85.4" x2="356.3" y1="85.8081" y2="85.8081"/><text fill="#000000" font-family="sans-serif" font-size="9.1" lengthAdjust="spacing" textLength="91.7" x="177.1" y="82.4797">getFilteredPersonList()</text><polygon fill="#181818" points="93.1,102.9745,86.1,105.7745,93.1,108.5745,90.3,105.7745" style="stroke:#181818;stroke-width:0.6999999999999998;"/><line style="stroke:#181818;stroke-width:0.6999999999999998;stroke-dasharray:2.0,2.0;" x1="88.9" x2="363.3" y1="105.7745" y2="105.7745"/><text fill="#000000" font-family="sans-serif" font-size="9.1" lengthAdjust="spacing" textLength="85.4" x="182" y="102.4461">lastShownPersonList</text><line style="stroke:#181818;stroke-width:0.6999999999999998;" x1="85.4" x2="118.3" y1="122.2409" y2="122.2409"/><line style="stroke:#181818;stroke-width:0.6999999999999998;" x1="118.3" x2="118.3" y1="122.2409" y2="131.3409"/><line style="stroke:#181818;stroke-width:0.6999999999999998;" x1="89.6" x2="118.3" y1="131.3409" y2="131.3409"/><polygon fill="#181818" points="96.6,128.5409,89.6,131.3409,96.6,134.1409,93.8,131.3409" style="stroke:#181818;stroke-width:0.6999999999999998;"/><text fill="#000000" font-family="sans-serif" font-size="9.1" lengthAdjust="spacing" textLength="187.6" x="93.8" y="118.9125">createEditedPerson(personToEdit, tagsToAdd)</text><line style="stroke:#181818;stroke-width:0.6999999999999998;stroke-dasharray:2.0,2.0;" x1="88.9" x2="118.3" y1="158.3073" y2="158.3073"/><line style="stroke:#181818;stroke-width:0.6999999999999998;stroke-dasharray:2.0,2.0;" x1="118.3" x2="118.3" y1="158.3073" y2="167.4073"/><line style="stroke:#181818;stroke-width:0.6999999999999998;stroke-dasharray:2.0,2.0;" x1="85.4" x2="118.3" y1="167.4073" y2="167.4073"/><polygon fill="#181818" points="92.4,164.6073,85.4,167.4073,92.4,170.2073,89.6,167.4073" style="stroke:#181818;stroke-width:0.6999999999999998;"/><text fill="#000000" font-family="sans-serif" font-size="9.1" lengthAdjust="spacing" textLength="53.2" x="93.8" y="154.9789">editedPerson</text><polygon fill="#181818" points="352.1,181.0737,359.1,183.8737,352.1,186.6737,354.9,183.8737" style="stroke:#181818;stroke-width:0.6999999999999998;"/><line style="stroke:#181818;stroke-width:0.6999999999999998;" x1="85.4" x2="356.3" y1="183.8737" y2="183.8737"/><text fill="#000000" font-family="sans-serif" font-size="9.1" lengthAdjust="spacing" textLength="158.9" x="143.5" y="180.5453">setPerson(personToEdit, editedPerson)</text><polygon fill="#181818" points="93.1,190.8737,86.1,193.6737,93.1,196.4737,90.3,193.6737" style="stroke:#181818;stroke-width:0.6999999999999998;"/><line style="stroke:#181818;stroke-width:0.6999999999999998;stroke-dasharray:2.0,2.0;" x1="88.9" x2="363.3" y1="193.6737" y2="193.6737"/><polygon fill="#181818" points="352.1,210.8401,359.1,213.6401,352.1,216.4401,354.9,213.6401" style="stroke:#181818;stroke-width:0.6999999999999998;"/><line style="stroke:#181818;stroke-width:0.6999999999999998;" x1="85.4" x2="356.3" y1="213.6401" y2="213.6401"/><text fill="#000000" font-family="sans-serif" font-size="9.1" lengthAdjust="spacing" textLength="261.8" x="92.05" y="210.3117">updateFilteredPersonList(PREDICATE_SHOW_ALL_PERSONS)</text><polygon fill="#181818" points="93.1,220.6401,86.1,223.4401,93.1,226.2401,90.3,223.4401" style="stroke:#181818;stroke-width:0.6999999999999998;"/><line style="stroke:#181818;stroke-width:0.6999999999999998;stroke-dasharray:2.0,2.0;" x1="88.9" x2="363.3" y1="223.4401" y2="223.4401"/><!--SRC=[fL5RJuCm57xlhpZkQLkSYQyyc21ZkeJ90YG-aahFMBFI8YrE_xq5jWoL6IzlpUbtEz-vu38JDKFGvatWLLaNWkWTboMjQ05kLQdzGaaJDxzG2ifbxrlZSuqommWtM3MFMvhjyahLadbAg0hsMswGaCBIDfQ03aodcasdu386XkPZFG6ZeCHAAmbS7b-2QqE8DJ4yuoML1aQPOpa9pTSjmbD5GIKR0TKmC8SWl5jwgHS6OKJ8atg5bM8eO1NE_Q0RfydrHmEdXRIANy04hQQL8OHcXhzGWqEkX0n5cTqSz1p8qIouCBOhrc42k-TuSX9jWOHq-9bb3Waw8AWsyLRjvKc5CFoiSYRCi6HMeQNwpDxha6tStI9HpV2okPPEb2LFlkzWqFMiBVOC-olyfLsDPZ1vt-ENNV-yrME8kcGMF73bTUJFbvwR-6by7pwcRX2aQp-AmuVutvdU0G00]--></g></svg>
