<?xml version="1.0" encoding="us-ascii" standalone="no"?><svg xmlns="http://www.w3.org/2000/svg" xmlns:xlink="http://www.w3.org/1999/xlink" contentStyleType="text/css" height="319px" preserveAspectRatio="none" style="width:652px;height:319px;background:#FFFFFF;" version="1.1" viewBox="0 0 652 319" width="652px" zoomAndPan="magnify"><defs/><g><rect fill="#FFFFFF" height="298.3174" style="stroke:#181818;stroke-width:1.5;" width="641" x="5" y="15"/><path d="M173,15 L173,23.6406 L163,33.6406 L5,33.6406 " fill="none" style="stroke:#181818;stroke-width:1.5;"/><text fill="#000000" font-family="sans-serif" font-size="14" font-weight="bold" lengthAdjust="spacing" textLength="17" x="8" y="28.6738">sd</text><text fill="#000000" font-family="sans-serif" font-size="14" lengthAdjust="spacing" textLength="137" x="29" y="28.6738">Delete task in task list</text><rect fill="#F97181" height="247.7813" style="stroke:#181818;stroke-width:0.5;" width="428" x="202" y="42.8955"/><text fill="#FFFFFF" font-family="sans-serif" font-size="13" font-weight="bold" lengthAdjust="spacing" textLength="39" x="394.5" y="54.6641">Model</text><rect fill="#FFFFFF" height="185.6172" style="stroke:#181818;stroke-width:1.0;" width="10" x="100.5" y="102.0596"/><rect fill="#FFFFFF" height="28.5234" style="stroke:#181818;stroke-width:1.0;" width="10" x="272.5" y="122.583"/><rect fill="#FFFFFF" height="99.0469" style="stroke:#181818;stroke-width:1.0;" width="10" x="272.5" y="179.6299"/><rect fill="#FFFFFF" height="56.5234" style="stroke:#181818;stroke-width:1.0;" width="10" x="415" y="208.1533"/><rect fill="#FFFFFF" height="14" style="stroke:#181818;stroke-width:1.0;" width="10" x="553.5" y="236.6768"/><line style="stroke:#181818;stroke-width:0.5;stroke-dasharray:5.0,5.0;" x1="105" x2="105" y1="92.0596" y2="296.6768"/><line style="stroke:#181818;stroke-width:0.5;stroke-dasharray:5.0,5.0;" x1="277" x2="277" y1="92.0596" y2="296.6768"/><line style="stroke:#181818;stroke-width:0.5;stroke-dasharray:5.0,5.0;" x1="420" x2="420" y1="92.0596" y2="296.6768"/><line style="stroke:#181818;stroke-width:0.5;stroke-dasharray:5.0,5.0;" x1="558" x2="558" y1="92.0596" y2="296.6768"/><rect fill="#3333C4" height="29.6406" rx="2.5" ry="2.5" style="stroke:#181818;stroke-width:0.5;" width="161" x="25" y="61.4189"/><text fill="#FFFFFF" font-family="sans-serif" font-size="14" lengthAdjust="spacing" textLength="147" x="32" y="81.0928">c:DeleteTaskCommand</text><rect fill="#9D0012" height="29.6406" rx="2.5" ry="2.5" style="stroke:#181818;stroke-width:0.5;" width="123" x="216" y="61.4189"/><text fill="#FFFFFF" font-family="sans-serif" font-size="14" lengthAdjust="spacing" textLength="109" x="223" y="81.0928">m:ModelManager</text><rect fill="#9D0012" height="29.6406" rx="2.5" ry="2.5" style="stroke:#181818;stroke-width:0.5;" width="102" x="369" y="61.4189"/><text fill="#FFFFFF" font-family="sans-serif" font-size="14" lengthAdjust="spacing" textLength="88" x="376" y="81.0928">:AddressBook</text><rect fill="#9D0012" height="29.6406" rx="2.5" ry="2.5" style="stroke:#181818;stroke-width:0.5;" width="115" x="501" y="61.4189"/><text fill="#FFFFFF" font-family="sans-serif" font-size="14" lengthAdjust="spacing" textLength="101" x="508" y="81.0928">:UniqueTaskList</text><rect fill="#FFFFFF" height="185.6172" style="stroke:#181818;stroke-width:1.0;" width="10" x="100.5" y="102.0596"/><rect fill="#FFFFFF" height="28.5234" style="stroke:#181818;stroke-width:1.0;" width="10" x="272.5" y="122.583"/><rect fill="#FFFFFF" height="99.0469" style="stroke:#181818;stroke-width:1.0;" width="10" x="272.5" y="179.6299"/><rect fill="#FFFFFF" height="56.5234" style="stroke:#181818;stroke-width:1.0;" width="10" x="415" y="208.1533"/><rect fill="#FFFFFF" height="14" style="stroke:#181818;stroke-width:1.0;" width="10" x="553.5" y="236.6768"/><polygon fill="#181818" points="260.5,118.583,270.5,122.583,260.5,126.583,264.5,122.583" style="stroke:#181818;stroke-width:1.0;"/><line style="stroke:#181818;stroke-width:1.0;" x1="110.5" x2="266.5" y1="122.583" y2="122.583"/><text fill="#000000" font-family="sans-serif" font-size="13" lengthAdjust="spacing" textLength="118" x="132.5" y="117.8281">getFilteredTaskList()</text><polygon fill="#181818" points="121.5,147.1064,111.5,151.1064,121.5,155.1064,117.5,151.1064" style="stroke:#181818;stroke-width:1.0;"/><line style="stroke:#181818;stroke-width:1.0;stroke-dasharray:2.0,2.0;" x1="115.5" x2="276.5" y1="151.1064" y2="151.1064"/><text fill="#000000" font-family="sans-serif" font-size="13" lengthAdjust="spacing" textLength="81" x="153.5" y="146.3516">lastShownList</text><polygon fill="#181818" points="260.5,175.6299,270.5,179.6299,260.5,183.6299,264.5,179.6299" style="stroke:#181818;stroke-width:1.0;"/><line style="stroke:#181818;stroke-width:1.0;" x1="110.5" x2="266.5" y1="179.6299" y2="179.6299"/><text fill="#000000" font-family="sans-serif" font-size="13" lengthAdjust="spacing" textLength="96" x="143.5" y="174.875">deleteTask(task)</text><polygon fill="#181818" points="403,204.1533,413,208.1533,403,212.1533,407,208.1533" style="stroke:#181818;stroke-width:1.0;"/><line style="stroke:#181818;stroke-width:1.0;" x1="282.5" x2="409" y1="208.1533" y2="208.1533"/><text fill="#000000" font-family="sans-serif" font-size="13" lengthAdjust="spacing" textLength="96" x="300.75" y="203.3984">deleteTask(task)</text><polygon fill="#181818" points="541.5,232.6768,551.5,236.6768,541.5,240.6768,545.5,236.6768" style="stroke:#181818;stroke-width:1.0;"/><line style="stroke:#181818;stroke-width:1.0;" x1="425" x2="547.5" y1="236.6768" y2="236.6768"/><text fill="#000000" font-family="sans-serif" font-size="13" lengthAdjust="spacing" textLength="68" x="455.25" y="231.9219">delete(task)</text><polygon fill="#181818" points="436,246.6768,426,250.6768,436,254.6768,432,250.6768" style="stroke:#181818;stroke-width:1.0;"/><line style="stroke:#181818;stroke-width:1.0;stroke-dasharray:2.0,2.0;" x1="430" x2="557.5" y1="250.6768" y2="250.6768"/><polygon fill="#181818" points="293.5,260.6768,283.5,264.6768,293.5,268.6768,289.5,264.6768" style="stroke:#181818;stroke-width:1.0;"/><line style="stroke:#181818;stroke-width:1.0;stroke-dasharray:2.0,2.0;" x1="287.5" x2="419" y1="264.6768" y2="264.6768"/><polygon fill="#181818" points="121.5,274.6768,111.5,278.6768,121.5,282.6768,117.5,278.6768" style="stroke:#181818;stroke-width:1.0;"/><line style="stroke:#181818;stroke-width:1.0;stroke-dasharray:2.0,2.0;" x1="115.5" x2="276.5" y1="278.6768" y2="278.6768"/><!--SRC=[ZPB1Ri8m38RlVWgF4wl4f5rxG69bJ9EAAW4xewmn43LDkYOTszilBM9BMi4ujRNz_RP_zqweN3QSqDXlIGzLKqemXL0Lgrc9ixhMnuLMTjrciP9CA2zjwACXbTEATbItBqyiB_QrRXHFjDGr7W_24a3fi9q3ACOeCZoAS4wIBA5bfa2XJayfZ0LmobRaecBAuYYFJuKRbqzqMJB5HyWC3gAOPY-loJR9qcm5yAw_SAavILncy-Vq5Dvk7aFnCkvgbaonFTMThX_msH2CPvpNPCoJraM7UTzNg3Sbd5tjqAdRj0F3KC2IMyhj0S1oApwPCskmDC3GXyaqN2B6FTc5aDOTY9yRZU__LFrgW82TEB5XXnWbCtPzq4VLQW6d2rgt3CT_QyRjFt3ZNDF0yMigNXs03pcDdlbdcRv4M0RGmoRXDBuTVJBet_F2vuAX_x_8nGly0000]--></g></svg>
