<?xml version="1.0" encoding="us-ascii" standalone="no"?><svg xmlns="http://www.w3.org/2000/svg" xmlns:xlink="http://www.w3.org/1999/xlink" contentStyleType="text/css" height="539px" preserveAspectRatio="none" style="width:1018px;height:539px;background:#FFFFFF;" version="1.1" viewBox="0 0 1018 539" width="1018px" zoomAndPan="magnify"><defs/><g><rect fill="#FFFFFF" height="518.123" style="stroke:#181818;stroke-width:1.5;" width="1007" x="5" y="15"/><path d="M175,15 L175,24.4883 L165,34.4883 L5,34.4883 " fill="none" style="stroke:#181818;stroke-width:1.5;"/><text fill="#000000" font-family="sans-serif" font-size="14" font-weight="bold" lengthAdjust="spacing" textLength="17" x="8" y="29.5352">sd</text><text fill="#000000" font-family="sans-serif" font-size="14" lengthAdjust="spacing" textLength="139" x="29" y="29.5352">Mark task in task list</text><rect fill="#F97181" height="465.9043" style="stroke:#181818;stroke-width:0.5;" width="771" x="225" y="43.7305"/><text fill="#FFFFFF" font-family="sans-serif" font-size="13" font-weight="bold" lengthAdjust="spacing" textLength="41" x="588" y="56.2988">Model</text><rect fill="#FFFFFF" height="402.1055" style="stroke:#181818;stroke-width:1.0;" width="10" x="112" y="104.5293"/><rect fill="#FFFFFF" height="40.3105" style="stroke:#181818;stroke-width:1.0;" width="10" x="117" y="192.4609"/><rect fill="#FFFFFF" height="29.3105" style="stroke:#181818;stroke-width:1.0;" width="10" x="300.5" y="125.8398"/><rect fill="#FFFFFF" height="228.5527" style="stroke:#181818;stroke-width:1.0;" width="10" x="300.5" y="269.082"/><rect fill="#FFFFFF" height="111.6211" style="stroke:#181818;stroke-width:1.0;" width="10" x="305.5" y="365.0137"/><rect fill="#FFFFFF" height="29.3105" style="stroke:#181818;stroke-width:1.0;" width="10" x="532.5" y="298.3926"/><rect fill="#FFFFFF" height="57.3105" style="stroke:#181818;stroke-width:1.0;" width="10" x="679" y="399.3242"/><rect fill="#FFFFFF" height="14" style="stroke:#181818;stroke-width:1.0;" width="10" x="916" y="428.6348"/><line style="stroke:#181818;stroke-width:0.5;stroke-dasharray:5.0,5.0;" x1="117" x2="117" y1="94.5293" y2="515.6348"/><line style="stroke:#181818;stroke-width:0.5;stroke-dasharray:5.0,5.0;" x1="305" x2="305" y1="94.5293" y2="515.6348"/><line style="stroke:#181818;stroke-width:0.5;stroke-dasharray:5.0,5.0;" x1="537" x2="537" y1="94.5293" y2="515.6348"/><line style="stroke:#181818;stroke-width:0.5;stroke-dasharray:5.0,5.0;" x1="684" x2="684" y1="94.5293" y2="515.6348"/><line style="stroke:#181818;stroke-width:0.5;stroke-dasharray:5.0,5.0;" x1="921" x2="921" y1="94.5293" y2="515.6348"/><rect fill="#3333C4" height="30.4883" rx="2.5" ry="2.5" style="stroke:#181818;stroke-width:0.5;" width="184" x="25" y="63.041"/><text fill="#FFFFFF" font-family="sans-serif" font-size="14" lengthAdjust="spacing" textLength="170" x="32" y="83.5762">cmd:MarkTaskCommand</text><rect fill="#9D0012" height="30.4883" rx="2.5" ry="2.5" style="stroke:#181818;stroke-width:0.5;" width="133" x="239" y="63.041"/><text fill="#FFFFFF" font-family="sans-serif" font-size="14" lengthAdjust="spacing" textLength="119" x="246" y="83.5762">m:ModelManager</text><rect fill="#9D0012" height="30.4883" rx="2.5" ry="2.5" style="stroke:#181818;stroke-width:0.5;" width="125" x="475" y="63.041"/><text fill="#FFFFFF" font-family="sans-serif" font-size="14" lengthAdjust="spacing" textLength="111" x="482" y="83.5762">editedTask:Task</text><rect fill="#9D0012" height="30.4883" rx="2.5" ry="2.5" style="stroke:#181818;stroke-width:0.5;" width="108" x="630" y="63.041"/><text fill="#FFFFFF" font-family="sans-serif" font-size="14" lengthAdjust="spacing" textLength="94" x="637" y="83.5762">:AddressBook</text><rect fill="#9D0012" height="30.4883" rx="2.5" ry="2.5" style="stroke:#181818;stroke-width:0.5;" width="122" x="860" y="63.041"/><text fill="#FFFFFF" font-family="sans-serif" font-size="14" lengthAdjust="spacing" textLength="108" x="867" y="83.5762">:UniqueTaskList</text><rect fill="#FFFFFF" height="402.1055" style="stroke:#181818;stroke-width:1.0;" width="10" x="112" y="104.5293"/><rect fill="#FFFFFF" height="40.3105" style="stroke:#181818;stroke-width:1.0;" width="10" x="117" y="192.4609"/><rect fill="#FFFFFF" height="29.3105" style="stroke:#181818;stroke-width:1.0;" width="10" x="300.5" y="125.8398"/><rect fill="#FFFFFF" height="228.5527" style="stroke:#181818;stroke-width:1.0;" width="10" x="300.5" y="269.082"/><rect fill="#FFFFFF" height="111.6211" style="stroke:#181818;stroke-width:1.0;" width="10" x="305.5" y="365.0137"/><rect fill="#FFFFFF" height="29.3105" style="stroke:#181818;stroke-width:1.0;" width="10" x="532.5" y="298.3926"/><rect fill="#FFFFFF" height="57.3105" style="stroke:#181818;stroke-width:1.0;" width="10" x="679" y="399.3242"/><rect fill="#FFFFFF" height="14" style="stroke:#181818;stroke-width:1.0;" width="10" x="916" y="428.6348"/><polygon fill="#181818" points="288.5,121.8398,298.5,125.8398,288.5,129.8398,292.5,125.8398" style="stroke:#181818;stroke-width:1.0;"/><line style="stroke:#181818;stroke-width:1.0;" x1="122" x2="294.5" y1="125.8398" y2="125.8398"/><text fill="#000000" font-family="sans-serif" font-size="13" lengthAdjust="spacing" textLength="128" x="147.25" y="121.0977">getFilteredTaskList()</text><polygon fill="#181818" points="133,151.1504,123,155.1504,133,159.1504,129,155.1504" style="stroke:#181818;stroke-width:1.0;"/><line style="stroke:#181818;stroke-width:1.0;stroke-dasharray:2.0,2.0;" x1="127" x2="304.5" y1="155.1504" y2="155.1504"/><text fill="#000000" font-family="sans-serif" font-size="13" lengthAdjust="spacing" textLength="87" x="170.25" y="150.4082">lastShownList</text><line style="stroke:#181818;stroke-width:1.0;" x1="122" x2="169" y1="179.4609" y2="179.4609"/><line style="stroke:#181818;stroke-width:1.0;" x1="169" x2="169" y1="179.4609" y2="192.4609"/><line style="stroke:#181818;stroke-width:1.0;" x1="128" x2="169" y1="192.4609" y2="192.4609"/><polygon fill="#181818" points="138,188.4609,128,192.4609,138,196.4609,134,192.4609" style="stroke:#181818;stroke-width:1.0;"/><text fill="#000000" font-family="sans-serif" font-size="13" lengthAdjust="spacing" textLength="139" x="134" y="174.7188">lastShownList.get(idx)</text><line style="stroke:#181818;stroke-width:1.0;stroke-dasharray:2.0,2.0;" x1="127" x2="169" y1="231.7715" y2="231.7715"/><line style="stroke:#181818;stroke-width:1.0;stroke-dasharray:2.0,2.0;" x1="169" x2="169" y1="231.7715" y2="244.7715"/><line style="stroke:#181818;stroke-width:1.0;stroke-dasharray:2.0,2.0;" x1="122" x2="169" y1="244.7715" y2="244.7715"/><polygon fill="#181818" points="132,240.7715,122,244.7715,132,248.7715,128,244.7715" style="stroke:#181818;stroke-width:1.0;"/><text fill="#000000" font-family="sans-serif" font-size="13" lengthAdjust="spacing" textLength="74" x="134" y="227.0293">taskToMark</text><polygon fill="#181818" points="288.5,265.082,298.5,269.082,288.5,273.082,292.5,269.082" style="stroke:#181818;stroke-width:1.0;"/><line style="stroke:#181818;stroke-width:1.0;" x1="122" x2="294.5" y1="269.082" y2="269.082"/><text fill="#000000" font-family="sans-serif" font-size="13" lengthAdjust="spacing" textLength="144" x="139.25" y="264.3398">markTask(taskToMark)</text><polygon fill="#181818" points="520.5,294.3926,530.5,298.3926,520.5,302.3926,524.5,298.3926" style="stroke:#181818;stroke-width:1.0;"/><line style="stroke:#181818;stroke-width:1.0;" x1="310.5" x2="526.5" y1="298.3926" y2="298.3926"/><text fill="#000000" font-family="sans-serif" font-size="13" lengthAdjust="spacing" textLength="73" x="385" y="293.6504">markDone()</text><polygon fill="#181818" points="321.5,323.7031,311.5,327.7031,321.5,331.7031,317.5,327.7031" style="stroke:#181818;stroke-width:1.0;"/><line style="stroke:#181818;stroke-width:1.0;stroke-dasharray:2.0,2.0;" x1="315.5" x2="536.5" y1="327.7031" y2="327.7031"/><text fill="#000000" font-family="sans-serif" font-size="13" lengthAdjust="spacing" textLength="69" x="389.5" y="322.9609">editedTask</text><line style="stroke:#181818;stroke-width:1.0;" x1="310.5" x2="357.5" y1="352.0137" y2="352.0137"/><line style="stroke:#181818;stroke-width:1.0;" x1="357.5" x2="357.5" y1="352.0137" y2="365.0137"/><line style="stroke:#181818;stroke-width:1.0;" x1="316.5" x2="357.5" y1="365.0137" y2="365.0137"/><polygon fill="#181818" points="326.5,361.0137,316.5,365.0137,326.5,369.0137,322.5,365.0137" style="stroke:#181818;stroke-width:1.0;"/><text fill="#000000" font-family="sans-serif" font-size="13" lengthAdjust="spacing" textLength="208" x="322.5" y="347.2715">setTask(taskToMark, editedTask)</text><polygon fill="#181818" points="667,395.3242,677,399.3242,667,403.3242,671,399.3242" style="stroke:#181818;stroke-width:1.0;"/><line style="stroke:#181818;stroke-width:1.0;" x1="315.5" x2="673" y1="399.3242" y2="399.3242"/><text fill="#000000" font-family="sans-serif" font-size="13" lengthAdjust="spacing" textLength="208" x="393.25" y="394.582">setTask(taskToMark, editedTask)</text><polygon fill="#181818" points="904,424.6348,914,428.6348,904,432.6348,908,428.6348" style="stroke:#181818;stroke-width:1.0;"/><line style="stroke:#181818;stroke-width:1.0;" x1="689" x2="910" y1="428.6348" y2="428.6348"/><text fill="#000000" font-family="sans-serif" font-size="13" lengthAdjust="spacing" textLength="208" x="698.5" y="423.8926">setTask(taskToMark, editedTask)</text><polygon fill="#181818" points="700,438.6348,690,442.6348,700,446.6348,696,442.6348" style="stroke:#181818;stroke-width:1.0;"/><line style="stroke:#181818;stroke-width:1.0;stroke-dasharray:2.0,2.0;" x1="694" x2="920" y1="442.6348" y2="442.6348"/><polygon fill="#181818" points="326.5,452.6348,316.5,456.6348,326.5,460.6348,322.5,456.6348" style="stroke:#181818;stroke-width:1.0;"/><line style="stroke:#181818;stroke-width:1.0;stroke-dasharray:2.0,2.0;" x1="320.5" x2="683" y1="456.6348" y2="456.6348"/><line style="stroke:#181818;stroke-width:1.0;stroke-dasharray:2.0,2.0;" x1="315.5" x2="357.5" y1="475.6348" y2="475.6348"/><line style="stroke:#181818;stroke-width:1.0;stroke-dasharray:2.0,2.0;" x1="357.5" x2="357.5" y1="475.6348" y2="488.6348"/><line style="stroke:#181818;stroke-width:1.0;stroke-dasharray:2.0,2.0;" x1="310.5" x2="357.5" y1="488.6348" y2="488.6348"/><polygon fill="#181818" points="320.5,484.6348,310.5,488.6348,320.5,492.6348,316.5,488.6348" style="stroke:#181818;stroke-width:1.0;"/><polygon fill="#181818" points="133,493.6348,123,497.6348,133,501.6348,129,497.6348" style="stroke:#181818;stroke-width:1.0;"/><line style="stroke:#181818;stroke-width:1.0;stroke-dasharray:2.0,2.0;" x1="127" x2="304.5" y1="497.6348" y2="497.6348"/><!--SRC=[bPDFJm8n4CNlyob6Bo8H4wzxC14KOW8XKJoRkXsneN-mBQBVtdPNOrjObGliJkVz-lfsUYHqBJUSqFaFIUVhZPBWLaAlcMKAhwmrsx7H_ZwkubeoePDbHwyRqZNTqJFP-31azMffpKRpaP76ulP5U09GGVOS15HXl-zuluypPbVecLkXqEs_5Cu31AuNjLWpxV6uLhoAZOkmFZ9ACSsFaJaiQZYTJsv7ZwFvT7u7y6JUSMOuIPpDhs-cRVbnSP6ZLTNqp9XcIx8jDIcasbn8F9o8nzsh-DCeuqEtehhYt99pGsFQzkJz5zM35Y7SY9w6P1fXNigq56889mTWjHTlp5CP4a2Psk0oFtA5I_9Z8NtubFnxazvfGaow0oxL3YAiu5SecVFtBsQh8mauTP1E9kJR6V06LQ3ijVex_Jnuxmd-VjeTm0vqBpNwM9XOpmmV7gRwwkZz4F-PvMKpK2tXscXAlq5SWMRU1iMM5VwCPcgzUT_P8LSwyeNLiuJsRzlfO1y0JMG0AICWYv4_W9eh0GhI8FUR9bOgCqj5TgakEyVkzSZ6e_is_7MlEfMV]--></g></svg>
