<?xml version="1.0" encoding="UTF-8" standalone="no"?><svg xmlns="http://www.w3.org/2000/svg" xmlns:xlink="http://www.w3.org/1999/xlink" contentStyleType="text/css" height="533px" preserveAspectRatio="none" style="width:976px;height:533px;background:#FFFFFF;" version="1.1" viewBox="0 0 976 533" width="976px" zoomAndPan="magnify"><defs/><g><!--MD5=[9681dc6e01e10c6b4fe06895ae94f592]
cluster UI--><g id="cluster_UI"><rect fill="#FFFFFF" height="469" rx="2.5" ry="2.5" style="stroke:#181818;stroke-width:1.0;" width="721" x="60.99" y="58"/><text fill="#000000" font-family="sans-serif" font-size="14" font-weight="bold" lengthAdjust="spacing" textLength="14" x="414.49" y="74.5332">UI</text></g><!--MD5=[15636c1ca4a123c16a2a1a8e90aca7a9]
cluster Model--><g id="cluster_Model"><rect fill="#FFFFFF" height="95" rx="2.5" ry="2.5" style="stroke:#181818;stroke-width:1.0;" width="157" x="813.99" y="431.5"/><text fill="#000000" font-family="sans-serif" font-size="14" font-weight="bold" lengthAdjust="spacing" textLength="44" x="870.49" y="448.0332">Model</text></g><!--MD5=[8237f0313b7e89f796726a268ea6fa70]
cluster Logic--><g id="cluster_Logic"><rect fill="#FFFFFF" height="95" rx="2.5" ry="2.5" style="stroke:#181818;stroke-width:1.0;" width="153" x="813.99" y="162"/><text fill="#000000" font-family="sans-serif" font-size="14" font-weight="bold" lengthAdjust="spacing" textLength="38" x="871.49" y="178.5332">Logic</text></g><!--MD5=[56c17820b5ec61b985b118caeb6340b1]
class Ui--><g id="elem_Ui"><rect codeLine="7" fill="#1D8900" height="44.4971" id="Ui" rx="2.5" ry="2.5" style="stroke:#FFFFFF;stroke-width:1.0;" width="98" x="414.99" y="94"/><text fill="#FFFFFF" font-family="Arial" font-size="15" lengthAdjust="spacing" textLength="92" x="417.99" y="113.0698">&lt;&lt;interface&gt;&gt;</text><text fill="#FFFFFF" font-family="Arial" font-size="15" lengthAdjust="spacing" textLength="13" x="457.49" y="130.3184">Ui</text></g><!--MD5=[2194e160f11909a32d987932bec8f8fd]
class UiPart--><g id="elem_UiPart"><rect codeLine="8" fill="#1D8900" height="44.4971" id="UiPart" rx="2.5" ry="2.5" style="stroke:#FFFFFF;stroke-width:1.0;" width="69" x="339.49" y="467"/><text fill="#FFFFFF" font-family="Arial" font-size="15" lengthAdjust="spacing" textLength="63" x="342.49" y="486.0698">{abstract}</text><text fill="#FFFFFF" font-family="Arial" font-size="15" lengthAdjust="spacing" textLength="40" x="353.99" y="503.3184">UiPart</text></g><!--MD5=[bb31649cd695b383b0a893153f017b1a]
class UiManager--><g id="elem_UiManager"><rect codeLine="9" fill="#1D8900" height="27.2485" id="UiManager" rx="2.5" ry="2.5" style="stroke:#FFFFFF;stroke-width:1.0;" width="75" x="548.49" y="102.5"/><text fill="#FFFFFF" font-family="Arial" font-size="15" lengthAdjust="spacing" textLength="69" x="551.49" y="121.5698">UiManager</text></g><!--MD5=[e6c809820d88acc3564faeb20394ab9d]
class MainWindow--><g id="elem_MainWindow"><rect codeLine="10" fill="#1D8900" height="27.2485" id="MainWindow" rx="2.5" ry="2.5" style="stroke:#FFFFFF;stroke-width:1.0;" width="89" x="399.49" y="206"/><text fill="#FFFFFF" font-family="Arial" font-size="15" lengthAdjust="spacing" textLength="83" x="402.49" y="225.0698">MainWindow</text></g><!--MD5=[6a99d1f66704ead86da80187de9dded6]
class HelpWindow--><g id="elem_HelpWindow"><rect codeLine="11" fill="#1D8900" height="27.2485" id="HelpWindow" rx="2.5" ry="2.5" style="stroke:#FFFFFF;stroke-width:1.0;" width="88" x="528.99" y="293"/><text fill="#FFFFFF" font-family="Arial" font-size="15" lengthAdjust="spacing" textLength="82" x="531.99" y="312.0698">HelpWindow</text></g><!--MD5=[ea641667e014ba942dc8bca88e7c22f4]
class ResultDisplay--><g id="elem_ResultDisplay"><rect codeLine="12" fill="#1D8900" height="27.2485" id="ResultDisplay" rx="2.5" ry="2.5" style="stroke:#FFFFFF;stroke-width:1.0;" width="96" x="262.99" y="293"/><text fill="#FFFFFF" font-family="Arial" font-size="15" lengthAdjust="spacing" textLength="90" x="265.99" y="312.0698">ResultDisplay</text></g><!--MD5=[6f328e00a5b597ee0df8530175ebb54b]
class PersonListPanel--><g id="elem_PersonListPanel"><rect codeLine="13" fill="#1D8900" height="27.2485" id="PersonListPanel" rx="2.5" ry="2.5" style="stroke:#FFFFFF;stroke-width:1.0;" width="113" x="652.49" y="293"/><text fill="#FFFFFF" font-family="Arial" font-size="15" lengthAdjust="spacing" textLength="107" x="655.49" y="312.0698">PersonListPanel</text></g><!--MD5=[a643022b364c985e94cf991eab611446]
class PersonCard--><g id="elem_PersonCard"><rect codeLine="14" fill="#1D8900" height="27.2485" id="PersonCard" rx="2.5" ry="2.5" style="stroke:#FFFFFF;stroke-width:1.0;" width="85" x="666.49" y="380"/><text fill="#FFFFFF" font-family="Arial" font-size="15" lengthAdjust="spacing" textLength="79" x="669.49" y="399.0698">PersonCard</text></g><!--MD5=[2b60db2fc160c90f3a0ded0376aa3223]
class StatusBarFooter--><g id="elem_StatusBarFooter"><rect codeLine="15" fill="#1D8900" height="27.2485" id="StatusBarFooter" rx="2.5" ry="2.5" style="stroke:#FFFFFF;stroke-width:1.0;" width="113" x="114.49" y="293"/><text fill="#FFFFFF" font-family="Arial" font-size="15" lengthAdjust="spacing" textLength="107" x="117.49" y="312.0698">StatusBarFooter</text></g><!--MD5=[bfe415b5c3f0a3f3f66149424b76647d]
class CommandBox--><g id="elem_CommandBox"><rect codeLine="16" fill="#1D8900" height="27.2485" id="CommandBox" rx="2.5" ry="2.5" style="stroke:#FFFFFF;stroke-width:1.0;" width="100" x="393.99" y="293"/><text fill="#FFFFFF" font-family="Arial" font-size="15" lengthAdjust="spacing" textLength="94" x="396.99" y="312.0698">CommandBox</text></g><!--MD5=[eef5f0b07d2fd263bed9c722d8c1c089]
class HiddenModel--><g id="elem_HiddenModel"><rect codeLine="20" fill="#FFFFFF" height="27.2485" id="HiddenModel" rx="2.5" ry="2.5" style="stroke:#FFFFFF;stroke-width:1.0;" width="89" x="857.49" y="475.5"/><text fill="#FFFFFF" font-family="Arial" font-size="15" lengthAdjust="spacing" textLength="83" x="860.49" y="494.5698">HiddenModel</text></g><!--MD5=[68aa0c86fa78b4986a45cc6cf99a7822]
class HiddenLogic--><g id="elem_HiddenLogic"><rect codeLine="24" fill="#FFFFFF" height="27.2485" id="HiddenLogic" rx="2.5" ry="2.5" style="stroke:#FFFFFF;stroke-width:1.0;" width="86" x="856.99" y="206"/><text fill="#FFFFFF" font-family="Arial" font-size="15" lengthAdjust="spacing" textLength="80" x="859.99" y="225.0698">HiddenLogic</text></g><!--MD5=[f8dc820cca8808bdb695301f77a92b66]
class HiddenOutside--><g id="elem_HiddenOutside"><rect codeLine="27" fill="#FFFFFF" height="27.2485" id="HiddenOutside" rx="2.5" ry="2.5" style="stroke:#FFFFFF;stroke-width:1.0;" width="102" x="412.99" y="7"/><text fill="#FFFFFF" font-family="Arial" font-size="15" lengthAdjust="spacing" textLength="96" x="415.99" y="26.0698">HiddenOutside</text></g><!--MD5=[a2825086c9e6423d98970e86c37e1f32]
link HiddenOutside to Ui--><g id="link_HiddenOutside_Ui"><path codeLine="28" d="M463.99,34.11 C463.99,47.93 463.99,70.51 463.99,88.31 " fill="none" id="HiddenOutside-to-Ui" style="stroke:#0E4100;stroke-width:1.1;stroke-dasharray:7.0,7.0;"/><polygon fill="#0E4100" points="463.99,93.66,467.99,84.66,463.99,88.66,459.99,84.66,463.99,93.66" style="stroke:#0E4100;stroke-width:1.1;"/></g><!--MD5=[d23f9412713304e09763acc39549c87b]
reverse link Ui to UiManager--><g id="link_Ui_UiManager"><path codeLine="30" d="M533.22,116 C538.28,116 543.34,116 548.39,116 " fill="none" id="Ui-backto-UiManager" style="stroke:#0E4100;stroke-width:1.1;stroke-dasharray:7.0,7.0;"/><polygon fill="none" points="533.08,123,513.08,116,533.08,109,533.08,123" style="stroke:#0E4100;stroke-width:1.1;"/></g><!--MD5=[f4359266757daa3e145c93b9f63f2a7f]
link UiManager to MainWindow--><g id="link_UiManager_MainWindow"><path codeLine="31" d="M568.29,129.65 C542.46,148.11 494.46,182.43 466.26,202.58 " fill="none" id="UiManager-to-MainWindow" style="stroke:#0E4100;stroke-width:1.1;"/><polygon fill="#0E4100" points="461.91,205.69,471.5566,203.7042,465.9758,202.7798,466.9002,197.199,461.91,205.69" style="stroke:#0E4100;stroke-width:1.1;"/><text fill="#000000" font-family="sans-serif" font-size="13" font-weight="bold" lengthAdjust="spacing" textLength="7" x="460.2274" y="195.1617">1</text></g><!--MD5=[92dc039ae140ba7abbe540b6db158255]
link MainWindow to CommandBox--><g id="link_MainWindow_CommandBox"><path codeLine="32" d="M443.99,245.04 C443.99,245.04 443.99,269.26 443.99,279.83 " fill="none" id="MainWindow-CommandBox" style="stroke:#0E4100;stroke-width:1.1;"/><polygon fill="#0E4100" points="443.99,292.91,447.99,283.91,443.99,287.91,439.99,283.91,443.99,292.91" style="stroke:#0E4100;stroke-width:1.1;"/><line style="stroke:#0E4100;stroke-width:1.1;" x1="443.99" x2="443.99" y1="287.91" y2="279.91"/><polygon fill="#0E4100" points="443.99,233.04,439.99,239.04,443.99,245.04,447.99,239.04,443.99,233.04" style="stroke:#0E4100;stroke-width:1.1;"/><text fill="#000000" font-family="sans-serif" font-size="13" font-weight="bold" lengthAdjust="spacing" textLength="7" x="435.6556" y="282.1936">1</text></g><!--MD5=[751f32356d036c385cef4d287122ae87]
link MainWindow to ResultDisplay--><g id="link_MainWindow_ResultDisplay"><path codeLine="33" d="M414.2575,239.5004 C414.2575,239.5004 363.22,272.12 341.79,285.82 " fill="none" id="MainWindow-ResultDisplay" style="stroke:#0E4100;stroke-width:1.1;"/><polygon fill="#0E4100" points="330.7,292.91,340.4379,291.4355,334.9136,290.2182,336.1309,284.6939,330.7,292.91" style="stroke:#0E4100;stroke-width:1.1;"/><line style="stroke:#0E4100;stroke-width:1.1;" x1="334.9136" x2="341.65" y1="290.2182" y2="285.905"/><polygon fill="#0E4100" points="424.37,233.04,417.1603,232.8994,414.2575,239.5004,421.4672,239.641,424.37,233.04" style="stroke:#0E4100;stroke-width:1.1;"/><text fill="#000000" font-family="sans-serif" font-size="13" font-weight="bold" lengthAdjust="spacing" textLength="7" x="329.8801" y="282.1936">1</text></g><!--MD5=[35506723594a39fbe4cc4aca9411b96e]
link MainWindow to PersonListPanel--><g id="link_MainWindow_PersonListPanel"><path codeLine="34" d="M494.5169,236.704 C494.5169,236.704 610.56,273.93 657.18,288.88 " fill="none" id="MainWindow-PersonListPanel" style="stroke:#0E4100;stroke-width:1.1;"/><polygon fill="#0E4100" points="669.73,292.91,662.3811,286.353,664.9688,291.3833,659.9385,293.971,669.73,292.91" style="stroke:#0E4100;stroke-width:1.1;"/><line style="stroke:#0E4100;stroke-width:1.1;" x1="664.9688" x2="657.35" y1="291.3833" y2="288.935"/><polygon fill="#0E4100" points="483.09,233.04,487.5821,238.681,494.5169,236.704,490.0248,231.063,483.09,233.04" style="stroke:#0E4100;stroke-width:1.1;"/><text fill="#000000" font-family="sans-serif" font-size="13" font-weight="bold" lengthAdjust="spacing" textLength="7" x="646.4278" y="282.1936">1</text></g><!--MD5=[be77818ef8144b1b88291425d82e9084]
link MainWindow to StatusBarFooter--><g id="link_MainWindow_StatusBarFooter"><path codeLine="35" d="M392.2541,236.6125 C392.2541,236.6125 272.23,273.98 224.08,288.97 " fill="none" id="MainWindow-StatusBarFooter" style="stroke:#0E4100;stroke-width:1.1;"/><polygon fill="#0E4100" points="211.44,292.91,221.2215,294.0595,216.2148,291.4264,218.8479,286.4197,211.44,292.91" style="stroke:#0E4100;stroke-width:1.1;"/><line style="stroke:#0E4100;stroke-width:1.1;" x1="216.2148" x2="223.85" y1="291.4264" y2="289.045"/><polygon fill="#0E4100" points="403.71,233.04,396.7912,231.0076,392.2541,236.6125,399.1729,238.6449,403.71,233.04" style="stroke:#0E4100;stroke-width:1.1;"/><text fill="#000000" font-family="sans-serif" font-size="13" font-weight="bold" lengthAdjust="spacing" textLength="7" x="218.5272" y="282.1936">1</text></g><!--MD5=[86d09801fc7f798f389a693fae28d604]
link MainWindow to HelpWindow--><g id="link_MainWindow_HelpWindow"><path codeLine="36" d="M463.02,233.04 C485.98,248.17 524.58,273.61 549.41,289.96 " fill="none" id="MainWindow-to-HelpWindow" style="stroke:#0E4100;stroke-width:1.1;"/><polygon fill="#0E4100" points="553.88,292.91,548.5644,284.6188,549.7045,290.1596,544.1637,291.2996,553.88,292.91" style="stroke:#0E4100;stroke-width:1.1;"/><text fill="#000000" font-family="sans-serif" font-size="13" font-weight="bold" lengthAdjust="spacing" textLength="22" x="520.4006" y="282.1936">0..1</text></g><!--MD5=[ea662611cbbc51d115f0c127194e997f]
link PersonListPanel to PersonCard--><g id="link_PersonListPanel_PersonCard"><path codeLine="38" d="M708.99,320.04 C708.99,334.48 708.99,358.3 708.99,374.67 " fill="none" id="PersonListPanel-to-PersonCard" style="stroke:#0E4100;stroke-width:1.1;"/><polygon fill="#0E4100" points="708.99,379.91,712.99,370.91,708.99,374.91,704.99,370.91,708.99,379.91" style="stroke:#0E4100;stroke-width:1.1;"/><text fill="#000000" font-family="sans-serif" font-size="13" font-weight="bold" lengthAdjust="spacing" textLength="5" x="703.0369" y="369.1936">*</text></g><!--MD5=[57cdbd9c2a08b96199a6234d10bf0163]
reverse link UiPart to MainWindow--><g id="link_UiPart_MainWindow"><path codeLine="40" d="M320.02,471.64 C225.01,442.91 45.71,378.25 114.99,293 C151.04,248.64 317.46,230.49 399.21,223.86 " fill="none" id="UiPart-backto-MainWindow" style="stroke:#0E4100;stroke-width:1.1;"/><polygon fill="none" points="322.25,465,339.44,477.38,318.28,478.43,322.25,465" style="stroke:#0E4100;stroke-width:1.1;"/></g><!--MD5=[c2b0433d56a858074b2759587ea31389]
link MainWindow to UiPart--><!--MD5=[6a054d1cbcb280d35d5ed6cf4ddd3c4a]
link ResultDisplay to UiPart--><g id="link_ResultDisplay_UiPart"><path codeLine="42" d="M315.42,320.19 C324.55,346.36 345.8,407.25 360.04,448.03 " fill="none" id="ResultDisplay-to-UiPart" style="stroke:#0E4100;stroke-width:1.1;"/><polygon fill="none" points="366.67,445.78,366.65,466.97,353.45,450.39,366.67,445.78" style="stroke:#0E4100;stroke-width:1.1;"/></g><!--MD5=[bbb9937c6b10c921f0d97eaed5a79881]
link CommandBox to UiPart--><g id="link_CommandBox_UiPart"><path codeLine="43" d="M439.07,320.19 C428.9,346.42 405.2,407.53 389.38,448.31 " fill="none" id="CommandBox-to-UiPart" style="stroke:#0E4100;stroke-width:1.1;"/><polygon fill="none" points="395.9,450.85,382.15,466.97,382.85,445.79,395.9,450.85" style="stroke:#0E4100;stroke-width:1.1;"/></g><!--MD5=[062b7b64e0791ca63e994fa5ee753224]
link PersonListPanel to UiPart--><g id="link_PersonListPanel_UiPart"><path codeLine="44" d="M685.7,320.05 C632.4,348.77 500.45,419.87 426.45,459.74 " fill="none" id="PersonListPanel-to-UiPart" style="stroke:#0E4100;stroke-width:1.1;"/><polygon fill="none" points="429.46,466.07,408.53,469.39,422.82,453.74,429.46,466.07" style="stroke:#0E4100;stroke-width:1.1;"/></g><!--MD5=[e5abfe53cce714a0aa8ca31ebb3d2ec8]
link PersonCard to UiPart--><g id="link_PersonCard_UiPart"><path codeLine="45" d="M666.22,406.44 C605.61,423.35 494.72,454.3 428.35,472.83 " fill="none" id="PersonCard-to-UiPart" style="stroke:#0E4100;stroke-width:1.1;"/><polygon fill="none" points="430.03,479.63,408.88,478.26,426.26,466.14,430.03,479.63" style="stroke:#0E4100;stroke-width:1.1;"/></g><!--MD5=[333db60c48b4ce035180c8fd8b7021d9]
link StatusBarFooter to UiPart--><g id="link_StatusBarFooter_UiPart"><path codeLine="46" d="M185.26,320.19 C216.04,347.55 289.52,412.89 335.18,453.49 " fill="none" id="StatusBarFooter-to-UiPart" style="stroke:#0E4100;stroke-width:1.1;"/><polygon fill="none" points="340.04,448.45,350.34,466.97,330.74,458.91,340.04,448.45" style="stroke:#0E4100;stroke-width:1.1;"/></g><!--MD5=[f6ded6870070611f25c393be6d476ca5]
link HelpWindow to UiPart--><g id="link_HelpWindow_UiPart"><path codeLine="47" d="M559,320.19 C528.83,347.55 456.8,412.89 412.03,453.49 " fill="none" id="HelpWindow-to-UiPart" style="stroke:#0E4100;stroke-width:1.1;"/><polygon fill="none" points="416.7,458.72,397.18,466.97,407.29,448.35,416.7,458.72" style="stroke:#0E4100;stroke-width:1.1;"/></g><!--MD5=[10b56b76ef32f58d5dcb2a8011c87443]
link PersonCard to Model--><g id="link_PersonCard_Model"><path codeLine="49" d="M751.84,400.85 C762.49,403.96 773.33,408.59 781.99,415.5 C795.925,426.615 805.745,443.9725 812.1675,458.9175 C812.5689,459.8516 812.957,460.7762 813.3321,461.6893 C813.5196,462.1459 813.7038,462.5995 813.8848,463.05 " fill="none" id="PersonCard-to-Model" style="stroke:#0E4100;stroke-width:1.1;stroke-dasharray:7.0,7.0;"/><polygon fill="#0E4100" points="813.8848,463.05,814.2414,453.2076,812.0209,458.4105,806.8181,456.1899,813.8848,463.05" style="stroke:#0E4100;stroke-width:1.1;"/></g><!--MD5=[90aba6ec762193f41687f31212656d8f]
link UiManager to Logic--><g id="link_UiManager_Logic"><path codeLine="50" d="M623.74,118.65 C673.33,121.46 757.05,128.69 781.99,146 C796.635,156.165 806.4775,173.4925 812.7338,188.6588 C813.1248,189.6066 813.5018,190.5461 813.8651,191.4748 " fill="none" id="UiManager-to-Logic" style="stroke:#0E4100;stroke-width:1.1;"/><polygon fill="#0E4100" points="813.8651,191.4748,814.3116,181.6361,812.0436,186.8184,806.8613,184.5504,813.8651,191.4748" style="stroke:#0E4100;stroke-width:1.1;"/></g><!--MD5=[07bc7cbf7874720da1634fdfdaf490e2]
reverse link Logic to MainWindow--><g id="link_Logic_MainWindow"><path codeLine="51" d="M813.5424,219.5 C812.676,219.5 811.8096,219.5 810.9432,219.5 C807.4775,219.5 804.012,219.5 800.5464,219.5 C793.6152,219.5 786.6841,219.5 779.7529,219.5 C765.8907,219.5 752.0287,219.5 738.1667,219.5 C710.4428,219.5 682.7194,219.5 654.9963,219.5 C599.55,219.5 544.105,219.5 488.66,219.5 " fill="none" id="Logic-backto-MainWindow" style="stroke:#0E4100;stroke-width:1.1;"/><polygon fill="#0E4100" points="813.5424,219.5,804.5424,215.5,808.5424,219.5,804.5424,223.5,813.5424,219.5" style="stroke:#0E4100;stroke-width:1.1;"/></g><!--MD5=[6304e58fc5c7753a667367f50605245c]
link HelpWindow to PersonListPanel--><!--MD5=[8655318e6662184a4a769bb45b69b25c]
link CommandBox to HelpWindow--><!--MD5=[b8f93d5457cb1cca443f250cedc61ee2]
link ResultDisplay to CommandBox--><!--MD5=[be41e9187af53a708441cf1977ae807e]
link StatusBarFooter to ResultDisplay--><!--MD5=[661a3a612df9b655ce7a7ff36d640b59]
@startuml
!include style.puml
skinparam arrowThickness 1.1
skinparam arrowColor UI_COLOR_T4
skinparam classBackgroundColor UI_COLOR

package UI <<Rectangle>>{
Class "<<interface>>\nUi" as Ui
Class "{abstract}\nUiPart" as UiPart
Class UiManager
Class MainWindow
Class HelpWindow
Class ResultDisplay
Class PersonListPanel
Class PersonCard
Class StatusBarFooter
Class CommandBox
}

package Model <<Rectangle>> {
Class HiddenModel #FFFFFF
}

package Logic <<Rectangle>> {
Class HiddenLogic #FFFFFF
}

Class HiddenOutside #FFFFFF
HiddenOutside ..> Ui

UiManager .left.|> Ui
UiManager -down-> "1" MainWindow
MainWindow *-down->  "1" CommandBox
MainWindow *-down-> "1" ResultDisplay
MainWindow *-down-> "1" PersonListPanel
MainWindow *-down-> "1" StatusBarFooter
MainWindow - -> "0..1" HelpWindow

PersonListPanel -down-> "*" PersonCard

MainWindow -left-|> UiPart

ResultDisplay - -|> UiPart
CommandBox - -|> UiPart
PersonListPanel - -|> UiPart
PersonCard - -|> UiPart
StatusBarFooter - -|> UiPart
HelpWindow - -|> UiPart

PersonCard ..> Model
UiManager -right-> Logic
MainWindow -left-> Logic

PersonListPanel -[hidden]left- HelpWindow
HelpWindow -[hidden]left- CommandBox
CommandBox -[hidden]left- ResultDisplay
ResultDisplay -[hidden]left- StatusBarFooter

MainWindow -[hidden]-|> UiPart
@enduml

@startuml








skinparam Package {
    BackgroundColor #FFFFFF
    BorderThickness 1
    FontSize 16
}

skinparam Class {
    FontColor #FFFFFF
    FontSize 15
    BorderThickness 1
    BorderColor #FFFFFF
    StereotypeFontColor #FFFFFF
    FontName Arial
}

skinparam Actor {
    BorderColor #000000
    Color #000000
    FontName Arial
}

skinparam Sequence {
    MessageAlign center
    BoxFontSize 15
    BoxPadding 0
    BoxFontColor #FFFFFF
    FontName Arial
}

skinparam Participant {
    FontColor #FFFFFFF
    Padding 20
}

skinparam ArrowFontStyle bold
skinparam MinClassWidth 50
skinparam ParticipantPadding 10
skinparam Shadowing false
skinparam DefaultTextAlignment center
skinparam packageStyle Rectangle

hide footbox
hide members
hide circle
skinparam arrowThickness 1.1
skinparam arrowColor #0E4100
skinparam classBackgroundColor #1D8900

package UI <<Rectangle>>{
Class "<<interface>>\nUi" as Ui
Class "{abstract}\nUiPart" as UiPart
Class UiManager
Class MainWindow
Class HelpWindow
Class ResultDisplay
Class PersonListPanel
Class PersonCard
Class StatusBarFooter
Class CommandBox
}

package Model <<Rectangle>> {
Class HiddenModel #FFFFFF
}

package Logic <<Rectangle>> {
Class HiddenLogic #FFFFFF
}

Class HiddenOutside #FFFFFF
HiddenOutside ..> Ui

UiManager .left.|> Ui
UiManager -down-> "1" MainWindow
MainWindow *-down->  "1" CommandBox
MainWindow *-down-> "1" ResultDisplay
MainWindow *-down-> "1" PersonListPanel
MainWindow *-down-> "1" StatusBarFooter
MainWindow - -> "0..1" HelpWindow

PersonListPanel -down-> "*" PersonCard

MainWindow -left-|> UiPart

ResultDisplay - -|> UiPart
CommandBox - -|> UiPart
PersonListPanel - -|> UiPart
PersonCard - -|> UiPart
StatusBarFooter - -|> UiPart
HelpWindow - -|> UiPart

PersonCard ..> Model
UiManager -right-> Logic
MainWindow -left-> Logic

PersonListPanel -[hidden]left- HelpWindow
HelpWindow -[hidden]left- CommandBox
CommandBox -[hidden]left- ResultDisplay
ResultDisplay -[hidden]left- StatusBarFooter

MainWindow -[hidden]-|> UiPart
@enduml

PlantUML version 1.2022.7(Tue Aug 23 01:01:30 SGT 2022)
(GPL source distribution)
Java Runtime: Java(TM) SE Runtime Environment
JVM: Java HotSpot(TM) 64-Bit Server VM
Default Encoding: Cp1252
Language: en
Country: SG
--></g></svg>
