<?xml version="1.0" encoding="us-ascii" standalone="no"?><svg xmlns="http://www.w3.org/2000/svg" xmlns:xlink="http://www.w3.org/1999/xlink" contentStyleType="text/css" height="531px" preserveAspectRatio="none" style="width:1147px;height:531px;background:#FFFFFF;" version="1.1" viewBox="0 0 1147 531" width="1147px" zoomAndPan="magnify"><defs/><g><!--cluster UI--><g id="cluster_UI"><rect fill="#FFFFFF" height="465" rx="2.5" ry="2.5" style="stroke:#181818;stroke-width:1.0;" width="854" x="98.24" y="60"/><text fill="#000000" font-family="sans-serif" font-size="14" font-weight="bold" lengthAdjust="spacing" textLength="14" x="518.24" y="74.6738">UI</text></g><!--cluster Model--><g id="cluster_Model"><rect fill="#FFFFFF" height="93" rx="2.5" ry="2.5" style="stroke:#181818;stroke-width:1.0;" width="157" x="984.24" y="431.5"/><text fill="#000000" font-family="sans-serif" font-size="14" font-weight="bold" lengthAdjust="spacing" textLength="44" x="1040.74" y="446.1738">Model</text></g><!--cluster Logic--><g id="cluster_Logic"><rect fill="#FFFFFF" height="93" rx="2.5" ry="2.5" style="stroke:#181818;stroke-width:1.0;" width="153" x="984.24" y="162"/><text fill="#000000" font-family="sans-serif" font-size="14" font-weight="bold" lengthAdjust="spacing" textLength="38" x="1041.74" y="176.6738">Logic</text></g><!--class Ui--><g id="elem_Ui"><rect codeLine="7" fill="#1D8900" height="43.5156" id="Ui" rx="2.5" ry="2.5" style="stroke:#FFFFFF;stroke-width:1.0;" width="78" x="570.24" y="94"/><text fill="#FFFFFF" font-family="Arial" font-size="15" lengthAdjust="spacing" textLength="72" x="573.24" y="112.5791">&#171;interface&#187;</text><text fill="#FFFFFF" font-family="Arial" font-size="15" lengthAdjust="spacing" textLength="13" x="602.74" y="129.3369">Ui</text></g><!--class UiPart--><g id="elem_UiPart"><rect codeLine="8" fill="#1D8900" height="43.5156" id="UiPart" rx="2.5" ry="2.5" style="stroke:#FFFFFF;stroke-width:1.0;" width="69" x="508.74" y="465"/><text fill="#FFFFFF" font-family="Arial" font-size="15" lengthAdjust="spacing" textLength="63" x="511.74" y="483.5791">{abstract}</text><text fill="#FFFFFF" font-family="Arial" font-size="15" lengthAdjust="spacing" textLength="40" x="523.24" y="500.3369">UiPart</text></g><!--class UiManager--><g id="elem_UiManager"><rect codeLine="9" fill="#1D8900" height="26.7578" id="UiManager" rx="2.5" ry="2.5" style="stroke:#FFFFFF;stroke-width:1.0;" width="75" x="683.74" y="102.5"/><text fill="#FFFFFF" font-family="Arial" font-size="15" lengthAdjust="spacing" textLength="69" x="686.74" y="121.0791">UiManager</text></g><!--class MainWindow--><g id="elem_MainWindow"><rect codeLine="10" fill="#1D8900" height="26.7578" id="MainWindow" rx="2.5" ry="2.5" style="stroke:#FFFFFF;stroke-width:1.0;" width="89" x="500.74" y="204"/><text fill="#FFFFFF" font-family="Arial" font-size="15" lengthAdjust="spacing" textLength="83" x="503.74" y="222.5791">MainWindow</text></g><!--class HelpWindow--><g id="elem_HelpWindow"><rect codeLine="11" fill="#1D8900" height="26.7578" id="HelpWindow" rx="2.5" ry="2.5" style="stroke:#FFFFFF;stroke-width:1.0;" width="88" x="566.24" y="291"/><text fill="#FFFFFF" font-family="Arial" font-size="15" lengthAdjust="spacing" textLength="82" x="569.24" y="309.5791">HelpWindow</text></g><!--class ResultDisplay--><g id="elem_ResultDisplay"><rect codeLine="12" fill="#1D8900" height="26.7578" id="ResultDisplay" rx="2.5" ry="2.5" style="stroke:#FFFFFF;stroke-width:1.0;" width="96" x="300.24" y="291"/><text fill="#FFFFFF" font-family="Arial" font-size="15" lengthAdjust="spacing" textLength="90" x="303.24" y="309.5791">ResultDisplay</text></g><!--class PersonListPanel--><g id="elem_PersonListPanel"><rect codeLine="13" fill="#1D8900" height="26.7578" id="PersonListPanel" rx="2.5" ry="2.5" style="stroke:#FFFFFF;stroke-width:1.0;" width="113" x="689.74" y="291"/><text fill="#FFFFFF" font-family="Arial" font-size="15" lengthAdjust="spacing" textLength="107" x="692.74" y="309.5791">PersonListPanel</text></g><!--class PersonCard--><g id="elem_PersonCard"><rect codeLine="14" fill="#1D8900" height="26.7578" id="PersonCard" rx="2.5" ry="2.5" style="stroke:#FFFFFF;stroke-width:1.0;" width="85" x="698.74" y="378"/><text fill="#FFFFFF" font-family="Arial" font-size="15" lengthAdjust="spacing" textLength="79" x="701.74" y="396.5791">PersonCard</text></g><!--class TaskListPanel--><g id="elem_TaskListPanel"><rect codeLine="15" fill="#1D8900" height="26.7578" id="TaskListPanel" rx="2.5" ry="2.5" style="stroke:#FFFFFF;stroke-width:1.0;" width="98" x="838.24" y="291"/><text fill="#FFFFFF" font-family="Arial" font-size="15" lengthAdjust="spacing" textLength="92" x="841.24" y="309.5791">TaskListPanel</text></g><!--class TaskCard--><g id="elem_TaskCard"><rect codeLine="16" fill="#1D8900" height="26.7578" id="TaskCard" rx="2.5" ry="2.5" style="stroke:#FFFFFF;stroke-width:1.0;" width="70" x="856.24" y="378"/><text fill="#FFFFFF" font-family="Arial" font-size="15" lengthAdjust="spacing" textLength="64" x="859.24" y="396.5791">TaskCard</text></g><!--class StatusBarFooter--><g id="elem_StatusBarFooter"><rect codeLine="17" fill="#1D8900" height="26.7578" id="StatusBarFooter" rx="2.5" ry="2.5" style="stroke:#FFFFFF;stroke-width:1.0;" width="113" x="151.74" y="291"/><text fill="#FFFFFF" font-family="Arial" font-size="15" lengthAdjust="spacing" textLength="107" x="154.74" y="309.5791">StatusBarFooter</text></g><!--class CommandBox--><g id="elem_CommandBox"><rect codeLine="18" fill="#1D8900" height="26.7578" id="CommandBox" rx="2.5" ry="2.5" style="stroke:#FFFFFF;stroke-width:1.0;" width="100" x="431.24" y="291"/><text fill="#FFFFFF" font-family="Arial" font-size="15" lengthAdjust="spacing" textLength="94" x="434.24" y="309.5791">CommandBox</text></g><!--class HiddenModel--><g id="elem_HiddenModel"><rect codeLine="22" fill="#FFFFFF" height="26.7578" id="HiddenModel" rx="2.5" ry="2.5" style="stroke:#FFFFFF;stroke-width:1.0;" width="89" x="1027.74" y="473.5"/><text fill="#FFFFFF" font-family="Arial" font-size="15" lengthAdjust="spacing" textLength="83" x="1030.74" y="492.0791">HiddenModel</text></g><!--class HiddenLogic--><g id="elem_HiddenLogic"><rect codeLine="26" fill="#FFFFFF" height="26.7578" id="HiddenLogic" rx="2.5" ry="2.5" style="stroke:#FFFFFF;stroke-width:1.0;" width="86" x="1027.24" y="204"/><text fill="#FFFFFF" font-family="Arial" font-size="15" lengthAdjust="spacing" textLength="80" x="1030.24" y="222.5791">HiddenLogic</text></g><!--class HiddenOutside--><g id="elem_HiddenOutside"><rect codeLine="29" fill="#FFFFFF" height="26.7578" id="HiddenOutside" rx="2.5" ry="2.5" style="stroke:#FFFFFF;stroke-width:1.0;" width="102" x="558.24" y="7"/><text fill="#FFFFFF" font-family="Arial" font-size="15" lengthAdjust="spacing" textLength="96" x="561.24" y="25.5791">HiddenOutside</text></g><!--link HiddenOutside to Ui--><g id="link_HiddenOutside_Ui"><path codeLine="30" d="M609.24,34.11 C609.24,49.36 609.24,69.28 609.24,87.66 " fill="none" id="HiddenOutside-to-Ui" style="stroke:#0E4100;stroke-width:1.1;stroke-dasharray:7.0,7.0;"/><polygon fill="#0E4100" points="609.24,93.66,613.24,84.66,609.24,88.66,605.24,84.66,609.24,93.66" style="stroke:#0E4100;stroke-width:1.1;"/></g><!--reverse link Ui to UiManager--><g id="link_Ui_UiManager"><path codeLine="32" d="M666.62,116 C678.25,116 671.88,116 683.51,116 " fill="none" id="Ui-backto-UiManager" style="stroke:#0E4100;stroke-width:1.1;stroke-dasharray:7.0,7.0;"/><polygon fill="none" points="648.62,116,666.62,122,666.62,110,648.62,116" style="stroke:#0E4100;stroke-width:1.1;"/></g><!--link UiManager to MainWindow--><g id="link_UiManager_MainWindow"><path codeLine="33" d="M698.95,129.6 C665.19,148.69 606.6731,181.7671 572.8531,200.8871 " fill="none" id="UiManager-to-MainWindow" style="stroke:#0E4100;stroke-width:1.1;"/><polygon fill="#0E4100" points="567.63,203.84,577.4332,202.8928,571.9826,201.3793,573.4961,195.9287,567.63,203.84" style="stroke:#0E4100;stroke-width:1.1;"/><text fill="#000000" font-family="sans-serif" font-size="13" font-weight="bold" lengthAdjust="spacing" textLength="7" x="568.4221" y="193.2442">1</text></g><!--link MainWindow to CommandBox--><g id="link_MainWindow_CommandBox"><path codeLine="34" d="M528.5819,240.6264 C516.4819,256.6964 506.4486,270.0164 494.3286,286.1164 " fill="none" id="MainWindow-CommandBox" style="stroke:#0E4100;stroke-width:1.1;"/><polygon fill="#0E4100" points="535.8,231.04,528.9955,233.4272,528.5819,240.6264,535.3864,238.2392,535.8,231.04" style="stroke:#0E4100;stroke-width:1.1;"/><polygon fill="#0E4100" points="490.72,290.91,499.3286,286.1254,493.7271,286.9154,492.9371,281.3139,490.72,290.91" style="stroke:#0E4100;stroke-width:1.1;"/><text fill="#000000" font-family="sans-serif" font-size="13" font-weight="bold" lengthAdjust="spacing" textLength="7" x="486.1868" y="280.3431">1</text></g><!--link MainWindow to ResultDisplay--><g id="link_MainWindow_ResultDisplay"><path codeLine="35" d="M505.1521,235.7945 C467.9121,251.8645 420.2387,272.4322 382.9387,288.5322 " fill="none" id="MainWindow-ResultDisplay" style="stroke:#0E4100;stroke-width:1.1;"/><polygon fill="#0E4100" points="516.17,231.04,509.0762,229.7446,505.1521,235.7945,512.2459,237.0899,516.17,231.04" style="stroke:#0E4100;stroke-width:1.1;"/><polygon fill="#0E4100" points="377.43,290.91,387.2783,291.0158,382.0206,288.9285,384.1079,283.6709,377.43,290.91" style="stroke:#0E4100;stroke-width:1.1;"/><text fill="#000000" font-family="sans-serif" font-size="13" font-weight="bold" lengthAdjust="spacing" textLength="7" x="381.0271" y="280.3431">1</text></g><!--link MainWindow to PersonListPanel--><g id="link_MainWindow_PersonListPanel"><path codeLine="36" d="M585.9523,235.714 C623.9523,251.784 672.8741,272.4724 710.9341,288.5724 " fill="none" id="MainWindow-PersonListPanel" style="stroke:#0E4100;stroke-width:1.1;"/><polygon fill="#0E4100" points="574.9,231.04,578.8682,237.0611,585.9523,235.714,581.9842,229.6929,574.9,231.04" style="stroke:#0E4100;stroke-width:1.1;"/><polygon fill="#0E4100" points="716.46,290.91,709.7295,283.7197,711.8551,288.962,706.6127,291.0876,716.46,290.91" style="stroke:#0E4100;stroke-width:1.1;"/><text fill="#000000" font-family="sans-serif" font-size="13" font-weight="bold" lengthAdjust="spacing" textLength="7" x="695.732" y="280.3431">1</text></g><!--link MainWindow to TaskListPanel--><g id="link_MainWindow_TaskListPanel"><path codeLine="37" d="M601.5958,232.5042 C665.6958,248.4342 765.807,273.3234 832.267,289.8334 " fill="none" id="MainWindow-TaskListPanel" style="stroke:#0E4100;stroke-width:1.1;"/><polygon fill="#0E4100" points="589.95,229.61,594.8082,234.939,601.5958,232.5042,596.7376,227.1752,589.95,229.61" style="stroke:#0E4100;stroke-width:1.1;"/><polygon fill="#0E4100" points="838.09,291.28,830.3198,285.2282,833.2375,290.0745,828.3911,292.9922,838.09,291.28" style="stroke:#0E4100;stroke-width:1.1;"/><text fill="#000000" font-family="sans-serif" font-size="13" font-weight="bold" lengthAdjust="spacing" textLength="7" x="823.357" y="286.135">1</text></g><!--link MainWindow to StatusBarFooter--><g id="link_MainWindow_StatusBarFooter"><path codeLine="38" d="M488.8542,232.7239 C425.9142,248.5939 329.1078,273.0124 263.6578,289.5224 " fill="none" id="MainWindow-StatusBarFooter" style="stroke:#0E4100;stroke-width:1.1;"/><polygon fill="#0E4100" points="500.49,229.79,493.6941,227.3784,488.8542,232.7239,495.6501,235.1356,500.49,229.79" style="stroke:#0E4100;stroke-width:1.1;"/><polygon fill="#0E4100" points="257.84,290.99,267.545,292.6672,262.6881,289.767,265.5883,284.9102,257.84,290.99" style="stroke:#0E4100;stroke-width:1.1;"/><text fill="#000000" font-family="sans-serif" font-size="13" font-weight="bold" lengthAdjust="spacing" textLength="7" x="269.8563" y="280.4561">1</text></g><!--link MainWindow to HelpWindow--><g id="link_MainWindow_HelpWindow"><path codeLine="39" d="M554.83,231.04 C567.12,247.11 584.6556,270.0436 596.9656,286.1436 " fill="none" id="MainWindow-to-HelpWindow" style="stroke:#0E4100;stroke-width:1.1;"/><polygon fill="#0E4100" points="600.61,290.91,598.321,281.3308,597.573,286.938,591.9658,286.19,600.61,290.91" style="stroke:#0E4100;stroke-width:1.1;"/><text fill="#000000" font-family="sans-serif" font-size="13" font-weight="bold" lengthAdjust="spacing" textLength="22" x="570.1001" y="280.3431">0..1</text></g><!--link PersonListPanel to PersonCard--><g id="link_PersonListPanel_PersonCard"><path codeLine="41" d="M745.5,318.04 C744.56,334.11 743.2834,355.8204 742.3334,371.9204 " fill="none" id="PersonListPanel-to-PersonCard" style="stroke:#0E4100;stroke-width:1.1;"/><polygon fill="#0E4100" points="741.98,377.91,746.5032,369.1612,742.2745,372.9187,738.5171,368.69,741.98,377.91" style="stroke:#0E4100;stroke-width:1.1;"/><text fill="#000000" font-family="sans-serif" font-size="13" font-weight="bold" lengthAdjust="spacing" textLength="5" x="736.254" y="367.3431">*</text></g><!--link TaskListPanel to TaskCard--><g id="link_TaskListPanel_TaskCard"><path codeLine="42" d="M887.83,318.04 C888.59,334.11 889.6071,355.8167 890.3671,371.9167 " fill="none" id="TaskListPanel-to-TaskCard" style="stroke:#0E4100;stroke-width:1.1;"/><polygon fill="#0E4100" points="890.65,377.91,894.2212,368.7314,890.4142,372.9156,886.2301,369.1086,890.65,377.91" style="stroke:#0E4100;stroke-width:1.1;"/><text fill="#000000" font-family="sans-serif" font-size="13" font-weight="bold" lengthAdjust="spacing" textLength="5" x="884.3754" y="367.3431">*</text></g><!--reverse link UiPart to MainWindow--><g id="link_UiPart_MainWindow"><path codeLine="44" d="M490.7444,479.8172 C376.3544,466.2972 45.3,418.45 152.24,291 C197.07,237.58 406.87,223.5 500.54,219.81 " fill="none" id="UiPart-backto-MainWindow" style="stroke:#0E4100;stroke-width:1.1;"/><polygon fill="none" points="508.62,481.93,491.4487,473.8587,490.0402,485.7758,508.62,481.93" style="stroke:#0E4100;stroke-width:1.1;"/></g><!--link MainWindow to UiPart--><!--link ResultDisplay to UiPart--><g id="link_ResultDisplay_UiPart"><path codeLine="46" d="M361.95,318.19 C395.07,348.85 466.4699,414.9432 507.3099,452.7432 " fill="none" id="ResultDisplay-to-UiPart" style="stroke:#0E4100;stroke-width:1.1;"/><polygon fill="none" points="520.52,464.97,511.3855,448.3399,503.2343,457.1466,520.52,464.97" style="stroke:#0E4100;stroke-width:1.1;"/></g><!--link CommandBox to UiPart--><g id="link_CommandBox_UiPart"><path codeLine="47" d="M485.6,318.19 C496.13,348.85 517.1801,410.1471 530.1701,447.9471 " fill="none" id="CommandBox-to-UiPart" style="stroke:#0E4100;stroke-width:1.1;"/><polygon fill="none" points="536.02,464.97,535.8444,445.9971,524.4958,449.8971,536.02,464.97" style="stroke:#0E4100;stroke-width:1.1;"/></g><!--link PersonListPanel to UiPart--><g id="link_PersonListPanel_UiPart"><path codeLine="48" d="M731.97,318.19 C697.49,348.85 622.8513,415.2091 580.3413,453.0091 " fill="none" id="PersonListPanel-to-UiPart" style="stroke:#0E4100;stroke-width:1.1;"/><polygon fill="none" points="566.89,464.97,584.3282,457.4929,576.3543,448.5253,566.89,464.97" style="stroke:#0E4100;stroke-width:1.1;"/></g><!--link PersonCard to UiPart--><g id="link_PersonCard_UiPart"><path codeLine="49" d="M714.54,405.11 C679.18,421.81 633.0254,443.5917 594.0954,461.9817 " fill="none" id="PersonCard-to-UiPart" style="stroke:#0E4100;stroke-width:1.1;"/><polygon fill="none" points="577.82,469.67,596.6582,467.4069,591.5327,456.5566,577.82,469.67" style="stroke:#0E4100;stroke-width:1.1;"/></g><!--link TaskListPanel to UiPart--><g id="link_TaskListPanel_UiPart"><path codeLine="50" d="M879.64,318.18 C866.37,339.27 836.93,381.56 801.24,405 C730.02,451.78 647.8728,470.0893 595.7528,478.4493 " fill="none" id="TaskListPanel-to-UiPart" style="stroke:#0E4100;stroke-width:1.1;"/><polygon fill="none" points="577.98,481.3,596.7031,484.3735,594.8026,472.525,577.98,481.3" style="stroke:#0E4100;stroke-width:1.1;"/></g><!--link TaskCard to UiPart--><g id="link_TaskCard_UiPart"><path codeLine="51" d="M855.96,401.98 C789,419.97 661.654,454.1915 595.224,472.0315 " fill="none" id="TaskCard-to-UiPart" style="stroke:#0E4100;stroke-width:1.1;"/><polygon fill="none" points="577.84,476.7,596.7802,477.8261,593.6679,466.2368,577.84,476.7" style="stroke:#0E4100;stroke-width:1.1;"/></g><!--link StatusBarFooter to UiPart--><g id="link_StatusBarFooter_UiPart"><path codeLine="52" d="M231.53,318.05 C289.47,349.27 424.5041,422.0215 492.8541,458.8515 " fill="none" id="StatusBarFooter-to-UiPart" style="stroke:#0E4100;stroke-width:1.1;"/><polygon fill="none" points="508.7,467.39,495.7002,453.5695,490.0079,464.1335,508.7,467.39" style="stroke:#0E4100;stroke-width:1.1;"/></g><!--link HelpWindow to UiPart--><g id="link_HelpWindow_UiPart"><path codeLine="53" d="M605.53,318.19 C594.15,348.85 571.3434,410.2949 557.3134,448.0949 " fill="none" id="HelpWindow-to-UiPart" style="stroke:#0E4100;stroke-width:1.1;"/><polygon fill="none" points="551.05,464.97,562.9385,450.1827,551.6884,446.0071,551.05,464.97" style="stroke:#0E4100;stroke-width:1.1;"/></g><!--link PersonCard to Model--><g id="link_PersonCard_Model"><path codeLine="55" d="M784.14,398.29 C801.26,400.52 821.17,403.01 839.24,405 C864.31,407.76 931.06,401.81 952.24,415.5 C966.895,424.97 976.7375,441.8075 982.9913,456.6525 C983.3821,457.5803 981.5352,452.9277 981.8983,453.8376 " fill="none" id="PersonCard-to-Model" style="stroke:#0E4100;stroke-width:1.1;stroke-dasharray:7.0,7.0;"/><polygon fill="#0E4100" points="984.1221,459.4103,984.5015,449.5688,982.2689,454.7664,977.0713,452.5338,984.1221,459.4103" style="stroke:#0E4100;stroke-width:1.1;"/></g><!--link TaskCard to Model--><g id="link_TaskCard_Model"><path codeLine="56" d="M926.43,401.09 C935.53,404.5 944.84,409.17 952.24,415.5 C965.5,426.845 975.3,443.74 981.88,458.1463 C982.7025,459.947 981.1368,456.1831 981.8591,457.8905 " fill="none" id="TaskCard-to-Model" style="stroke:#0E4100;stroke-width:1.1;stroke-dasharray:7.0,7.0;"/><polygon fill="#0E4100" points="984.197,463.4162,984.374,453.569,982.2488,458.8114,977.0063,456.6862,984.197,463.4162" style="stroke:#0E4100;stroke-width:1.1;"/></g><!--link UiManager to Logic--><g id="link_UiManager_Logic"><path codeLine="57" d="M758.91,117.7 C816.1,119.42 921.42,125.37 952.24,146 C966.74,155.705 976.5775,172.55 982.8675,187.34 C983.2606,188.2644 983.6399,189.1807 984.0056,190.0868 C984.0513,190.2001 981.8637,184.7442 981.9089,184.8571 " fill="none" id="UiManager-to-Logic" style="stroke:#0E4100;stroke-width:1.1;"/><polygon fill="#0E4100" points="984.1421,190.4261,984.505,180.5839,982.2811,185.7853,977.0797,183.5614,984.1421,190.4261" style="stroke:#0E4100;stroke-width:1.1;"/></g><!--reverse link Logic to MainWindow--><g id="link_Logic_MainWindow"><path codeLine="58" d="M977.9967,217.5 C976.9496,217.5 980.3318,217.5 979.2847,217.5 C975.0963,217.5 970.9078,217.5 966.7194,217.5 C958.3425,217.5 949.9656,217.5 941.5888,217.5 C924.835,217.5 908.0813,217.5 891.3277,217.5 C857.8203,217.5 824.3131,217.5 790.8063,217.5 C723.7925,217.5 656.78,217.5 589.77,217.5 " fill="none" id="Logic-backto-MainWindow" style="stroke:#0E4100;stroke-width:1.1;"/><polygon fill="#0E4100" points="983.9967,217.5,974.9967,213.5,978.9967,217.5,974.9967,221.5,983.9967,217.5" style="stroke:#0E4100;stroke-width:1.1;"/></g><!--link PersonListPanel to TaskListPanel--><!--link HelpWindow to PersonListPanel--><!--link CommandBox to HelpWindow--><!--link ResultDisplay to CommandBox--><!--link StatusBarFooter to ResultDisplay--><!--SRC=[VP91J-Cm48Nl-HNUx0sf4PKuLZqGX41grQhRQW-mGhE9IQswTcGx0WJyzxLDKdkSBJsbxttEE6_U3oOgtjMKQFF6QT5sHvxf0nCjA3WIK4g-RFUiEWYgDPaMqzGi9PUAxEwVojLYjNdQNaL0nK7hQwWEZPATg36QPQrreA5M8RFPXbO6HCFfVFwUbUuWoMSp9WnLpr1PzL7iM4v0anqR_7Vugus2odmwSmtAz81xxA4TMuAmKrJ_VmbC_6QYbY-zS4TvYuGDrHqtDqot7DvwRKsLbcB1j5c3e1of9QYw5xQW3odaj0ZvPS1qDXHrAwKvtQgKnoE8-bg-PfyXcAMiASVPa26SErRNL7mHFs_zBpwwa0shlZtwHKH7OtFL6SriAGORgqKnTrl8JjcIWjDdKtnuEQWJ6wgOp4a-pUFSmoEv613FH2dyZt48NiuvAbtNEGxlwnoLhYpY9WwvB0fBHJtAalaXY8iyBWqQZw1JQT0m5_B4X-mBdg4mx5s25P94ykXU8yyDHN9onyGPuKbMo0i98JcUx9hbEntU7gIeM8erUsEpyYKUPpGOwUqVzhx7VpmqQiae7On72uw_14DHXUCTO0YNEDaYHjFkeMyTq13cFm00]--></g></svg>